<?xml version="1.0" standalone="no"?>
<!DOCTYPE svg PUBLIC "-//W3C//DTD SVG 1.1//EN" "http://www.w3.org/Graphics/SVG/1.1/DTD/svg11.dtd" >
<svg>
<metadata>
Created by FontForge 20120731 at Sun Oct  2 10:48:20 2022
 By ffonts
This is free and unencumbered software released into the public domain.

Anyone is free to copy, modify, publish, use, compile, sell, or
distribute this software, either in source code form or as a compiled
binary, for any purpose, commercial or non-commercial, and by any
means.

In jurisdictions that recognize copyright laws, the author or authors
of this software dedicate any and all copyright interest in the
software to the public domain. We make this dedication for the benefit
of the public at large and to the detriment of our heirs and
successors. We intend this dedication to be an overt act of
relinquishment in perpetuity of all present and future rights to this
software under copyright law.

THE SOFTWARE IS PROVIDED "AS IS", WITHOUT WARRANTY OF ANY KIND,
EXPRESS OR IMPLIED, INCLUDING BUT NOT LIMITED TO THE WARRANTIES OF
MERCHANTABILITY, FITNESS FOR A PARTICULAR PURPOSE AND NONINFRINGEMENT.
IN NO EVENT SHALL THE AUTHORS BE LIABLE FOR ANY CLAIM, DAMAGES OR
OTHER LIABILITY, WHETHER IN AN ACTION OF CONTRACT, TORT OR OTHERWISE,
ARISING FROM, OUT OF OR IN CONNECTION WITH THE SOFTWARE OR THE USE OR
OTHER DEALINGS IN THE SOFTWARE.

For more information, please refer to &#60;http://unlicense.org/&#62;
</metadata>
<defs>
<font id="MargarineyWords-Regular" horiz-adv-x="655" >
  <font-face 
    font-family="MargarineyWords"
    font-weight="400"
    font-stretch="normal"
    units-per-em="1024"
    panose-1="2 0 5 3 0 0 0 0 0 0"
    ascent="900"
    descent="-124"
    x-height="692"
    cap-height="690"
    bbox="-6 -196 1207 962"
    underline-thickness="50"
    underline-position="-51"
    stemh="85"
    stemv="110"
    unicode-range="U+0020-E000"
  />
<missing-glyph horiz-adv-x="512" 
d="M51 0v600h410v-600h-410zM102 51h308v498h-308v-498z" />
    <glyph glyph-name=".notdef" horiz-adv-x="512" 
d="M51 0v600h410v-600h-410zM102 51h308v498h-308v-498z" />
    <glyph glyph-name="space" unicode=" " horiz-adv-x="310" 
 />
    <glyph glyph-name="exclam" unicode="!" horiz-adv-x="254" 
d="M72 404v32c0 1 -1 3 -1 4c0 66 1 139 3 171c3 47 6 65 34 79c9 4 17 6 27 6c23 0 53 -10 53 -39c0 -1 1 -2 1 -2c0 -6 -1 -13 -2 -19c-2 -10 -6 -161 -7 -216c-3 -156 -4 -179 -14 -197c-7 -13 -25 -19 -42 -19c-37 0 -43 24 -46 61c-1 24 -7 34 -7 60s1 52 1 79zM68 75
c0 35 21 50 57 50c29 0 51 -11 51 -43c0 -41 -17 -74 -60 -74c-38 0 -48 32 -48 67z" />
    <glyph glyph-name="quotedbl" unicode="&#x22;" horiz-adv-x="422" 
d="M302 678c36 0 58 -11 58 -45c0 -13 -5 -66 -8 -93l-9 -100c-3 -4 -6 -9 -9 -13c-9 -15 -24 -21 -40 -21c-34 0 -46 18 -48 54c-2 20 -2 46 -2 72c0 28 2 58 4 80c4 42 11 63 51 67l1 -1h2zM66 631c0 35 17 56 51 56c23 0 49 -10 56 -27c5 -10 6 -26 6 -45
c0 -4 -1 -7 -1 -11c0 -49 -6 -116 -12 -146c-8 -33 -14 -54 -50 -54h-1c-16 0 -33 8 -40 21c-4 7 -5 18 -6 38c-1 25 -2 63 -2 112v1c0 20 -1 35 -1 55z" />
    <glyph glyph-name="numbersign" unicode="#" 
d="M557 256c26 0 41 -13 41 -41v-4c0 -43 -76 -38 -124 -44v-5c0 -29 -1 -121 -4 -133c-4 -22 -25 -31 -43 -31c-17 0 -36 10 -39 32c-1 6 -3 13 -4 18c-3 14 -9 73 -10 113c-35 -2 -71 -8 -105 -12v-39c0 -63 -3 -80 -17 -92c-9 -8 -18 -10 -29 -10c-34 0 -36 24 -42 56
c-3 14 -5 27 -5 46c0 13 -3 18 -5 30h-47c-12 0 -20 -2 -33 -2c-24 0 -41 7 -41 27c0 6 1 13 6 17c14 14 30 19 110 32v10c0 16 -3 57 -4 76h-36c-9 0 -16 -2 -25 -2c-22 0 -41 8 -41 27c0 8 3 15 9 21c13 13 25 15 63 22c8 2 18 3 26 5c0 2 1 3 1 5c0 4 1 7 1 11
s-2 6 -2 10v117c14 13 32 26 53 26c20 0 35 -9 47 -21v-1c1 -41 1 -97 3 -132c29 3 80 9 109 12c1 15 2 22 2 46v54c0 33 19 46 52 46c18 0 34 -5 44 -19c4 -6 5 -12 5 -34v-43c-1 -17 -1 -27 -2 -44c22 2 50 3 77 3c26 0 50 -4 50 -32c0 -9 -2 -16 -6 -22
c-11 -14 -28 -17 -78 -20l-41 -3v-89c23 1 68 13 84 13zM264 307c0 -18 3 -63 5 -82c33 2 70 6 103 9v90c-31 -3 -81 -7 -108 -12v-5z" />
    <glyph glyph-name="dollar" unicode="$" horiz-adv-x="633" 
d="M393 96c65 27 95 68 95 119c0 39 -17 71 -45 82c-15 6 -28 9 -73 9h-10c-2 -76 -3 -145 -5 -221c11 4 27 7 38 11zM308 -86h-3c-24 0 -31 23 -31 56v25c-41 6 -87 18 -123 40c-47 29 -74 63 -86 109c-3 11 -4 19 -4 28c0 27 21 40 41 40c39 0 46 -38 63 -64
c21 -24 66 -46 109 -58c-1 70 -2 156 -2 210v5h-5c-47 0 -73 1 -102 7c-67 14 -111 50 -111 100c0 20 2 55 15 80c35 65 122 131 208 171c3 66 5 79 20 89c10 6 16 10 30 10c21 0 43 -14 44 -24c0 -9 -1 -12 -1 -18v-27c9 1 23 2 34 2h1c26 0 53 0 68 -6
c58 -22 88 -62 90 -142v-40c-10 -19 -25 -35 -47 -35c0 0 -24 6 -27 7c-18 13 -20 24 -21 59c-1 18 -1 36 -7 46c-5 9 -23 18 -29 21c-2 1 -12 3 -14 3c-13 0 -37 -4 -51 -6l-6 -217h65c73 0 124 -40 145 -89c6 -16 11 -43 11 -67c0 -29 -1 -47 -7 -66
c-18 -58 -55 -102 -114 -132c-34 -18 -73 -29 -111 -34c-1 -15 0 -32 -1 -41c-3 -27 -16 -41 -41 -42zM272 383v6c0 44 1 116 3 175c-30 -19 -66 -40 -87 -63c-27 -26 -39 -69 -39 -82c0 -12 7 -14 15 -18c20 -11 70 -17 108 -18z" />
    <glyph glyph-name="percent" unicode="%" horiz-adv-x="582" 
d="M349 348c-12 -17 -15 -27 -23 -43c10 2 20 3 32 3c34 0 66 -9 91 -28c35 -27 48 -68 48 -114c0 -42 -13 -66 -32 -95c-15 -22 -40 -48 -62 -54c-28 -8 -49 -9 -65 -9c-24 0 -43 3 -64 20c-42 35 -53 57 -57 77l-2 13c-17 -31 -49 -96 -78 -112c-10 -4 -18 -6 -28 -6
c-17 0 -50 5 -50 28c0 18 14 50 33 86c39 77 104 168 143 244c-10 -1 -24 -2 -34 -2h-1c-40 0 -78 10 -107 32c-34 27 -41 47 -41 97c0 92 101 170 188 170c61 0 95 -59 120 -96c18 33 59 81 77 112c10 17 31 23 54 23c21 0 46 -6 46 -30c0 -16 -10 -36 -24 -61
c-23 -42 -54 -83 -81 -123s-57 -91 -83 -132zM155 474c0 -16 10 -48 29 -48c10 0 24 5 37 14c17 11 34 27 46 45c9 11 9 18 9 25c0 25 -13 52 -24 63c-4 3 -7 7 -13 7s-12 -6 -17 -8c-39 -19 -67 -55 -67 -98zM370 237c-39 -13 -71 -61 -71 -110c0 -14 12 -51 29 -51h2
c10 0 18 0 26 8c19 20 37 66 37 98c0 25 -12 43 -23 55z" />
    <glyph glyph-name="ampersand" unicode="&#x26;" horiz-adv-x="580" 
d="M461 -10c-24 0 -45 13 -50 34l-1 3c-38 -21 -87 -37 -143 -37c-77 0 -125 21 -167 62c-23 21 -35 40 -45 68c-7 18 -8 24 -8 51v1c0 24 0 34 6 53c23 64 71 126 141 175l4 4l-4 1c-56 23 -89 62 -89 124c0 13 2 20 7 33c24 67 90 116 160 131c19 4 16 7 45 7
c73 0 120 -12 150 -57c7 -9 8 -17 8 -26c0 -26 -24 -43 -55 -43c-22 0 -33 4 -50 24c-12 14 -20 18 -43 18c-37 0 -78 -21 -99 -53c-9 -14 -12 -25 -12 -35c0 -3 1 -10 2 -13c5 -25 35 -44 92 -54c33 -5 50 -12 50 -39c0 0 -1 -1 -1 -2c0 -25 -13 -34 -31 -43
c-64 -34 -126 -86 -152 -136c-14 -25 -19 -48 -19 -67c0 -60 55 -99 113 -99c49 0 95 22 134 53l1 68c2 74 3 82 8 123c5 48 9 81 57 81c25 0 40 -12 41 -43c3 -64 3 -223 7 -278c1 -13 1 -28 1 -39c0 -37 -22 -50 -58 -50z" />
    <glyph glyph-name="quotesingle" unicode="'" horiz-adv-x="324" 
d="M215 763c24 0 57 -10 57 -42c0 -19 -14 -46 -47 -101c-35 -60 -43 -66 -67 -85c-15 -12 -38 -25 -64 -25c-17 0 -37 9 -37 34v9c3 16 7 32 46 103c9 16 25 45 32 58c16 28 37 49 80 49z" />
    <glyph glyph-name="parenleft" unicode="(" horiz-adv-x="399" 
d="M350 47c0 -22 -24 -33 -43 -33c-18 0 -37 10 -66 30c-37 26 -57 43 -86 72c-88 89 -101 163 -101 249c0 33 2 54 13 87c18 52 61 103 111 158c26 29 44 49 58 62c18 17 23 20 51 20s53 -14 53 -40c0 -6 -3 -11 -5 -15c-45 -53 -125 -128 -148 -174
c-18 -37 -22 -56 -22 -92v-3c0 -29 0 -34 6 -53c20 -65 43 -120 135 -209c36 -34 44 -43 44 -59z" />
    <glyph glyph-name="parenright" unicode=")" horiz-adv-x="401" 
d="M49 47c0 16 8 25 44 59c92 89 116 144 136 209c6 18 6 23 6 49v7c0 36 -6 55 -24 92c-18 36 -62 80 -108 128c-13 13 -37 42 -40 47c-2 4 -4 7 -4 14c0 26 25 40 53 40s33 -3 51 -20c13 -13 32 -33 58 -62c50 -55 93 -106 111 -158c11 -33 14 -54 14 -87
c0 -86 -13 -160 -101 -249c-29 -29 -50 -46 -87 -72c-29 -20 -48 -30 -66 -30c-19 0 -43 11 -43 33z" />
    <glyph glyph-name="asterisk" unicode="*" horiz-adv-x="564" 
d="M186 394c-23 -3 -58 -6 -77 -6c-29 0 -60 11 -60 40c0 10 6 21 18 28c14 9 34 14 80 20c9 1 19 2 27 3c-13 15 -30 34 -43 49c-15 17 -22 25 -22 37c0 32 32 43 61 43c23 0 37 -10 66 -43c8 -8 13 -16 20 -24c13 20 33 57 43 79c8 19 31 24 50 24c21 0 53 -11 53 -36
c0 -13 -7 -29 -24 -63c-6 -11 -13 -24 -19 -35c30 6 65 15 98 15c27 0 54 -13 54 -40c0 -12 -6 -23 -19 -31c-15 -11 -97 -23 -132 -30c12 -14 35 -41 41 -51c16 -20 20 -29 20 -39c0 -24 -23 -38 -46 -38c-11 0 -18 3 -27 7c-10 5 -29 16 -47 34c-7 8 -14 15 -21 23
c-21 -33 -42 -78 -83 -78c-19 0 -40 13 -40 34c0 22 20 60 29 78z" />
    <glyph glyph-name="plus" unicode="+" horiz-adv-x="568" 
d="M334 476l-2 -80c32 2 89 7 123 7c30 0 56 -13 56 -41c0 -12 -4 -21 -14 -28c-14 -13 -58 -15 -107 -19c-5 0 -14 -1 -18 -2c-5 0 -10 1 -14 1h-24l-2 -2l-3 -82c0 -40 -1 -49 -7 -58c-8 -14 -26 -25 -44 -25c-15 0 -31 9 -39 19c-10 15 -14 88 -19 141c-11 1 -21 2 -32 3
c-74 1 -112 2 -127 16c-6 6 -7 15 -7 22c0 29 30 33 66 37c27 3 80 4 98 4h2c1 22 5 71 6 93c2 36 5 73 50 73h5c35 0 55 -13 55 -47c0 -11 -2 -20 -2 -32z" />
    <glyph glyph-name="comma" unicode="," horiz-adv-x="335" 
d="M213 112c25 0 56 -10 56 -42c0 -19 -12 -45 -45 -100c-37 -63 -42 -63 -72 -88c-14 -11 -36 -22 -59 -22c-18 0 -39 10 -39 34v10c3 16 8 31 47 102c10 18 26 47 32 59c16 28 38 47 80 47z" />
    <glyph glyph-name="hyphen" unicode="-" horiz-adv-x="463" 
d="M113 309c-28 0 -46 13 -46 35c0 24 20 30 44 36c40 9 66 14 142 15h81c31 0 41 -3 54 -18c5 -7 7 -13 7 -20c0 -18 -14 -33 -37 -40c-22 -7 -117 -7 -199 -7h-18c-10 0 -19 -1 -28 -1z" />
    <glyph glyph-name="period" unicode="." horiz-adv-x="275" 
d="M126 -22c-47 0 -61 31 -61 79v10c0 32 3 54 34 70c13 6 25 10 39 10c36 0 71 -14 71 -56c0 -64 -13 -74 -33 -96c-12 -13 -31 -17 -50 -17z" />
    <glyph glyph-name="slash" unicode="/" horiz-adv-x="469" 
d="M84 -4c-23 0 -40 12 -40 34c0 8 1 16 3 23c32 100 171 413 242 548c18 34 29 56 37 64c10 10 28 15 46 15c24 0 52 -14 52 -39c0 -7 -1 -13 -6 -20c-5 -8 -41 -79 -52 -102c-30 -66 -80 -162 -108 -226c-69 -157 -117 -256 -133 -277c-11 -13 -24 -20 -41 -20z" />
    <glyph glyph-name="zero" unicode="0" horiz-adv-x="630" 
d="M197 29c-22 13 -58 47 -76 71c-38 53 -66 123 -66 190c0 148 33 238 114 328c35 39 85 59 127 65c12 2 25 2 39 2h4c19 0 36 -1 48 -3c115 -21 184 -129 184 -278c0 -54 -6 -138 -24 -186c-43 -120 -131 -204 -234 -212h-1c-4 0 -7 -2 -11 -2c-33 0 -74 10 -104 25z
M218 511c-24 -36 -42 -89 -52 -194v-9c0 -61 29 -140 70 -183c20 -22 41 -36 63 -36c17 0 38 8 58 28c58 58 103 171 103 285c0 101 -42 176 -106 196c-6 2 -15 5 -19 5c-35 0 -85 -44 -117 -92z" />
    <glyph glyph-name="one" unicode="1" horiz-adv-x="443" 
d="M253 77c-1 18 -1 37 -1 56c0 90 5 193 5 276v14c0 41 3 83 3 125v14c-36 -26 -68 -44 -108 -71c-31 -23 -49 -36 -67 -36c-19 0 -40 13 -41 33c0 6 2 13 6 19c9 15 76 80 120 113c40 29 92 65 106 71c13 5 27 8 42 8c26 0 57 -8 58 -39c0 -7 -1 -16 -2 -34
c-7 -117 -5 -416 -15 -519c-4 -42 -8 -68 -18 -81c-9 -12 -25 -19 -40 -19c-21 0 -34 12 -46 21z" />
    <glyph glyph-name="two" unicode="2" horiz-adv-x="661" 
d="M99 -2c-25 0 -55 12 -55 37c0 3 0 8 2 10c7 14 14 19 65 48c3 2 7 3 10 5c114 67 187 121 250 184c52 50 82 102 93 145c3 11 4 24 4 37c0 18 -1 37 -6 49c-22 58 -77 104 -156 104c-15 0 -30 -2 -38 -4c-39 -11 -79 -41 -96 -74c-12 -21 -28 -34 -57 -34
c-21 0 -52 11 -52 39c0 8 4 17 9 28c31 61 121 118 198 128c7 1 13 1 21 1h38c7 0 15 0 23 -1c104 -12 198 -84 223 -176c4 -15 5 -35 5 -56c0 -18 -1 -35 -4 -49c-8 -32 -27 -66 -50 -100c-49 -70 -142 -154 -252 -229c-5 -2 -9 -6 -14 -8h41c119 -3 225 -6 273 -16
c22 -5 42 -12 42 -32c0 -13 -11 -24 -24 -30c-10 -5 -15 -6 -43 -6h-39h-303h-108z" />
    <glyph glyph-name="three" unicode="3" horiz-adv-x="636" 
d="M571 272c12 -25 18 -48 18 -78c0 -28 -6 -50 -18 -72c-38 -71 -135 -114 -248 -114c-97 0 -172 24 -230 75c-35 30 -51 58 -51 81c0 22 17 37 45 37c19 0 32 -8 52 -29c40 -43 108 -81 192 -81c78 0 148 35 148 104c0 55 -48 110 -125 132c-21 6 -33 8 -71 13
c-30 4 -65 9 -65 36c0 29 40 45 63 45c13 0 66 16 94 28c37 16 54 28 66 49c4 7 4 10 4 22v3c0 35 -28 68 -72 86c-13 6 -13 6 -39 6h-27c-8 -4 -17 -7 -25 -11c-30 -14 -54 -36 -66 -56c-13 -22 -35 -33 -59 -33c-23 0 -39 8 -49 24c-2 3 -6 8 -6 13c0 6 4 10 5 15
c22 57 92 109 163 126c20 5 32 6 69 6h11c29 0 37 -1 57 -6c75 -19 151 -81 151 -167c0 -55 -35 -103 -102 -139h-12c58 -26 101 -62 127 -115z" />
    <glyph glyph-name="four" unicode="4" horiz-adv-x="726" 
d="M431 292v2c-36 -7 -132 -30 -198 -46c-79 -20 -92 -20 -114 -20c-41 0 -71 20 -71 53c0 22 68 251 91 334c21 77 26 88 50 98c9 3 17 5 27 5c25 0 57 -10 57 -34c0 -8 -14 -56 -31 -115c-21 -73 -56 -199 -71 -256c56 14 214 55 264 59c2 86 9 202 13 293c1 12 1 25 7 32
c12 14 33 17 52 17c27 0 46 -9 57 -28l-13 -287c28 5 78 6 80 6c23 0 48 -4 48 -28c0 -12 -8 -24 -21 -31s-85 -20 -109 -27c-1 -9 -2 -25 -3 -45c-3 -77 -15 -238 -28 -259c-10 -13 -26 -19 -47 -19c-17 0 -33 5 -38 16c-3 4 -3 11 -3 23v63c0 51 2 132 2 183
c0 4 -1 7 -1 11z" />
    <glyph glyph-name="five" unicode="5" horiz-adv-x="632" 
d="M323 510c53 0 56 -4 82 -12c60 -18 103 -52 133 -98c13 -20 33 -65 33 -113v-12c-6 -78 -12 -125 -89 -193c-51 -44 -107 -70 -183 -82c-15 -2 -30 -2 -48 -2h-1c-82 0 -136 20 -172 61c-13 15 -24 30 -24 43c0 25 28 37 50 37c19 0 34 -12 47 -23c26 -21 65 -34 103 -34
h1c93 0 166 59 194 122c9 21 14 45 14 67c0 48 -22 95 -61 122c-29 20 -59 31 -91 31c-41 0 -83 -17 -131 -54c-23 -18 -40 -26 -60 -26c-27 0 -50 14 -50 37c0 7 1 9 1 16c0 15 -1 27 -1 43c0 36 3 88 3 124c0 18 -2 46 -2 65c0 40 23 65 68 75c13 2 60 4 121 4
c66 0 144 -1 203 -3c46 -1 80 -3 88 -7c14 -7 24 -17 24 -32c0 -25 -15 -36 -39 -42c-11 -2 -34 -3 -66 -3c-68 0 -172 4 -240 4h-48c1 -18 3 -31 3 -52c0 -24 -3 -69 -3 -94v-3c55 16 60 34 141 34z" />
    <glyph glyph-name="six" unicode="6" horiz-adv-x="642" 
d="M288 -2h-1c-88 0 -162 55 -201 111c-23 35 -34 103 -34 145c0 15 1 31 4 47c8 45 39 112 71 159c77 115 190 203 317 240c19 5 35 7 50 7c27 0 53 -13 53 -39c0 -34 -37 -38 -66 -45c-121 -32 -231 -127 -284 -248c48 19 122 33 185 33c96 0 161 -31 199 -87
c6 -8 11 -26 11 -52s-3 -55 -12 -75c-48 -102 -166 -187 -275 -197c-3 -2 -5 -3 -9 -3s-6 2 -8 4zM162 265v-12c0 -73 58 -170 133 -170c11 0 24 2 36 5c75 21 152 121 152 176c0 49 -50 60 -107 60c-48 0 -108 -12 -168 -32c-16 -5 -31 -7 -38 -7s-8 -11 -8 -20z" />
    <glyph glyph-name="seven" unicode="7" horiz-adv-x="671" 
d="M543 692c51 -2 83 -5 83 -45c0 -15 -6 -26 -30 -66c-79 -135 -211 -370 -276 -479c-12 -18 -39 -61 -49 -74c-18 -24 -32 -34 -56 -34c-20 0 -43 8 -43 31c0 9 7 22 12 33c13 25 28 56 40 80c48 93 223 396 274 477c-115 -2 -257 -4 -359 -4c-58 0 -60 1 -69 6
c-15 8 -24 19 -24 33c0 16 11 27 28 36l14 7l103 1h113c94 0 189 0 239 -2z" />
    <glyph glyph-name="eight" unicode="8" horiz-adv-x="580" 
d="M516 110c-38 -68 -134 -110 -239 -110c-56 0 -111 10 -152 35c-43 26 -79 70 -79 128c0 24 13 51 31 76c26 36 62 70 95 103c-46 36 -97 86 -97 150c0 119 91 181 201 201c15 3 43 3 49 3h1c64 0 115 -20 138 -61c14 -21 20 -41 20 -63c0 -45 -22 -95 -50 -134
c-24 -32 -52 -54 -72 -74c69 -33 174 -95 174 -187c0 -22 -7 -43 -20 -67zM311 614c-71 0 -125 -36 -125 -100c0 -50 30 -99 69 -121c45 31 66 53 81 78c24 40 28 84 28 109s-22 34 -53 34zM280 312c-40 -20 -124 -80 -124 -144c0 -10 2 -20 6 -28c17 -35 69 -56 122 -56
c83 0 134 41 134 84c0 72 -82 116 -138 144z" />
    <glyph glyph-name="nine" unicode="9" horiz-adv-x="597" 
d="M352 46c0 30 7 62 23 126c8 34 18 79 26 117c-37 -7 -81 -15 -139 -15c-51 0 -108 7 -149 39c-33 25 -63 55 -63 107c0 72 48 153 99 201c46 43 97 69 151 82c18 4 43 7 66 7h3c16 0 30 0 42 -4c91 -23 129 -100 129 -211c0 -123 -36 -248 -63 -359
c-17 -69 -31 -114 -36 -122c-8 -13 -24 -20 -42 -20c-33 0 -47 18 -47 52zM271 358c36 0 86 8 132 22c12 4 17 3 18 17c3 32 6 67 6 93c0 81 -21 123 -56 132c-4 1 -12 5 -16 5c-5 0 -16 -4 -23 -6c-32 -8 -77 -37 -105 -65c-43 -43 -63 -92 -63 -132c0 -60 47 -66 107 -66z
" />
    <glyph glyph-name="colon" unicode=":" horiz-adv-x="269" 
d="M122 -22c-46 0 -60 31 -60 79v10c0 32 2 53 33 70c13 6 25 10 39 10c36 0 72 -14 72 -56c0 -63 -14 -74 -34 -96c-12 -13 -31 -17 -50 -17zM126 442c-45 0 -58 31 -58 77v10c0 30 3 52 33 68c13 7 25 9 40 9c30 0 65 -15 65 -54c0 -61 -12 -71 -31 -92
c-11 -12 -31 -18 -49 -18z" />
    <glyph glyph-name="semicolon" unicode=";" horiz-adv-x="319" 
d="M202 113c25 0 56 -11 56 -43c0 -19 -13 -45 -46 -100c-37 -63 -41 -63 -71 -88c-14 -11 -37 -22 -60 -22c-18 0 -37 10 -37 34v10c3 16 7 31 46 102c10 18 26 47 32 59c16 28 38 48 80 48zM175 442c-45 0 -59 31 -59 77v10c0 30 2 53 32 68c13 7 26 9 41 9
c30 0 65 -15 65 -54c0 -61 -12 -70 -32 -92c-12 -12 -29 -18 -47 -18z" />
    <glyph glyph-name="less" unicode="&#x3c;" horiz-adv-x="516" 
d="M461 613c0 -15 -13 -28 -39 -52c-48 -44 -137 -127 -189 -178c-23 -23 -43 -38 -66 -61c29 -27 84 -74 140 -122c66 -56 132 -112 146 -128c8 -9 12 -18 12 -27c0 -22 -23 -33 -45 -33c-13 0 -22 4 -33 9c-46 25 -211 152 -303 239c-29 27 -35 38 -35 55c0 11 6 25 23 44
c20 25 58 63 124 126c106 102 166 153 183 162c7 4 22 6 27 6v-1h2c26 0 53 -13 53 -39z" />
    <glyph glyph-name="equal" unicode="=" horiz-adv-x="510" 
d="M276 466h124c20 -8 42 -18 42 -42s-25 -42 -53 -42h-25c-37 1 -73 2 -110 3c-143 2 -165 2 -185 21c-7 7 -9 15 -9 23c0 18 18 31 44 36c12 2 50 3 128 3c15 0 29 -2 44 -2zM196 320h5c1 0 3 1 4 1c60 0 137 -1 166 -3c44 -3 54 -8 67 -20c5 -7 10 -14 10 -23
c0 -22 -24 -39 -54 -39h-6c-57 0 -144 4 -207 6c-80 3 -106 6 -115 30c-1 3 -2 6 -2 11c0 34 49 38 82 38c16 0 33 -1 50 -1z" />
    <glyph glyph-name="greater" unicode="&#x3e;" horiz-adv-x="515" 
d="M54 613c0 26 26 39 52 39c10 0 19 0 29 -5c17 -9 77 -60 183 -162c66 -63 104 -102 124 -126c17 -19 22 -33 22 -44c0 -16 -5 -28 -34 -55c-92 -87 -256 -214 -303 -239c-11 -5 -20 -9 -33 -9c-22 0 -44 11 -44 33c0 9 6 18 13 27c18 18 101 92 181 159
c34 29 84 74 102 91c-20 17 -39 34 -66 61c-55 54 -143 139 -194 186c-23 21 -32 30 -32 44z" />
    <glyph glyph-name="question" unicode="?" horiz-adv-x="644" 
d="M287 146c-42 0 -51 35 -51 84c0 51 12 77 41 115c17 23 56 64 92 92c31 27 81 69 99 90c12 14 18 25 18 37c0 7 -2 12 -5 17c-15 27 -72 49 -129 49c-18 0 -38 -3 -55 -8c-71 -22 -121 -69 -136 -131c-8 -31 -29 -43 -64 -43c-26 0 -51 12 -51 41c0 16 5 30 16 54
c23 51 63 90 122 122c49 29 93 45 166 45h5c25 0 52 -1 66 -3c69 -11 135 -41 167 -92c10 -16 10 -25 10 -49v-1c0 -27 -7 -47 -25 -74c-27 -41 -37 -49 -123 -104c-80 -54 -98 -96 -107 -131c-5 -16 -9 -41 -9 -60c0 -32 -15 -50 -47 -50zM236 33c0 33 21 51 51 51
c19 0 39 -9 47 -24c2 -7 4 -15 4 -28c0 -12 0 -21 -4 -28c-9 -16 -29 -28 -51 -28c-15 0 -34 9 -42 22c-5 8 -6 19 -6 30c0 2 1 3 1 5z" />
    <glyph glyph-name="at" unicode="@" horiz-adv-x="834" 
d="M456 437c-11 5 -24 6 -33 8c-17 0 -29 -4 -42 -12c-25 -15 -59 -56 -59 -98c0 -32 21 -60 44 -68c6 -2 9 -3 12 -3c6 0 10 1 18 7c33 24 43 75 55 123c1 14 2 29 5 43zM491 514c10 9 27 16 43 16c23 0 44 -14 44 -38c0 -3 0 -7 -1 -10l-8 -30c0 -2 1 -3 1 -5
c0 -9 -3 -18 -8 -25l-7 -29v-2c0 -41 10 -70 26 -101c4 -7 24 -25 33 -25h4c15 3 36 22 41 31c6 10 15 50 15 78c0 15 -1 29 -4 43c-18 96 -99 189 -193 210c-16 4 -31 5 -45 5c-66 0 -117 -29 -157 -62c-47 -39 -82 -93 -102 -153c-10 -30 -16 -63 -16 -94
c0 -29 5 -55 13 -78c33 -90 141 -173 262 -173c38 0 56 2 81 12c8 3 34 18 55 35l18 13c8 7 18 10 29 10c24 0 44 -18 44 -41c0 -12 -6 -24 -15 -32c-42 -36 -94 -57 -155 -68c-21 -4 -46 -6 -68 -6c-73 0 -142 21 -199 54c-68 39 -126 97 -152 169c-11 29 -17 62 -17 98
c0 38 6 76 18 112c23 71 67 139 130 191c53 44 133 90 240 90c101 0 171 -37 227 -89c53 -49 92 -113 105 -185c3 -18 5 -36 5 -54c0 -43 -6 -81 -23 -110c-11 -18 -27 -34 -46 -48c-24 -18 -59 -35 -103 -35c-51 0 -89 26 -114 55c-27 -29 -65 -56 -123 -56
c-50 0 -88 21 -112 46c-23 24 -39 54 -39 95c0 34 12 62 28 88c35 57 96 106 187 106c20 0 40 -3 58 -8z" />
    <glyph glyph-name="A" unicode="A" 
d="M554 -3h-2c-12 9 -24 7 -32 23c-6 11 -39 91 -54 127c-65 -6 -239 -12 -288 -19c-2 0 -5 -1 -6 -1h-1c-6 -16 -13 -35 -19 -51c-22 -60 -31 -84 -62 -84c-17 0 -41 5 -41 29c0 17 10 55 43 174c40 145 83 316 128 441c17 45 23 54 43 63c5 3 17 4 22 4c1 -2 1 -2 2 0
c21 0 43 -7 57 -12c17 -7 26 -19 39 -53c6 -17 27 -71 47 -115c77 -190 105 -271 135 -362c21 -65 34 -110 34 -128c0 -24 -19 -36 -45 -36zM431 219c-42 107 -87 226 -127 326c-28 -85 -79 -247 -104 -338c59 3 114 9 175 10z" />
    <glyph glyph-name="B" unicode="B" horiz-adv-x="673" 
d="M72 356c0 100 2 158 3 259c0 28 0 48 9 58c8 8 27 13 45 18c40 11 72 13 135 13h8c214 0 288 -83 322 -131c9 -12 20 -34 20 -57c0 -28 -3 -45 -14 -67c-20 -39 -66 -79 -130 -99c54 -20 103 -51 125 -97c6 -13 15 -49 15 -76c0 -36 -10 -63 -19 -77
c-45 -81 -137 -119 -269 -119c-50 0 -122 8 -172 18c-9 -6 -22 -13 -39 -13c-36 0 -39 26 -39 66c0 27 1 46 1 73c0 69 -1 162 -1 231zM465 573c-38 30 -64 52 -211 53c-28 0 -59 -5 -81 -9c-3 -32 -4 -62 -4 -93c0 -48 3 -77 4 -126c18 -3 69 -5 89 -5h2
c79 0 151 19 185 36c29 14 55 40 57 60v9c0 38 -18 56 -41 75zM345 64c91 0 160 46 160 106c0 39 -23 73 -52 94c-25 18 -90 44 -197 44c-19 0 -60 0 -82 -2c-1 -48 -3 -159 -3 -210c0 -9 1 -16 1 -22c43 -4 130 -10 173 -10z" />
    <glyph glyph-name="C" unicode="C" horiz-adv-x="737" 
d="M684 208c0 -10 -8 -21 -17 -35c-46 -66 -126 -125 -202 -148c-37 -11 -58 -15 -101 -15c-46 0 -65 3 -99 13c-85 26 -146 78 -182 151c-24 50 -33 83 -33 145c0 23 1 50 3 60c10 67 40 132 86 188c63 74 182 136 317 136c83 0 148 -33 189 -79c15 -16 26 -33 26 -48
c0 -28 -28 -45 -57 -45c-22 0 -38 12 -48 32c-5 12 -38 39 -59 48c-19 8 -37 11 -59 11c-24 0 -49 -4 -82 -14c-71 -21 -124 -63 -161 -122c-36 -55 -47 -95 -47 -163c0 -89 37 -162 99 -198c37 -22 76 -34 113 -34c25 0 49 3 72 14c43 19 80 45 133 92c18 17 34 30 41 34
c8 5 16 6 24 6c17 0 44 -6 44 -29z" />
    <glyph glyph-name="D" unicode="D" horiz-adv-x="738" 
d="M72 584v16c0 37 18 55 52 57c11 1 17 3 30 9c45 22 89 34 155 34c27 0 55 -1 73 -4c115 -21 211 -84 259 -170c26 -46 35 -81 35 -145c0 -108 -69 -204 -140 -259c-101 -76 -231 -118 -354 -123c-28 -1 -34 -1 -45 -6c-7 -3 -21 -7 -22 -7c-46 0 -46 38 -46 80
c0 33 -1 68 -1 92v107c0 36 -1 102 -1 142c0 80 5 115 5 177zM193 579l-9 -6c-1 0 -1 -1 -1 -2c-1 -99 -9 -432 -16 -499c5 1 9 3 14 4c113 16 231 57 299 121c57 52 86 129 86 193c0 40 -10 75 -31 107c-35 50 -95 90 -167 109c-20 6 -39 9 -58 9c-46 0 -86 -16 -117 -36z
" />
    <glyph glyph-name="E" unicode="E" horiz-adv-x="668" 
d="M191 611v-11c-2 -45 -4 -149 -4 -202c0 -10 1 -18 1 -25h2c11 0 17 -1 29 -1c56 0 164 4 220 4c43 0 73 -1 92 -2c27 -2 45 -9 45 -30c0 -12 -10 -29 -23 -36c-26 -14 -115 -18 -288 -21l-79 -3v-18c0 -57 -7 -134 -12 -185c53 -2 380 -6 398 -9c20 -4 29 -15 29 -27
c0 -10 -8 -21 -21 -28c-29 -14 -139 -21 -268 -21h-54c-61 1 -101 3 -127 5c-20 1 -28 3 -36 8c-18 13 -23 30 -23 52c-1 32 -1 63 -1 96c0 23 1 48 2 81c4 81 5 292 9 372c-8 6 -17 18 -17 31c0 36 53 49 87 51c36 2 90 9 127 12c13 1 46 1 84 1h10c74 0 123 -2 147 -4
c46 -5 67 -10 79 -21c6 -6 10 -13 10 -21c0 -7 -3 -12 -8 -18c-12 -14 -16 -14 -107 -14c-140 0 -208 -6 -296 -16h-7z" />
    <glyph glyph-name="F" unicode="F" horiz-adv-x="677" 
d="M70 91c0 16 -1 28 -1 45c0 92 3 278 8 411c1 19 1 35 1 48c0 31 -3 28 -3 56c0 11 4 19 13 26c15 13 40 19 75 21c15 1 45 2 82 2c129 0 327 -5 351 -9c19 -5 28 -16 28 -29c0 -12 -9 -26 -23 -32c-10 -5 -41 -8 -86 -10c-57 -3 -134 -5 -211 -5h-80c-13 0 -21 -1 -33 -1
h-2c-3 -44 -6 -151 -6 -207v-25c15 -2 50 -6 91 -6s111 4 152 4c34 0 55 0 64 -3c17 -5 27 -23 27 -37c0 -28 -30 -33 -56 -36c-81 -11 -190 -15 -204 -15l-1 1h-75v-12c0 -41 -3 -120 -5 -154c-3 -42 -9 -79 -17 -95s-28 -25 -46 -25h-1c-43 0 -41 35 -42 87z" />
    <glyph glyph-name="G" unicode="G" horiz-adv-x="792" 
d="M350 349c57 28 251 60 320 60c29 0 62 -13 62 -45c0 -7 -1 -15 -2 -21c-5 -47 -10 -76 -28 -116c-47 -105 -106 -167 -198 -206c-44 -18 -101 -32 -159 -32c-31 0 -62 3 -91 12c-100 31 -169 112 -196 215c-5 20 -8 53 -8 82c0 20 1 38 4 52c34 179 179 307 349 347
c29 7 46 9 89 9c32 0 43 -3 66 -10c33 -10 65 -28 88 -50c40 -37 54 -60 54 -94c0 -29 -29 -44 -53 -44c-29 0 -37 13 -48 34c-23 45 -46 61 -91 75c-6 2 -15 5 -26 5c-19 0 -41 -4 -62 -10c-58 -18 -143 -68 -189 -125c-57 -72 -72 -121 -72 -187c0 -88 38 -156 97 -195
c30 -20 63 -33 98 -33c31 0 63 8 99 25c82 37 130 104 168 218c-62 -7 -66 -4 -152 -20c-62 -12 -95 -17 -103 -17c-25 0 -43 13 -43 33c0 12 9 30 27 38z" />
    <glyph glyph-name="H" unicode="H" horiz-adv-x="680" 
d="M603 251c0 -125 -1 -162 -7 -192c-5 -26 -16 -47 -49 -47c-10 0 -21 3 -28 7c-16 9 -17 25 -20 82c-2 45 -4 117 -7 154c-45 -5 -211 -18 -271 -20c-21 -1 -37 -3 -47 -4c-4 -46 -3 -121 -6 -169c-2 -34 -14 -54 -49 -54c-8 4 -35 7 -42 24c-1 5 -3 14 -4 30
c-4 76 -6 147 -6 222c0 88 3 178 6 272c3 95 4 107 21 118c6 4 30 10 38 10c24 0 55 -11 56 -42v-9c0 -12 -1 -31 -2 -62c-4 -110 -7 -132 -11 -244c0 -2 1 -6 1 -8c81 3 272 17 312 23h1c1 0 2 0 3 1c-2 30 -2 49 -2 81v62c0 55 2 107 5 149c1 16 2 25 5 31
c8 19 28 30 53 30c32 0 54 -11 54 -43c0 -6 -1 -14 -2 -22c-2 -34 -4 -67 -4 -100c0 -88 2 -193 2 -280z" />
    <glyph glyph-name="I" unicode="I" horiz-adv-x="510" 
d="M304 101v-18h29c42 0 83 -2 97 -10c13 -7 21 -17 21 -29c0 -6 -2 -13 -7 -18c-17 -20 -43 -23 -160 -26c-48 -1 -115 -4 -161 -4c-32 0 -68 11 -68 40c0 13 9 25 27 33c12 6 20 7 63 9c20 1 48 2 61 3v21c-4 42 -9 247 -9 370c0 45 4 86 4 131v2h-56c-47 0 -62 3 -75 16
c-7 7 -9 14 -9 21c0 13 9 21 22 27c29 14 118 21 178 21c28 0 72 -2 105 -4c17 -1 47 -2 53 -4c15 -7 30 -23 30 -38c0 -24 -27 -40 -56 -40c-18 0 -56 2 -79 3c-2 -36 -4 -72 -4 -168c0 -37 2 -81 2 -118c0 -108 -4 -155 -8 -220z" />
    <glyph glyph-name="J" unicode="J" horiz-adv-x="575" 
d="M369 644c0 32 37 54 64 54c11 0 21 -3 32 -6c21 -6 25 -17 27 -45c6 -95 12 -281 12 -389c0 -79 -3 -116 -9 -141c-18 -64 -89 -111 -163 -111c-7 0 -12 0 -19 1c-77 9 -209 83 -255 142c-9 11 -15 22 -15 34c0 19 21 36 46 36c15 0 31 -6 46 -19
c45 -35 131 -93 184 -103c17 0 34 3 44 7c21 11 28 24 31 110c0 124 -25 387 -25 430z" />
    <glyph glyph-name="K" unicode="K" horiz-adv-x="629" 
d="M186 651c-1 -31 -3 -167 -3 -238v-25c38 34 113 104 144 133c28 26 77 86 110 126c15 19 28 35 61 35c23 0 55 -9 55 -38c0 -9 -4 -16 -9 -22c-14 -21 -137 -166 -192 -214c-38 -35 -88 -73 -128 -105c102 -77 166 -123 267 -188c22 -15 51 -34 69 -48
c8 -6 15 -13 15 -23c0 -21 -25 -32 -51 -32c-24 0 -41 8 -90 34c-77 39 -164 96 -253 165c-4 -42 -6 -86 -11 -128c-5 -43 -11 -77 -54 -77c-16 0 -34 6 -39 22c-2 9 -4 26 -4 42c-1 62 -3 130 -3 189c0 118 3 221 3 341v11c0 21 2 48 8 57c11 15 32 24 53 24
c26 0 51 -11 52 -41z" />
    <glyph glyph-name="L" unicode="L" horiz-adv-x="604" 
d="M78 659c0 4 1 7 3 9c8 15 33 23 55 23c26 0 38 -14 50 -26c-3 -137 -7 -276 -7 -415c0 -57 1 -115 2 -172l66 1c60 -2 111 -2 152 -2c59 0 96 -1 114 -5c20 -5 34 -20 34 -36c0 -12 -9 -24 -23 -31c-10 -6 -19 -7 -65 -7h-7c-47 0 -114 -1 -176 -1s-118 1 -144 4
c-42 5 -59 18 -60 63c-1 66 -4 129 -4 197c0 139 6 271 10 398z" />
    <glyph glyph-name="M" unicode="M" horiz-adv-x="865" 
d="M656 703c0 0 2 -3 3 -5c43 -2 47 -19 56 -60c32 -148 62 -365 79 -514c4 -35 9 -65 9 -100c0 -23 -19 -37 -43 -37c-18 0 -37 7 -43 22c-7 23 -34 166 -43 225l-43 265c-33 -76 -58 -149 -92 -223c-42 -92 -53 -108 -87 -167c-6 -10 -26 -13 -42 -13
c-37 0 -44 16 -84 119c-35 89 -70 165 -102 254c-22 -131 -52 -300 -72 -392c-11 -49 -11 -51 -17 -60c-8 -10 -23 -15 -39 -15c-32 0 -42 15 -42 48c0 52 21 199 49 364c9 52 21 131 28 177c12 82 16 85 38 97c10 4 18 7 29 7c20 0 43 -8 53 -21c0 -6 4 -8 6 -10
c14 -7 19 -21 37 -67c25 -63 90 -234 124 -331c40 87 69 172 109 260c71 157 78 160 103 170c4 2 10 2 16 2c6 -5 8 3 10 5z" />
    <glyph glyph-name="N" unicode="N" horiz-adv-x="772" 
d="M694 474c-4 -120 -5 -276 -9 -396v-5c0 -47 -18 -80 -57 -80c-10 0 -17 3 -26 7c-11 6 -15 10 -59 72c-112 159 -232 315 -349 471v-29c0 -91 -2 -251 -2 -342c0 -39 2 -60 2 -98v-8c0 -40 -8 -74 -51 -74c-69 0 -70 68 -70 147v7c0 86 4 200 4 287v26c0 69 1 139 8 192
c4 34 23 49 60 49c4 0 6 -1 10 -1c3 0 3 -1 5 -1c33 -2 40 -7 141 -135c141 -179 217 -288 274 -368v24l6 193c1 23 1 45 1 65c0 30 -1 58 -1 86c0 18 1 33 2 46c5 50 6 58 13 68c10 16 31 23 51 23c24 0 41 -14 52 -30c-3 -32 -7 -62 -7 -97c0 -29 2 -59 2 -87v-12z" />
    <glyph glyph-name="O" unicode="O" horiz-adv-x="844" 
d="M160 324c0 -9 0 -18 1 -26c9 -70 34 -118 89 -162c45 -35 102 -60 142 -61c17 0 39 -4 56 -4c16 0 32 3 55 14c79 33 144 122 162 217c3 17 5 40 5 63c0 22 -2 42 -5 55c-22 98 -110 201 -245 201c-2 2 -5 2 -7 0c-80 -8 -165 -61 -211 -140c-26 -48 -42 -96 -42 -157z
M377 707c16 2 33 4 52 4c182 0 297 -112 335 -226c12 -33 17 -73 17 -113c0 -47 -8 -94 -22 -136c-31 -89 -115 -187 -212 -222c-41 -15 -68 -18 -122 -18c-68 0 -115 9 -171 32c-94 39 -160 112 -188 193c-12 37 -16 61 -16 103c0 200 145 359 327 383z" />
    <glyph glyph-name="P" unicode="P" horiz-adv-x="631" 
d="M565 583c9 -19 14 -38 14 -60c0 -81 -72 -171 -132 -205c-73 -39 -170 -67 -253 -72c-6 0 -12 -2 -17 -2h-2v-50c-1 -83 -5 -88 -11 -141c-4 -30 -20 -47 -50 -47c-18 0 -31 5 -38 19c-5 12 -9 21 -10 68v53c0 19 0 41 1 66l6 411c5 10 13 24 21 28c18 11 99 33 139 38
c19 3 31 3 58 3h1c142 0 237 -39 273 -109zM179 307c48 9 110 31 156 49c81 36 133 115 133 159c0 25 -11 42 -31 56c-28 21 -87 38 -148 38c-34 0 -87 -13 -105 -21v-1c0 -11 1 -23 1 -34c0 -79 -5 -163 -6 -246z" />
    <glyph glyph-name="Q" unicode="Q" horiz-adv-x="867" 
d="M499 12c-31 -11 -74 -17 -119 -17c-125 0 -233 75 -293 184c-24 46 -38 93 -38 141c0 27 4 55 12 84c33 117 120 219 228 274c41 20 87 32 136 32c25 0 53 -2 70 -5c119 -24 230 -132 257 -267c3 -17 5 -47 5 -77c0 -25 -1 -49 -4 -63c-8 -45 -30 -94 -58 -130
c-5 -6 -6 -10 -8 -15c32 -20 70 -48 93 -65c18 -13 24 -19 29 -28c2 -4 5 -9 5 -15c0 -24 -25 -41 -56 -41c-23 0 -31 3 -55 21c-24 16 -51 43 -76 64c-28 -22 -73 -57 -128 -77zM495 105c18 11 45 30 59 41c-16 15 -36 32 -54 47c-62 53 -91 79 -98 99c-1 3 -2 6 -2 11
c0 23 24 34 39 34c8 0 18 -2 24 -8c18 -12 112 -85 151 -115c22 34 37 88 37 153c0 147 -89 251 -202 265c-6 1 -20 3 -22 3c0 0 -15 -2 -20 -3c-104 -11 -209 -113 -241 -236c-7 -23 -10 -46 -10 -67c0 -26 3 -50 11 -73c25 -82 86 -142 169 -166c16 -5 31 -8 50 -8
c36 0 85 8 109 23z" />
    <glyph glyph-name="R" unicode="R" horiz-adv-x="682" 
d="M187 310c8 -1 17 -2 29 -2c100 0 168 29 221 76c35 29 59 65 59 120c0 64 -51 121 -139 121c-52 0 -132 -22 -169 -37v-6c-2 -56 -2 -115 -2 -174v-62c0 -14 1 -23 1 -34v-2zM74 340c0 67 -1 126 -1 184c0 31 -1 55 -1 86c0 21 2 38 10 49c9 14 32 19 59 19h4
c21 0 27 0 48 6c53 16 99 28 164 28c33 0 68 -3 89 -8c66 -16 117 -56 144 -109c12 -24 18 -40 18 -69c0 -53 -8 -77 -30 -117c-48 -82 -143 -139 -266 -163c84 -64 176 -121 268 -181c21 -13 34 -24 34 -38c0 -25 -32 -34 -50 -34c-11 0 -20 3 -30 6
c-71 23 -225 122 -340 217c-4 3 -7 5 -11 8l-4 -112c-3 -62 -5 -115 -60 -115c-36 0 -46 18 -46 57c0 30 -1 69 -1 102c0 61 2 124 2 184z" />
    <glyph glyph-name="S" unicode="S" horiz-adv-x="661" 
d="M50 411c0 20 1 56 15 82c46 87 183 180 305 201c14 2 28 3 47 3h7c26 0 49 0 65 -6c61 -23 90 -49 92 -130c0 -13 1 -15 1 -28v-1c-10 -20 -29 -38 -53 -38c-40 0 -49 15 -50 58c-1 22 0 26 -22 37c-7 4 -10 7 -22 7h-17c-33 0 -49 -4 -87 -18c-52 -17 -104 -52 -141 -84
c-26 -25 -38 -65 -38 -76c0 -25 51 -26 82 -26h173c11 0 21 1 31 1c76 0 128 -45 150 -96c6 -16 13 -43 13 -68c0 -29 -2 -47 -8 -66c-18 -59 -57 -104 -116 -135c-52 -25 -109 -38 -162 -38c-59 0 -117 15 -165 45s-63 48 -89 106c-3 8 -4 13 -4 20v9c0 30 25 45 46 45
c41 0 45 -43 64 -69c24 -33 92 -54 151 -54c27 0 55 5 85 16c68 25 96 63 96 110c0 37 -15 68 -41 77c-16 5 -24 7 -71 7c-29 0 -93 -2 -122 -2c-107 0 -215 26 -215 111z" />
    <glyph glyph-name="T" unicode="T" horiz-adv-x="830" 
d="M388 59c-12 80 -17 213 -20 423l-2 136c-79 -1 -173 -3 -249 -3c-27 0 -30 1 -38 5c-13 6 -25 18 -25 32c0 24 23 38 46 42c12 2 58 4 140 5c105 1 216 2 302 2c83 0 146 -1 165 -2c47 -3 72 -10 72 -37c0 -15 -18 -27 -33 -31c-22 -5 -74 -8 -173 -10l-92 -1v-72
c0 -109 4 -270 10 -387c1 -19 3 -45 3 -62c0 -40 -3 -62 -11 -73c-13 -15 -24 -19 -47 -19c-33 0 -44 23 -48 52z" />
    <glyph glyph-name="U" unicode="U" horiz-adv-x="796" 
d="M724 360c0 -153 -39 -249 -137 -309c-48 -28 -120 -41 -179 -41c-91 0 -178 19 -243 81c-70 66 -99 151 -99 283v244c0 42 1 48 7 55c10 13 32 21 52 21c18 0 33 -6 44 -19l7 -11v-146c0 -64 -1 -91 -1 -152c0 -92 27 -160 63 -201c40 -45 104 -70 175 -70
c138 0 201 114 201 265c0 33 2 71 2 104c0 16 -1 31 -2 42c-4 41 -5 75 -5 104v28c0 41 12 59 51 59c38 0 62 -26 64 -60c1 -28 2 -52 2 -75c0 -32 -1 -61 -1 -94c0 -36 -1 -71 -1 -108z" />
    <glyph glyph-name="V" unicode="V" horiz-adv-x="662" 
d="M226 138c-38 90 -140 404 -164 486c-7 23 -9 31 -9 39c0 28 23 33 47 33c12 0 23 -5 32 -9c15 -9 20 -17 31 -52c34 -112 127 -372 160 -465c2 6 3 11 5 17c121 319 178 465 192 487c9 13 22 20 40 20c28 0 47 -12 47 -39c0 -38 -28 -106 -42 -148
c-22 -68 -47 -137 -73 -207c-36 -91 -47 -118 -75 -184c-8 -19 -21 -49 -24 -61c-8 -33 -21 -47 -62 -47c-49 0 -59 22 -105 130z" />
    <glyph glyph-name="W" unicode="W" horiz-adv-x="1029" 
d="M108 692c49 0 56 -24 67 -66c17 -66 97 -280 125 -365l18 -55c43 111 117 320 155 384c8 14 25 18 41 18c36 0 52 -17 67 -45c10 -20 94 -232 140 -355c42 131 150 420 155 432c12 25 25 42 54 42s44 -13 44 -41c0 -7 -1 -14 -2 -20c-16 -91 -76 -256 -119 -377
c-25 -67 -37 -103 -48 -140c-18 -60 -23 -77 -40 -86c-10 -6 -22 -9 -35 -9c-14 0 -29 3 -38 10c-25 18 -20 34 -32 59c-10 22 -31 76 -47 118c-29 74 -58 154 -90 224c-40 -105 -133 -325 -159 -387c-10 -16 -29 -27 -53 -27c-37 0 -49 18 -58 47l-198 587c-2 4 -4 8 -4 14
c0 25 33 38 57 38z" />
    <glyph glyph-name="X" unicode="X" horiz-adv-x="682" 
d="M111 702c20 0 33 -11 50 -32c19 -22 117 -153 151 -202c6 -9 16 -23 23 -32c27 32 116 144 163 218c22 34 28 37 44 45c10 5 26 7 30 7c25 0 53 -13 53 -40c0 -15 -7 -25 -19 -45c-33 -53 -147 -193 -206 -267c34 -46 82 -111 109 -149c30 -41 52 -71 77 -101
c25 -28 33 -38 33 -51c0 -35 -29 -52 -61 -52c-10 0 -21 2 -30 7c-10 7 -33 33 -65 74c-48 59 -88 122 -134 186c-35 -46 -77 -101 -109 -145c-47 -67 -82 -114 -105 -121c-5 -1 -10 -2 -17 -2c-20 0 -40 13 -40 37c0 9 3 14 7 23c10 20 32 63 56 97c50 67 87 124 140 194
c-57 78 -121 170 -182 267c-11 17 -18 32 -18 44c0 26 27 40 50 40z" />
    <glyph glyph-name="Y" unicode="Y" horiz-adv-x="680" 
d="M117 698c16 0 29 -5 38 -15c10 -11 43 -67 54 -87c32 -58 72 -118 112 -194c79 104 95 126 159 212l24 33c18 27 32 59 75 59c21 0 50 -10 50 -36c0 -12 -6 -20 -18 -37c-11 -15 -17 -26 -28 -44c-72 -118 -141 -217 -236 -338c-89 -113 -141 -176 -180 -215
c-30 -30 -49 -44 -63 -47c-4 -1 -5 -1 -8 -1h-2c-15 0 -39 8 -39 30c0 18 8 34 33 74c29 49 105 140 138 190c5 6 8 14 13 20l-3 9c-59 105 -113 206 -167 322c-4 9 -9 18 -9 26c0 28 35 39 57 39z" />
    <glyph glyph-name="Z" unicode="Z" horiz-adv-x="802" 
d="M291 92c100 0 380 -2 410 -6c28 -4 44 -13 44 -34c0 -16 -17 -28 -35 -32c-38 -8 -116 -13 -241 -13c-118 0 -337 4 -361 6c-23 2 -44 18 -44 39c0 10 5 19 14 28c135 137 283 312 416 457c24 26 65 61 84 84c-60 -1 -236 -5 -337 -10c-59 -3 -92 -4 -115 -4
c-26 0 -38 1 -46 6c-15 9 -23 21 -23 34c0 18 15 32 35 37c29 8 348 17 475 17c12 3 22 5 34 5s23 -2 35 -5c51 0 62 -1 72 -7c15 -7 25 -20 25 -34c0 -7 -3 -14 -8 -19c-10 -14 -92 -107 -127 -145c-44 -47 -190 -204 -257 -280c-61 -70 -86 -98 -113 -124h63z" />
    <glyph glyph-name="bracketleft" unicode="[" horiz-adv-x="499" 
d="M448 669c0 -14 -9 -29 -25 -36c-19 -10 -45 -11 -115 -11h-30l-79 2c-1 -8 -3 -15 -4 -23c-15 -104 -15 -336 -21 -473c-1 -22 -1 -38 -1 -43v-12h131c106 0 127 -1 139 -26c1 -2 2 -4 2 -6l-1 -1v-3c0 -11 -7 -22 -20 -29s-46 -12 -92 -16c-17 -1 -71 -2 -122 -2
s-94 1 -103 2c-17 5 -27 15 -34 29c-7 12 -7 33 -7 66c0 92 5 234 9 340c4 121 6 138 20 236c5 39 26 40 163 42c41 1 108 3 138 3c27 0 52 -14 52 -39z" />
    <glyph glyph-name="backslash" unicode="\" horiz-adv-x="398" 
d="M352 33c0 -28 -20 -45 -48 -45c-24 0 -33 10 -43 31c-43 98 -86 239 -128 360l-83 249c-3 8 -4 14 -4 21v4c5 21 31 33 55 33c20 0 40 -7 50 -21c11 -17 142 -409 167 -493c20 -68 34 -122 34 -139z" />
    <glyph glyph-name="bracketright" unicode="]" horiz-adv-x="501" 
d="M51 28c0 13 8 27 24 34c20 10 45 12 115 12h30l79 -1c1 8 3 15 4 23c12 81 14 276 18 397c2 54 4 108 4 119c0 6 1 8 2 12h-133c-106 0 -126 1 -139 26c-1 3 -2 5 -2 9v1c0 11 8 23 21 30s47 11 92 15c17 1 67 2 116 2h80c36 0 49 -4 63 -31c7 -12 9 -33 9 -66
c0 -92 -7 -235 -11 -340c-4 -121 -6 -138 -20 -236c-5 -39 -26 -41 -163 -43c-42 -1 -107 -2 -137 -2h-1c-27 0 -51 14 -51 39z" />
    <glyph glyph-name="asciicircum" unicode="^" horiz-adv-x="455" 
d="M399 516c0 -26 -31 -34 -52 -34c-33 0 -37 13 -54 39l-61 90c-23 -33 -75 -111 -87 -123s-32 -16 -49 -16c-13 0 -39 3 -39 28c0 16 11 33 44 80c65 95 89 126 118 132c5 1 11 2 17 2h5c24 0 34 -7 47 -25c14 -18 82 -122 97 -146c4 -9 14 -14 14 -27z" />
    <glyph glyph-name="underscore" unicode="_" horiz-adv-x="665" 
d="M159 -8c-52 0 -75 4 -88 17c-7 7 -7 15 -7 23c0 13 7 24 21 31c17 9 21 9 124 13c115 4 167 9 309 9c50 0 59 -4 72 -18c7 -7 8 -14 8 -22c0 -9 -5 -20 -14 -27c-15 -12 -27 -14 -66 -15c-97 -2 -270 -11 -359 -11z" />
    <glyph glyph-name="grave" unicode="`" horiz-adv-x="316" 
d="M58 769c0 25 33 37 55 37c18 0 33 -10 44 -19c9 -8 27 -20 35 -28c42 -33 51 -44 57 -53c2 -4 4 -9 4 -16c0 -23 -28 -26 -41 -26c-8 0 -17 2 -24 4c-25 7 -44 19 -73 39c-36 25 -51 39 -56 53c-1 2 -2 5 -2 6s1 1 1 3z" />
    <glyph glyph-name="a" unicode="a" 
d="M554 -3h-2c-12 9 -24 7 -32 23c-6 11 -39 91 -54 127c-65 -6 -239 -12 -288 -19c-2 0 -5 -1 -6 -1h-1c-6 -16 -13 -35 -19 -51c-22 -60 -31 -84 -62 -84c-17 0 -41 5 -41 29c0 17 10 55 43 174c40 145 83 316 128 441c17 45 23 54 43 63c5 3 17 4 22 4c1 -2 1 -2 2 0
c21 0 43 -7 57 -12c17 -7 26 -19 39 -53c6 -17 27 -71 47 -115c77 -190 105 -271 135 -362c21 -65 34 -110 34 -128c0 -24 -19 -36 -45 -36zM431 219c-42 107 -87 226 -127 326c-28 -85 -79 -247 -104 -338c59 3 114 9 175 10z" />
    <glyph glyph-name="b" unicode="b" horiz-adv-x="673" 
d="M72 356c0 100 2 158 3 259c0 28 0 48 9 58c8 8 27 13 45 18c40 11 72 13 135 13h8c214 0 288 -83 322 -131c9 -12 20 -34 20 -57c0 -28 -3 -45 -14 -67c-20 -39 -66 -79 -130 -99c54 -20 103 -51 125 -97c6 -13 15 -49 15 -76c0 -36 -10 -63 -19 -77
c-45 -81 -137 -119 -269 -119c-50 0 -122 8 -172 18c-9 -6 -22 -13 -39 -13c-36 0 -39 26 -39 66c0 27 1 46 1 73c0 69 -1 162 -1 231zM465 573c-38 30 -64 52 -211 53c-28 0 -59 -5 -81 -9c-3 -32 -4 -62 -4 -93c0 -48 3 -77 4 -126c18 -3 69 -5 89 -5h2
c79 0 151 19 185 36c29 14 55 40 57 60v9c0 38 -18 56 -41 75zM345 64c91 0 160 46 160 106c0 39 -23 73 -52 94c-25 18 -90 44 -197 44c-19 0 -60 0 -82 -2c-1 -48 -3 -159 -3 -210c0 -9 1 -16 1 -22c43 -4 130 -10 173 -10z" />
    <glyph glyph-name="c" unicode="c" horiz-adv-x="737" 
d="M684 208c0 -10 -8 -21 -17 -35c-46 -66 -126 -125 -202 -148c-37 -11 -58 -15 -101 -15c-46 0 -65 3 -99 13c-85 26 -146 78 -182 151c-24 50 -33 83 -33 145c0 23 1 50 3 60c10 67 40 132 86 188c63 74 182 136 317 136c83 0 148 -33 189 -79c15 -16 26 -33 26 -48
c0 -28 -28 -45 -57 -45c-22 0 -38 12 -48 32c-5 12 -38 39 -59 48c-19 8 -37 11 -59 11c-24 0 -49 -4 -82 -14c-71 -21 -124 -63 -161 -122c-36 -55 -47 -95 -47 -163c0 -89 37 -162 99 -198c37 -22 76 -34 113 -34c25 0 49 3 72 14c43 19 80 45 133 92c18 17 34 30 41 34
c8 5 16 6 24 6c17 0 44 -6 44 -29z" />
    <glyph glyph-name="d" unicode="d" horiz-adv-x="738" 
d="M72 584v16c0 37 18 55 52 57c11 1 17 3 30 9c45 22 89 34 155 34c27 0 55 -1 73 -4c115 -21 211 -84 259 -170c26 -46 35 -81 35 -145c0 -108 -69 -204 -140 -259c-101 -76 -231 -118 -354 -123c-28 -1 -34 -1 -45 -6c-7 -3 -21 -7 -22 -7c-46 0 -46 38 -46 80
c0 33 -1 68 -1 92v107c0 36 -1 102 -1 142c0 80 5 115 5 177zM193 579l-9 -6c-1 0 -1 -1 -1 -2c-1 -99 -9 -432 -16 -499c5 1 9 3 14 4c113 16 231 57 299 121c57 52 86 129 86 193c0 40 -10 75 -31 107c-35 50 -95 90 -167 109c-20 6 -39 9 -58 9c-46 0 -86 -16 -117 -36z
" />
    <glyph glyph-name="e" unicode="e" horiz-adv-x="668" 
d="M191 611v-11c-2 -45 -4 -149 -4 -202c0 -10 1 -18 1 -25h2c11 0 17 -1 29 -1c56 0 164 4 220 4c43 0 73 -1 92 -2c27 -2 45 -9 45 -30c0 -12 -10 -29 -23 -36c-26 -14 -115 -18 -288 -21l-79 -3v-18c0 -57 -7 -134 -12 -185c53 -2 380 -6 398 -9c20 -4 29 -15 29 -27
c0 -10 -8 -21 -21 -28c-29 -14 -139 -21 -268 -21h-54c-61 1 -101 3 -127 5c-20 1 -28 3 -36 8c-18 13 -23 30 -23 52c-1 32 -1 63 -1 96c0 23 1 48 2 81c4 81 5 292 9 372c-8 6 -17 18 -17 31c0 36 53 49 87 51c36 2 90 9 127 12c13 1 46 1 84 1h10c74 0 123 -2 147 -4
c46 -5 67 -10 79 -21c6 -6 10 -13 10 -21c0 -7 -3 -12 -8 -18c-12 -14 -16 -14 -107 -14c-140 0 -208 -6 -296 -16h-7z" />
    <glyph glyph-name="f" unicode="f" horiz-adv-x="677" 
d="M70 91c0 16 -1 28 -1 45c0 92 3 278 8 411c1 19 1 35 1 48c0 31 -3 28 -3 56c0 11 4 19 13 26c15 13 40 19 75 21c15 1 45 2 82 2c129 0 327 -5 351 -9c19 -5 28 -16 28 -29c0 -12 -9 -26 -23 -32c-10 -5 -41 -8 -86 -10c-57 -3 -134 -5 -211 -5h-80c-13 0 -21 -1 -33 -1
h-2c-3 -44 -6 -151 -6 -207v-25c15 -2 50 -6 91 -6s111 4 152 4c34 0 55 0 64 -3c17 -5 27 -23 27 -37c0 -28 -30 -33 -56 -36c-81 -11 -190 -15 -204 -15l-1 1h-75v-12c0 -41 -3 -120 -5 -154c-3 -42 -9 -79 -17 -95s-28 -25 -46 -25h-1c-43 0 -41 35 -42 87z" />
    <glyph glyph-name="g" unicode="g" horiz-adv-x="792" 
d="M350 349c57 28 251 60 320 60c29 0 62 -13 62 -45c0 -7 -1 -15 -2 -21c-5 -47 -10 -76 -28 -116c-47 -105 -106 -167 -198 -206c-44 -18 -101 -32 -159 -32c-31 0 -62 3 -91 12c-100 31 -169 112 -196 215c-5 20 -8 53 -8 82c0 20 1 38 4 52c34 179 179 307 349 347
c28 7 37 7 78 7h17c32 0 37 -1 60 -8c33 -10 65 -28 88 -50c40 -37 54 -60 54 -94c0 -29 -29 -44 -53 -44c-29 0 -37 13 -48 34c-23 45 -46 61 -91 75c-6 2 -15 5 -26 5c-19 0 -41 -4 -62 -10c-58 -18 -143 -68 -189 -125c-57 -72 -72 -121 -72 -187c0 -88 38 -156 97 -195
c30 -20 63 -33 98 -33c31 0 63 8 99 25c82 37 130 104 168 218c-62 -7 -66 -4 -152 -20c-62 -12 -95 -17 -103 -17c-25 0 -43 13 -43 33c0 12 9 30 27 38z" />
    <glyph glyph-name="h" unicode="h" horiz-adv-x="680" 
d="M603 251c0 -125 -1 -162 -7 -192c-5 -26 -16 -47 -49 -47c-10 0 -21 3 -28 7c-16 9 -17 25 -20 82c-2 45 -4 117 -7 154c-45 -5 -211 -18 -271 -20c-21 -1 -37 -3 -47 -4c-4 -46 -3 -121 -6 -169c-2 -34 -14 -54 -49 -54c-8 4 -35 7 -42 24c-1 5 -3 14 -4 30
c-4 76 -6 147 -6 222c0 88 3 178 6 272c3 95 4 107 21 118c6 4 30 10 38 10c24 0 55 -11 56 -42v-9c0 -12 -1 -31 -2 -62c-4 -110 -7 -132 -11 -244c0 -2 1 -6 1 -8c81 3 272 17 312 23h1c1 0 2 0 3 1c-2 30 -2 49 -2 81v62c0 55 2 107 5 149c1 16 2 25 5 31
c8 19 28 30 53 30c32 0 54 -11 54 -43c0 -6 -1 -14 -2 -22c-2 -34 -4 -67 -4 -100c0 -88 2 -193 2 -280z" />
    <glyph glyph-name="i" unicode="i" horiz-adv-x="510" 
d="M304 101v-18h29c42 0 83 -2 97 -10c13 -7 21 -17 21 -29c0 -6 -2 -13 -7 -18c-17 -20 -43 -23 -160 -26c-48 -1 -115 -4 -161 -4c-32 0 -68 11 -68 40c0 13 9 25 27 33c12 6 20 7 63 9c20 1 48 2 61 3v21c-4 42 -9 247 -9 370c0 45 4 86 4 131v2h-56c-47 0 -62 3 -75 16
c-7 7 -9 14 -9 21c0 13 9 21 22 27c29 14 118 21 178 21c28 0 72 -2 105 -4c17 -1 47 -2 53 -4c15 -7 30 -23 30 -38c0 -24 -27 -40 -56 -40c-18 0 -56 2 -79 3c-2 -36 -4 -72 -4 -168c0 -37 2 -81 2 -118c0 -108 -4 -155 -8 -220z" />
    <glyph glyph-name="j" unicode="j" horiz-adv-x="575" 
d="M369 644c0 32 37 54 64 54c11 0 21 -3 32 -6c21 -6 25 -17 27 -45c6 -95 12 -281 12 -389c0 -79 -3 -116 -9 -141c-18 -64 -89 -111 -163 -111c-7 0 -12 0 -19 1c-77 9 -209 83 -255 142c-9 11 -15 22 -15 34c0 19 21 36 46 36c15 0 31 -6 46 -19
c45 -35 131 -93 184 -103c17 0 34 3 44 7c21 11 28 24 31 110c0 124 -25 387 -25 430z" />
    <glyph glyph-name="k" unicode="k" horiz-adv-x="629" 
d="M186 651c-1 -31 -3 -167 -3 -238v-25c38 34 113 104 144 133c28 26 77 86 110 126c15 19 28 35 61 35c23 0 55 -9 55 -38c0 -9 -4 -16 -9 -22c-14 -21 -137 -166 -192 -214c-38 -35 -88 -73 -128 -105c102 -77 166 -123 267 -188c22 -15 51 -34 69 -48
c8 -6 15 -13 15 -23c0 -21 -25 -32 -51 -32c-24 0 -41 8 -90 34c-77 39 -164 96 -253 165c-4 -42 -6 -86 -11 -128c-5 -43 -11 -77 -54 -77c-16 0 -34 6 -39 22c-2 9 -4 26 -4 42c-1 62 -3 130 -3 189c0 118 3 221 3 341v11c0 21 2 48 8 57c11 15 32 24 53 24
c26 0 51 -11 52 -41z" />
    <glyph glyph-name="l" unicode="l" horiz-adv-x="604" 
d="M78 659c0 4 1 7 3 9c8 15 33 23 55 23c26 0 38 -14 50 -26c-3 -137 -7 -276 -7 -415c0 -57 1 -115 2 -172l66 1c60 -2 111 -2 152 -2c59 0 96 -1 114 -5c20 -5 34 -20 34 -36c0 -12 -9 -24 -23 -31c-10 -6 -19 -7 -65 -7h-7c-47 0 -114 -1 -176 -1s-118 1 -144 4
c-42 5 -59 18 -60 63c-1 66 -4 129 -4 197c0 139 6 271 10 398z" />
    <glyph glyph-name="m" unicode="m" horiz-adv-x="865" 
d="M656 703c0 0 2 -3 3 -5c43 -2 47 -19 56 -60c32 -148 62 -365 79 -514c4 -35 9 -65 9 -100c0 -23 -19 -37 -43 -37c-18 0 -37 7 -43 22c-7 23 -34 166 -43 225l-43 265c-33 -76 -58 -149 -92 -223c-42 -92 -53 -108 -87 -167c-6 -10 -26 -13 -42 -13
c-37 0 -44 16 -84 119c-35 89 -70 165 -102 254c-22 -131 -52 -300 -72 -392c-11 -49 -11 -51 -17 -60c-8 -10 -23 -15 -39 -15c-32 0 -42 15 -42 48c0 52 21 199 49 364c9 52 21 131 28 177c12 82 16 85 38 97c10 4 18 7 29 7c20 0 43 -8 53 -21c0 -6 4 -8 6 -10
c14 -7 19 -21 37 -67c25 -63 90 -234 124 -331c40 87 69 172 109 260c71 157 78 160 103 170c4 2 10 2 16 2c6 -5 8 3 10 5z" />
    <glyph glyph-name="n" unicode="n" horiz-adv-x="763" 
d="M688 474c-4 -120 -5 -276 -9 -396v-5c0 -47 -18 -80 -57 -80c-10 0 -17 3 -26 7c-11 6 -15 10 -59 72c-112 159 -232 315 -349 471v-29c0 -91 -2 -251 -2 -342c0 -39 2 -60 2 -98v-8c0 -40 -8 -74 -51 -74c-69 0 -70 68 -70 147v7c0 86 4 200 4 287v26c0 69 1 139 8 192
c4 34 23 49 60 49c4 0 6 -1 10 -1c3 0 3 -1 5 -1c33 -2 40 -7 141 -135c141 -179 217 -288 274 -368v24l6 193c1 23 1 45 1 65c0 30 -1 58 -1 86c0 18 1 33 2 46c5 50 6 58 13 68c10 16 31 23 51 23c24 0 41 -14 52 -30c-3 -32 -7 -62 -7 -97c0 -29 2 -59 2 -87v-12z" />
    <glyph glyph-name="o" unicode="o" horiz-adv-x="844" 
d="M160 324c0 -9 0 -18 1 -26c9 -70 34 -118 89 -162c45 -35 102 -60 142 -61c17 0 39 -4 56 -4c16 0 32 3 55 14c79 33 144 122 162 217c3 17 5 40 5 63c0 22 -2 42 -5 55c-22 98 -110 201 -245 201c-2 2 -5 2 -7 0c-80 -8 -165 -61 -211 -140c-26 -48 -42 -96 -42 -157z
M377 707c16 2 33 4 52 4c182 0 297 -112 335 -226c12 -33 17 -73 17 -113c0 -47 -8 -94 -22 -136c-31 -89 -115 -187 -212 -222c-41 -15 -68 -18 -122 -18c-68 0 -115 9 -171 32c-94 39 -160 112 -188 193c-12 37 -16 61 -16 103c0 200 145 359 327 383z" />
    <glyph glyph-name="p" unicode="p" horiz-adv-x="631" 
d="M565 583c9 -19 14 -38 14 -60c0 -81 -72 -171 -132 -205c-73 -39 -170 -67 -253 -72c-6 0 -12 -2 -17 -2h-2v-50c-1 -83 -5 -88 -11 -141c-4 -30 -20 -47 -50 -47c-18 0 -31 5 -38 19c-5 12 -9 21 -10 68v53c0 19 0 41 1 66l6 411c5 10 13 24 21 28c18 11 99 33 139 38
c19 3 31 3 58 3h1c142 0 237 -39 273 -109zM179 307c48 9 110 31 156 49c81 36 133 115 133 159c0 25 -11 42 -31 56c-28 21 -87 38 -148 38c-34 0 -87 -13 -105 -21v-1c0 -11 1 -23 1 -34c0 -79 -5 -163 -6 -246z" />
    <glyph glyph-name="q" unicode="q" horiz-adv-x="867" 
d="M499 12c-31 -11 -74 -17 -119 -17c-125 0 -233 75 -293 184c-24 46 -38 93 -38 141c0 27 4 55 12 84c33 117 120 219 228 274c41 20 87 32 136 32c25 0 53 -2 70 -5c119 -24 230 -132 257 -267c3 -17 5 -47 5 -77c0 -25 -1 -49 -4 -63c-8 -45 -30 -94 -58 -130
c-5 -6 -6 -10 -8 -15c32 -20 70 -48 93 -65c18 -13 24 -19 29 -28c2 -4 5 -9 5 -15c0 -24 -25 -41 -56 -41c-23 0 -31 3 -55 21c-24 16 -51 43 -76 64c-28 -22 -73 -57 -128 -77zM495 105c18 11 45 30 59 41c-16 15 -36 32 -54 47c-62 53 -91 79 -98 99c-1 3 -2 6 -2 11
c0 23 24 34 39 34c8 0 18 -2 24 -8c18 -12 112 -85 151 -115c22 34 37 88 37 153c0 147 -89 251 -202 265c-6 1 -20 3 -22 3c0 0 -15 -2 -20 -3c-104 -11 -209 -113 -241 -236c-7 -23 -10 -46 -10 -67c0 -26 3 -50 11 -73c25 -82 86 -142 169 -166c16 -5 31 -8 50 -8
c36 0 85 8 109 23z" />
    <glyph glyph-name="r" unicode="r" horiz-adv-x="682" 
d="M187 310c8 -1 17 -2 29 -2c100 0 168 29 221 76c35 29 59 65 59 120c0 64 -51 121 -139 121c-52 0 -132 -22 -169 -37v-6c-2 -56 -2 -115 -2 -174v-62c0 -14 1 -23 1 -34v-2zM74 340c0 67 -1 126 -1 184c0 31 -1 55 -1 86c0 21 2 38 10 49c9 14 32 19 59 19h4
c21 0 27 0 48 6c53 16 99 28 164 28c33 0 68 -3 89 -8c66 -16 117 -56 144 -109c12 -24 18 -40 18 -69c0 -53 -8 -77 -30 -117c-48 -82 -143 -139 -266 -163c84 -64 176 -121 268 -181c21 -13 34 -24 34 -38c0 -25 -32 -34 -50 -34c-11 0 -20 3 -30 6
c-71 23 -225 122 -340 217c-4 3 -7 5 -11 8l-4 -112c-3 -62 -5 -115 -60 -115c-36 0 -46 18 -46 57c0 30 -1 69 -1 102c0 61 2 124 2 184z" />
    <glyph glyph-name="s" unicode="s" horiz-adv-x="661" 
d="M50 411c0 20 1 56 15 82c46 87 183 180 305 201c14 2 28 3 47 3h7c26 0 49 0 65 -6c61 -23 90 -49 92 -130c0 -13 1 -15 1 -28v-1c-10 -20 -29 -38 -53 -38c-40 0 -49 15 -50 58c-1 22 0 26 -22 37c-7 4 -10 7 -22 7h-17c-33 0 -49 -4 -87 -18c-52 -17 -104 -52 -141 -84
c-26 -25 -38 -65 -38 -76c0 -25 51 -26 82 -26h173c11 0 21 1 31 1c76 0 128 -45 150 -96c6 -16 13 -43 13 -68c0 -29 -2 -47 -8 -66c-18 -59 -57 -104 -116 -135c-52 -25 -109 -38 -162 -38c-59 0 -117 15 -165 45s-63 48 -89 106c-3 8 -4 13 -4 20v9c0 30 25 45 46 45
c41 0 45 -43 64 -69c24 -33 92 -54 151 -54c27 0 55 5 85 16c68 25 96 63 96 110c0 37 -15 68 -41 77c-16 5 -24 7 -71 7c-29 0 -93 -2 -122 -2c-107 0 -215 26 -215 111z" />
    <glyph glyph-name="t" unicode="t" horiz-adv-x="830" 
d="M388 59c-12 80 -17 213 -20 423l-2 136c-79 -1 -173 -3 -249 -3c-27 0 -30 1 -38 5c-13 6 -25 18 -25 32c0 24 23 38 46 42c12 2 58 4 140 5c105 1 216 2 302 2c83 0 146 -1 165 -2c47 -3 72 -10 72 -37c0 -15 -18 -27 -33 -31c-22 -5 -74 -8 -173 -10l-92 -1v-72
c0 -109 4 -270 10 -387c1 -19 3 -45 3 -62c0 -40 -3 -62 -11 -73c-13 -15 -24 -19 -47 -19c-33 0 -44 23 -48 52z" />
    <glyph glyph-name="u" unicode="u" horiz-adv-x="796" 
d="M724 360c0 -153 -39 -249 -137 -309c-48 -28 -120 -41 -179 -41c-91 0 -178 19 -243 81c-70 66 -99 151 -99 283v244c0 42 1 48 7 55c10 13 32 21 52 21c18 0 33 -6 44 -19l7 -11v-146c0 -64 -1 -91 -1 -152c0 -92 27 -160 63 -201c40 -45 104 -70 175 -70
c138 0 201 114 201 265c0 33 2 71 2 104c0 16 -1 31 -2 42c-4 41 -5 75 -5 104v28c0 41 12 59 51 59c38 0 62 -26 64 -60c1 -28 2 -52 2 -75c0 -32 -1 -61 -1 -94c0 -36 -1 -71 -1 -108z" />
    <glyph glyph-name="v" unicode="v" horiz-adv-x="662" 
d="M226 138c-38 90 -140 404 -164 486c-7 23 -9 31 -9 39c0 28 23 33 47 33c12 0 23 -5 32 -9c15 -9 20 -17 31 -52c34 -112 127 -372 160 -465c2 6 3 11 5 17c121 319 178 465 192 487c9 13 22 20 40 20c28 0 47 -12 47 -39c0 -38 -28 -106 -42 -148
c-22 -68 -47 -137 -73 -207c-36 -91 -47 -118 -75 -184c-8 -19 -21 -49 -24 -61c-8 -33 -21 -47 -62 -47c-49 0 -59 22 -105 130z" />
    <glyph glyph-name="w" unicode="w" horiz-adv-x="1029" 
d="M108 692c49 0 56 -24 67 -66c17 -66 97 -280 125 -365l18 -55c43 111 117 320 155 384c8 14 25 18 41 18c36 0 52 -17 67 -45c10 -20 94 -232 140 -355c42 131 150 420 155 432c12 25 25 42 54 42s44 -13 44 -41c0 -7 -1 -14 -2 -20c-16 -91 -76 -256 -119 -377
c-25 -67 -37 -103 -48 -140c-18 -60 -23 -77 -40 -86c-10 -6 -22 -9 -35 -9c-14 0 -29 3 -38 10c-25 18 -20 34 -32 59c-10 22 -31 76 -47 118c-29 74 -58 154 -90 224c-40 -105 -133 -325 -159 -387c-10 -16 -29 -27 -53 -27c-37 0 -49 18 -58 47l-198 587c-2 4 -4 8 -4 14
c0 25 33 38 57 38z" />
    <glyph glyph-name="x" unicode="x" horiz-adv-x="682" 
d="M111 702c20 0 33 -11 50 -32c19 -22 117 -153 151 -202c6 -9 16 -23 23 -32c27 32 116 144 163 218c22 34 28 37 44 45c10 5 26 7 30 7c25 0 53 -13 53 -40c0 -15 -7 -25 -19 -45c-33 -53 -147 -193 -206 -267c34 -46 82 -111 109 -149c30 -41 52 -71 77 -101
c25 -28 33 -38 33 -51c0 -35 -29 -52 -61 -52c-10 0 -21 2 -30 7c-10 7 -33 33 -65 74c-48 59 -88 122 -134 186c-35 -46 -77 -101 -109 -145c-47 -67 -82 -114 -105 -121c-5 -1 -10 -2 -17 -2c-20 0 -40 13 -40 37c0 9 3 14 7 23c10 20 32 63 56 97c50 67 87 124 140 194
c-57 78 -121 170 -182 267c-11 17 -18 32 -18 44c0 26 27 40 50 40z" />
    <glyph glyph-name="y" unicode="y" horiz-adv-x="680" 
d="M117 698c16 0 29 -5 38 -15c10 -11 43 -67 54 -87c32 -58 72 -118 112 -194c79 104 95 126 159 212l24 33c18 27 32 59 75 59c21 0 50 -10 50 -36c0 -12 -6 -20 -18 -37c-11 -15 -17 -26 -28 -44c-72 -118 -141 -217 -236 -338c-89 -113 -141 -176 -180 -215
c-30 -30 -49 -44 -63 -47c-4 -1 -5 -1 -8 -1h-2c-15 0 -39 8 -39 30c0 18 8 34 33 74c29 49 105 140 138 190c5 6 8 14 13 20l-3 9c-59 105 -113 206 -167 322c-4 9 -9 18 -9 26c0 28 35 39 57 39z" />
    <glyph glyph-name="z" unicode="z" horiz-adv-x="802" 
d="M291 92c100 0 380 -2 410 -6c28 -4 44 -13 44 -34c0 -16 -17 -28 -35 -32c-38 -8 -116 -13 -241 -13c-118 0 -337 4 -361 6c-23 2 -44 18 -44 39c0 10 5 19 14 28c135 137 283 312 416 457c24 26 65 61 84 84c-60 -1 -236 -5 -337 -10c-59 -3 -92 -4 -115 -4
c-26 0 -38 1 -46 6c-15 9 -23 21 -23 34c0 18 15 32 35 37c29 8 348 17 475 17c12 3 22 5 34 5s23 -2 35 -5c51 0 62 -1 72 -7c15 -7 25 -20 25 -34c0 -7 -3 -14 -8 -19c-10 -14 -92 -107 -127 -145c-44 -47 -190 -204 -257 -280c-61 -70 -86 -98 -113 -124h63z" />
    <glyph glyph-name="braceleft" unicode="{" horiz-adv-x="632" 
d="M572 513c0 -29 -37 -53 -69 -53c-21 0 -41 12 -125 64c-37 23 -86 57 -124 80c-16 9 -37 22 -52 34c-11 9 -22 19 -22 31c0 23 25 41 53 41c12 0 23 -3 33 -6c28 -12 110 -55 181 -95c57 -32 107 -61 116 -70c7 -7 9 -18 9 -26zM264 324h-169c-22 0 -47 6 -47 35
c0 11 6 21 16 28c23 15 60 18 212 23c99 2 54 5 163 5c84 0 115 -1 126 -31c1 -4 2 -9 2 -13l-1 -1v-1c0 -17 -12 -34 -31 -42c-14 -5 -21 -6 -74 -6c-3 0 -6 1 -9 1c-64 0 -124 2 -188 2zM578 231c0 -8 -1 -14 -7 -21c-10 -12 -99 -77 -219 -156c-16 -11 -82 -54 -82 -54
h-1c-11 -8 -22 -10 -34 -10c-22 0 -47 11 -47 36c0 10 4 19 12 28c31 33 112 94 182 144c56 41 103 72 114 76c8 2 17 4 25 4c25 0 57 -16 57 -47z" />
    <glyph glyph-name="bar" unicode="|" horiz-adv-x="251" 
d="M139 700c21 0 46 -11 46 -35c0 -1 -1 -2 -2 -3c-8 -112 -11 -224 -11 -339c0 -94 2 -187 7 -281h1c-1 -23 -26 -46 -58 -46c-22 0 -43 12 -44 35c-5 94 -9 187 -9 281c0 117 5 229 13 344c1 22 25 44 57 44z" />
    <glyph glyph-name="braceright" unicode="}" horiz-adv-x="632" 
d="M128 460c-32 0 -68 25 -68 53c0 8 0 18 8 26c9 9 59 38 116 70c71 40 152 83 180 95c10 3 22 6 34 6c28 0 52 -18 52 -41c0 -12 -11 -22 -22 -31c-15 -12 -36 -24 -51 -34c-43 -28 -97 -64 -141 -91c-68 -42 -88 -53 -108 -53zM178 322c-2 0 -5 -1 -7 -1
c-55 0 -61 1 -75 6c-19 8 -32 25 -32 42c0 1 -1 3 -1 4c0 4 1 7 2 10c11 29 44 32 127 32c109 0 63 -3 162 -5c152 -5 189 -8 212 -23c9 -7 16 -17 16 -28c0 -29 -24 -35 -46 -35h-169c-64 0 -125 -2 -189 -2zM54 231c0 31 31 47 56 47c3 0 16 -2 25 -4
c11 -4 57 -35 113 -76c70 -50 151 -111 182 -144c9 -9 12 -19 12 -28c0 -25 -25 -36 -47 -36c-12 0 -23 2 -34 10c-18 11 -65 42 -83 54c-119 79 -208 144 -218 156c-6 7 -6 14 -6 21z" />
    <glyph glyph-name="asciitilde" unicode="~" horiz-adv-x="543" 
d="M346 427c11 15 29 43 47 77c9 17 16 24 29 29c5 2 10 4 17 4c21 0 45 -14 45 -39c0 -19 -19 -47 -29 -66c-28 -48 -51 -73 -77 -84c-11 -4 -22 -7 -34 -7c-20 0 -36 6 -52 19s-32 33 -52 70c-7 16 -12 22 -19 30c-28 -19 -63 -67 -82 -96c-4 -17 -24 -29 -41 -29
c-19 0 -38 13 -38 36c0 11 5 26 14 42c23 45 61 95 103 116c15 6 30 11 47 11c70 0 91 -68 122 -113z" />
    <glyph glyph-name="uni007F" horiz-adv-x="171" 
 />
    <glyph glyph-name="exclamdown" unicode="&#xa1;" horiz-adv-x="254" 
d="M70 217v29c0 29 0 41 4 61c8 40 1 83 50 83c17 0 35 -6 42 -19c10 -18 11 -41 14 -197c1 -55 5 -206 7 -216c1 -6 2 -13 2 -19v-2c0 -29 -31 -39 -54 -39c-10 0 -18 2 -27 6c-28 14 -31 32 -34 79c-2 32 -3 108 -3 175v32c0 9 -1 18 -1 27zM125 470c-35 0 -56 14 -56 49
s9 68 47 68c43 0 61 -34 61 -75c0 -31 -24 -42 -52 -42z" />
    <glyph glyph-name="cent" unicode="&#xa2;" horiz-adv-x="586" 
d="M354 619v-3h5c64 0 112 -26 145 -62c11 -12 22 -26 22 -44c0 -32 -31 -46 -55 -46c-22 0 -39 13 -48 31c-14 18 -39 33 -70 34c-2 -91 -4 -181 -4 -276v-60c27 13 50 28 84 59c18 17 32 32 56 32c23 0 47 -9 47 -35c0 -14 -9 -25 -15 -34c-35 -49 -95 -93 -152 -111
c-7 -2 -11 -3 -17 -4v-58c0 -23 -19 -36 -43 -36s-42 14 -43 37v49v2c-17 1 -30 4 -47 9c-93 29 -163 105 -163 225v26c0 8 0 15 1 20c8 51 31 97 65 139c33 39 84 73 146 91v2c0 24 1 48 2 72c1 22 20 36 43 36c24 0 43 -14 43 -37v-1c0 -19 -2 -38 -2 -57zM264 253
c0 87 2 169 3 253l-4 -2c-29 -15 -53 -38 -70 -66c-24 -37 -30 -61 -30 -107c0 -60 24 -105 62 -128c13 -8 25 -13 39 -17v67z" />
    <glyph glyph-name="sterling" unicode="&#xa3;" horiz-adv-x="631" 
d="M263 251c0 -70 -21 -120 -53 -166c42 1 84 1 126 1h165c15 0 29 -1 44 -1c21 0 37 -16 37 -37s-16 -38 -37 -38c-15 0 -29 1 -44 1h-84c-102 0 -203 0 -304 -4h-2c-27 0 -48 20 -48 40c0 10 5 18 11 23c40 31 72 78 84 131c4 16 5 33 5 50c0 19 -3 36 -6 52
c-13 0 -26 -1 -39 -1c-11 0 -21 1 -32 1c-21 0 -37 16 -37 37s17 38 38 38v-1h49c-8 25 -14 53 -14 85c0 63 26 108 60 143c52 52 131 83 228 83c40 0 81 -5 119 -15c17 -4 29 -20 29 -38c0 -21 -18 -38 -39 -38c-8 0 -15 2 -22 4c-29 7 -58 12 -87 12
c-64 0 -114 -18 -148 -52c-23 -23 -40 -55 -40 -99c0 -31 8 -54 16 -82c50 2 108 4 157 8h3c21 0 38 -17 38 -38c0 -20 -16 -35 -35 -37c-44 -4 -98 -6 -143 -8c3 -18 5 -36 5 -54z" />
    <glyph glyph-name="yen" unicode="&#xa5;" horiz-adv-x="618" 
d="M133 330c40 0 78 -2 118 -2c0 5 1 9 1 14c-73 90 -141 187 -201 290c-4 7 -6 15 -6 24c0 26 21 47 47 47c17 0 33 -10 41 -24c52 -90 109 -175 171 -255c62 76 119 156 171 241l10 18c8 14 24 23 41 23c26 0 47 -21 47 -47c0 -9 -3 -17 -7 -24
c-64 -105 -135 -204 -214 -295c0 -4 -1 -8 -1 -12c40 0 79 2 119 2c21 0 37 -17 37 -38c0 -20 -16 -37 -36 -37c-40 -1 -81 -2 -121 -2v-67c40 -1 81 -2 121 -4c20 -1 36 -17 36 -37c0 -21 -16 -38 -37 -38c-39 0 -80 3 -119 4c0 -22 2 -44 2 -66c0 -28 -22 -50 -50 -50
s-49 22 -50 50c-1 22 -2 44 -2 66c-40 0 -80 -3 -120 -3c-21 0 -37 17 -37 38c0 20 16 36 36 37c40 2 80 3 120 3v67c-40 0 -78 1 -118 2c-20 0 -37 17 -37 37c0 21 17 38 38 38z" />
    <glyph glyph-name="section" unicode="&#xa7;" horiz-adv-x="881" 
d="M271 672c2 16 5 21 12 33c50 85 182 169 304 190c14 2 28 3 47 3h7c26 0 49 0 65 -6c61 -23 90 -41 92 -122c0 -13 1 -15 1 -28v-2c-10 -20 -29 -37 -53 -37c-40 0 -49 15 -50 58c-1 22 0 18 -22 29c-7 4 -10 7 -22 7h-17c-98 0 -173 -64 -228 -112
c-26 -25 -31 -50 -31 -61c0 -27 59 -27 89 -27c2 0 4 1 6 1l160 10c11 0 21 1 31 1c76 0 128 -45 150 -96c6 -16 13 -43 13 -68c0 -29 -2 -48 -8 -67c-18 -59 -57 -103 -116 -134c-31 -15 -63 -26 -96 -32c-1 -20 -3 -34 -8 -49c-18 -59 -57 -104 -116 -135
c-52 -25 -109 -38 -162 -38c-59 0 -117 15 -165 45s-63 48 -89 106c-3 8 -4 13 -4 20v9c0 30 25 45 46 45c41 0 45 -43 64 -69c24 -33 92 -54 151 -54c27 0 55 5 85 16c68 25 96 63 96 110c0 37 -15 68 -41 77c-16 5 -24 7 -71 7c-29 0 -93 11 -122 11
c-107 0 -215 26 -215 111c0 20 1 56 15 82c33 63 112 127 202 166zM585 312c14 3 28 7 42 12c68 25 96 63 96 110c0 37 -15 67 -41 76c-16 5 -24 7 -71 7c-29 0 -94 -8 -122 -12c-12 -2 -25 -3 -36 -3c-74 0 -123 37 -157 68c-62 -30 -140 -48 -140 -131v-8
c1 -18 59 -27 89 -27c2 0 4 1 6 1l160 -13c11 0 21 1 31 1c68 0 118 -36 143 -81z" />
    <glyph glyph-name="dieresis" unicode="&#xa8;" horiz-adv-x="408" 
d="M66 704v11c0 1 -1 2 -1 2c0 13 0 19 5 29c8 19 30 32 50 32c25 0 53 -11 53 -51c0 -22 -2 -31 -5 -43c-4 -18 -12 -26 -20 -37c-10 -12 -22 -17 -36 -17c-38 0 -46 38 -46 74zM347 732c0 -50 -16 -96 -62 -96c-39 0 -45 39 -45 74v11c0 1 -1 2 -1 2c0 36 24 62 55 62
c25 0 53 -13 53 -53z" />
    <glyph glyph-name="copyright" unicode="&#xa9;" horiz-adv-x="830" 
d="M405 160c-95 0 -175 62 -175 166c0 32 1 61 8 77c29 76 86 143 183 143h1c56 0 112 -27 144 -62c7 -8 14 -18 14 -27c0 -21 -22 -33 -45 -33c-19 0 -29 3 -42 18c-18 20 -48 36 -74 36c-62 0 -103 -76 -103 -141c0 -66 37 -110 92 -110c16 0 36 6 55 15c17 9 30 19 52 46
c12 14 22 20 36 20c21 0 37 -11 37 -32c0 -20 -11 -38 -29 -56c-36 -34 -96 -60 -154 -60zM426 720c33 0 64 -5 94 -12c56 -13 120 -49 153 -85c61 -71 100 -133 100 -251c0 -106 -34 -185 -83 -251c-38 -50 -97 -95 -151 -115c-41 -15 -66 -18 -117 -18
c-178 0 -311 102 -353 230c-12 38 -15 62 -15 105c0 205 142 368 320 392c16 2 34 5 52 5zM443 72c16 0 34 3 55 14c77 34 140 125 158 222c3 18 6 41 6 64s-2 45 -5 57c-22 100 -108 207 -240 207c-5 0 -10 -1 -15 -2c-72 -9 -156 -67 -198 -143c-21 -40 -34 -113 -39 -146
c-1 -3 -1 -5 -1 -7v-34c9 -72 33 -121 86 -166c44 -36 100 -62 140 -63c17 0 36 -3 53 -3z" />
    <glyph glyph-name="guillemotleft" unicode="&#xab;" horiz-adv-x="707" 
d="M349 537c24 0 43 -20 43 -44c0 -13 -6 -24 -15 -32c-84 -74 -125 -99 -209 -181c-3 -3 -14 -16 -17 -23c0 -2 3 -8 4 -10c82 -77 128 -104 212 -173c10 -8 16 -20 16 -33c0 -24 -19 -43 -43 -43c-10 0 -20 4 -28 10l-19 16c-85 70 -131 96 -217 177c-14 13 -25 32 -25 56
c0 17 6 29 13 39c7 12 16 22 25 30c86 84 128 109 212 183l19 17c8 7 18 11 29 11zM607 531c24 0 43 -19 43 -43c0 -13 -6 -25 -15 -33c-78 -66 -132 -95 -206 -170c-9 -9 -7 -10 -10 -28c0 -4 4 -13 5 -14c82 -77 127 -102 209 -169c10 -8 16 -20 16 -33
c0 -24 -19 -43 -43 -43c-10 0 -20 4 -27 10l-20 16c-83 68 -128 92 -213 172c-16 14 -27 35 -27 61c0 31 12 54 30 72c78 79 132 109 211 176l19 16c8 6 17 10 28 10z" />
    <glyph glyph-name="uni00AD" unicode="&#xad;" horiz-adv-x="463" 
d="M114 309c-28 0 -46 13 -46 35c0 24 20 30 44 36c40 9 66 14 142 15h81c31 0 41 -3 54 -18c5 -7 7 -13 7 -20c0 -18 -14 -33 -37 -40c-22 -7 -117 -7 -199 -7h-18c-10 0 -19 -1 -28 -1z" />
    <glyph glyph-name="registered" unicode="&#xae;" horiz-adv-x="830" 
d="M473 300c25 -19 53 -44 78 -65c8 -6 14 -12 18 -16c3 -3 5 -7 5 -12c0 -20 -25 -25 -37 -25c-29 0 -65 18 -117 54c-26 18 -38 29 -65 47c0 -5 1 -12 1 -16v-1c0 -9 -1 -17 -2 -35c-4 -29 -7 -55 -39 -55c-20 2 -31 11 -34 33c-4 37 -5 71 -5 101v28c0 42 1 75 1 119
c0 21 -1 41 -1 62c9 8 19 20 35 20c10 0 22 -9 32 -9c2 0 11 2 16 3c17 3 33 6 51 6c67 0 126 -27 153 -76c7 -14 9 -25 9 -42c0 -55 -47 -102 -99 -121zM420 474c-21 0 -40 -5 -58 -9c-1 -31 -1 -82 -2 -112h22c65 0 106 30 106 79c0 25 -33 42 -68 42zM426 720
c33 0 64 -5 94 -12c56 -13 120 -49 153 -85c61 -71 100 -133 100 -251c0 -106 -34 -185 -83 -251c-38 -50 -97 -95 -151 -115c-41 -15 -66 -18 -117 -18c-178 0 -311 102 -353 230c-12 38 -15 62 -15 105c0 205 142 368 320 392c16 2 34 5 52 5zM164 338v-8
c0 -89 28 -143 86 -192c44 -36 100 -62 140 -63c17 0 36 -3 53 -3c16 0 34 3 55 14c77 34 140 125 158 222c3 18 6 41 6 64s-2 45 -5 57c-22 100 -108 207 -240 207c-5 0 -10 -1 -15 -2c-72 -9 -156 -67 -198 -143c-21 -40 -34 -113 -39 -146c0 -3 -1 -5 -1 -7z" />
    <glyph glyph-name="degree" unicode="&#xb0;" horiz-adv-x="331" 
d="M160 580c-69 0 -98 48 -98 94c0 53 34 89 95 97c3 1 9 2 11 2v-1h2c55 0 101 -46 101 -89c0 -69 -42 -103 -111 -103zM165 647c23 0 35 5 35 29c0 9 -14 24 -31 24c-25 0 -33 -13 -33 -28c0 -13 6 -25 29 -25z" />
    <glyph glyph-name="acute" unicode="&#xb4;" horiz-adv-x="330" 
d="M273 769v-5c0 -2 0 -5 -2 -8c-7 -13 -20 -22 -48 -38s-18 -10 -46 -26c-34 -20 -48 -28 -65 -28h-3c-24 0 -44 17 -44 38c0 6 2 11 6 17c10 15 16 21 73 58c45 29 56 36 72 36c22 0 57 -15 57 -44z" />
    <glyph glyph-name="periodcentered" unicode="&#xb7;" horiz-adv-x="278" 
d="M127 264c-46 0 -61 32 -61 80v10c0 32 3 54 34 70c13 7 25 9 39 9c36 0 71 -13 71 -55c0 -64 -13 -74 -33 -96c-12 -13 -31 -18 -50 -18z" />
    <glyph glyph-name="cedilla" unicode="&#xb8;" horiz-adv-x="325" 
d="M176 79c49 -2 86 -23 86 -74c0 -63 -61 -95 -105 -103c-13 -3 -27 -4 -40 -4h-5c-24 0 -54 1 -54 31c0 20 17 39 37 39c10 0 20 -4 30 -4c21 0 71 6 71 32c0 20 -31 17 -52 19c-32 3 -66 22 -66 63c0 29 14 40 21 62c5 15 20 28 36 28c17 0 29 -13 29 -29
c0 -15 -9 -27 -14 -39c-1 -3 -6 -10 -6 -13c0 -7 26 -8 32 -8z" />
    <glyph glyph-name="guillemotright" unicode="&#xbb;" horiz-adv-x="725" 
d="M309 525c0 24 20 44 44 44c11 0 21 -4 29 -11c75 -68 153 -135 235 -197c21 -16 55 -43 55 -84c0 -31 -20 -52 -35 -67c-27 -27 -56 -51 -84 -74l-153 -127c-7 -6 -17 -10 -27 -10c-24 0 -43 19 -43 43c0 13 6 25 15 33l134 112c28 23 55 45 79 69c7 7 14 12 14 21
c0 5 -2 9 -5 13c-4 5 -11 11 -21 19c-77 58 -151 120 -222 184c-9 8 -15 19 -15 32zM56 512c0 23 19 43 42 43c9 0 18 -4 25 -9c46 -34 92 -68 137 -103c38 -29 77 -60 112 -97c14 -15 34 -39 34 -70c0 -32 -22 -54 -38 -69c-76 -70 -158 -131 -240 -194
c-7 -6 -16 -9 -26 -9c-24 0 -42 18 -42 42c0 14 6 26 16 34c72 56 148 114 214 175c7 7 16 12 16 21c0 11 -8 18 -16 26c-30 32 -65 60 -102 89c-38 30 -76 58 -115 87c-10 8 -17 20 -17 34z" />
    <glyph glyph-name="questiondown" unicode="&#xbf;" horiz-adv-x="647" 
d="M358 472c42 0 52 -35 52 -84c0 -51 -13 -77 -42 -115c-17 -23 -56 -64 -92 -92c-31 -27 -81 -69 -99 -90c-12 -14 -17 -25 -17 -37c0 -7 1 -12 4 -17c15 -27 72 -49 129 -49c18 0 37 3 55 8c71 22 122 69 137 131c8 31 28 43 63 43c26 0 52 -12 52 -41
c0 -15 -6 -30 -17 -54c-23 -51 -63 -90 -122 -122c-49 -29 -93 -45 -166 -45c-27 0 -56 1 -71 3c-69 11 -135 41 -167 92c-8 14 -9 22 -9 39v11c0 27 6 47 24 74c27 41 37 49 123 104c80 54 98 96 107 131c5 17 10 41 10 60c0 32 14 50 46 50zM307 591c0 9 0 17 4 23
c9 16 29 30 51 30c15 0 34 -11 42 -24c6 -9 6 -23 6 -35c0 -33 -22 -49 -52 -49c-19 0 -39 7 -47 22c-2 7 -3 15 -3 28c0 2 -1 3 -1 5z" />
    <glyph glyph-name="Agrave" unicode="&#xc0;" 
d="M228 841c0 25 33 37 55 37c18 0 33 -10 44 -19c9 -8 27 -20 35 -28c42 -33 51 -44 57 -53c2 -4 4 -9 4 -16c0 -23 -28 -26 -41 -26c-8 0 -17 2 -24 4c-25 7 -44 19 -73 39c-36 25 -51 39 -56 53c-1 2 -2 5 -2 6s1 1 1 3zM554 -3h-2c-12 9 -24 7 -32 23
c-6 11 -39 91 -54 127c-65 -6 -239 -12 -288 -19c-2 0 -5 -1 -6 -1h-1c-6 -16 -13 -35 -19 -51c-22 -60 -31 -84 -62 -84c-17 0 -41 5 -41 29c0 17 10 55 43 174c40 145 83 316 128 441c17 45 23 54 43 63c5 3 17 4 22 4c1 -2 1 -2 2 0c21 0 43 -7 57 -12
c17 -7 26 -19 39 -53c6 -17 27 -71 47 -115c77 -190 105 -271 135 -362c21 -65 34 -110 34 -128c0 -24 -19 -36 -45 -36zM431 219c-42 107 -87 226 -127 326c-28 -85 -79 -247 -104 -338c59 3 114 9 175 10z" />
    <glyph glyph-name="Aacute" unicode="&#xc1;" 
d="M397 836v-5c0 -2 0 -5 -2 -8c-7 -13 -20 -22 -48 -38s-18 -10 -46 -26c-34 -20 -48 -28 -65 -28h-3c-24 0 -44 17 -44 38c0 6 2 11 6 17c10 15 16 21 73 58c45 29 56 36 72 36c22 0 57 -15 57 -44zM554 -3h-2c-12 9 -24 7 -32 23c-6 11 -39 91 -54 127
c-65 -6 -239 -12 -288 -19c-2 0 -5 -1 -6 -1h-1c-6 -16 -13 -35 -19 -51c-22 -60 -31 -84 -62 -84c-17 0 -41 5 -41 29c0 17 10 55 43 174c40 145 83 316 128 441c17 45 23 54 43 63c5 3 17 4 22 4c1 -2 1 -2 2 0c21 0 43 -7 57 -12c17 -7 26 -19 39 -53
c6 -17 27 -71 47 -115c77 -190 105 -271 135 -362c21 -65 34 -110 34 -128c0 -24 -19 -36 -45 -36zM431 219c-42 107 -87 226 -127 326c-28 -85 -79 -247 -104 -338c59 3 114 9 175 10z" />
    <glyph glyph-name="Acircumflex" unicode="&#xc2;" 
d="M442 775c0 -29 -33 -33 -47 -33c-26 0 -34 11 -45 27l-35 47c-14 -18 -43 -59 -53 -67c-12 -10 -27 -15 -41 -15c-8 0 -40 2 -40 30c0 14 8 25 24 46c19 25 50 69 64 83c15 15 26 20 49 20h3c19 0 32 -7 42 -20c11 -13 56 -78 67 -94c4 -8 12 -12 12 -24zM554 -3h-2
c-12 9 -24 7 -32 23c-6 11 -39 91 -54 127c-65 -6 -239 -12 -288 -19c-2 0 -5 -1 -6 -1h-1c-6 -16 -13 -35 -19 -51c-22 -60 -31 -84 -62 -84c-17 0 -41 5 -41 29c0 17 10 55 43 174c40 145 83 316 128 441c17 45 23 54 43 63c5 3 17 4 22 4c1 -2 1 -2 2 0
c21 0 43 -7 57 -12c17 -7 26 -19 39 -53c6 -17 27 -71 47 -115c77 -190 105 -271 135 -362c21 -65 34 -110 34 -128c0 -24 -19 -36 -45 -36zM431 219c-42 107 -87 226 -127 326c-28 -85 -79 -247 -104 -338c59 3 114 9 175 10z" />
    <glyph glyph-name="Atilde" unicode="&#xc3;" 
d="M281 822c-13 -11 -29 -28 -40 -40c-6 -13 -22 -22 -37 -22s-37 11 -37 31c0 10 7 20 13 29c19 30 51 69 105 69c43 0 59 -26 77 -50c16 20 26 49 59 49c16 0 40 -8 40 -31c0 -16 -13 -31 -21 -42c-22 -31 -39 -51 -79 -51c-44 0 -59 29 -80 58zM554 -3h-2
c-12 9 -24 7 -32 23c-6 11 -39 91 -54 127c-65 -6 -239 -12 -288 -19c-2 0 -5 -1 -6 -1h-1c-6 -16 -13 -35 -19 -51c-22 -60 -31 -84 -62 -84c-17 0 -41 5 -41 29c0 17 10 55 43 174c40 145 83 316 128 441c17 45 23 54 43 63c5 3 17 4 22 4c1 -2 1 -2 2 0
c21 0 43 -7 57 -12c17 -7 26 -19 39 -53c6 -17 27 -71 47 -115c77 -190 105 -271 135 -362c21 -65 34 -110 34 -128c0 -24 -19 -36 -45 -36zM431 219c-42 107 -87 226 -127 326c-28 -85 -79 -247 -104 -338c59 3 114 9 175 10z" />
    <glyph glyph-name="Adieresis" unicode="&#xc4;" 
d="M162 802v11c0 1 -1 2 -1 2c0 13 0 19 5 29c8 19 30 32 50 32c25 0 53 -11 53 -51c0 -22 -2 -31 -5 -43c-4 -18 -12 -26 -20 -37c-10 -12 -22 -17 -36 -17c-38 0 -46 38 -46 74zM443 830c0 -50 -16 -96 -62 -96c-39 0 -45 39 -45 74v11c0 1 -1 2 -1 2c0 36 24 62 55 62
c25 0 53 -13 53 -53zM554 -3h-2c-12 9 -24 7 -32 23c-6 11 -39 91 -54 127c-65 -6 -239 -12 -288 -19c-2 0 -5 -1 -6 -1h-1c-6 -16 -13 -35 -19 -51c-22 -60 -31 -84 -62 -84c-17 0 -41 5 -41 29c0 17 10 55 43 174c40 145 83 316 128 441c17 45 23 54 43 63c5 3 17 4 22 4
c1 -2 1 -2 2 0c21 0 43 -7 57 -12c17 -7 26 -19 39 -53c6 -17 27 -71 47 -115c77 -190 105 -271 135 -362c21 -65 34 -110 34 -128c0 -24 -19 -36 -45 -36zM431 219c-42 107 -87 226 -127 326c-28 -85 -79 -247 -104 -338c59 3 114 9 175 10z" />
    <glyph glyph-name="Aring" unicode="&#xc5;" 
d="M304 722c-69 0 -98 48 -98 94c0 53 34 89 95 97c3 1 9 2 11 2v-1h2c55 0 101 -46 101 -89c0 -69 -42 -103 -111 -103zM309 789c23 0 35 5 35 29c0 9 -14 24 -31 24c-25 0 -33 -13 -33 -28c0 -13 6 -25 29 -25zM554 -3h-2c-12 9 -24 7 -32 23c-6 11 -39 91 -54 127
c-65 -6 -239 -12 -288 -19c-2 0 -5 -1 -6 -1h-1c-6 -16 -13 -35 -19 -51c-22 -60 -31 -84 -62 -84c-17 0 -41 5 -41 29c0 17 10 55 43 174c40 145 83 316 128 441c17 45 23 54 43 63c5 3 17 4 22 4c1 -2 1 -2 2 0c21 0 43 -7 57 -12c17 -7 26 -19 39 -53
c6 -17 27 -71 47 -115c77 -190 105 -271 135 -362c21 -65 34 -110 34 -128c0 -24 -19 -36 -45 -36zM431 219c-42 107 -87 226 -127 326c-28 -85 -79 -247 -104 -338c59 3 114 9 175 10z" />
    <glyph glyph-name="AE" unicode="&#xc6;" horiz-adv-x="1109" 
d="M668 706c56 0 84 4 159 4h10c74 0 104 -2 128 -4c46 -5 63 -17 75 -28c6 -6 10 -13 10 -21c0 -7 -3 -12 -8 -18c-12 -14 -16 -14 -107 -14c-140 0 -208 -6 -296 -16h-7v-11c-2 -45 -4 -149 -4 -202c0 -10 1 -18 1 -25h2c11 0 17 -1 29 -1c56 0 164 4 220 4
c43 0 73 -1 92 -2c27 -2 45 -9 45 -30c0 -12 -10 -29 -23 -36c-26 -14 -115 -18 -288 -21l-79 -3v-18c0 -57 -7 -134 -12 -185c53 -2 380 -6 398 -9c20 -4 29 -15 29 -27c0 -10 -8 -21 -21 -28c-29 -14 -139 -21 -268 -21h-66c-20 0 -42 -1 -64 -1c-50 0 -97 4 -99 27
c-2 11 -4 27 -4 39c-1 32 -1 63 -1 96v5c-69 -6 -221 -14 -272 -21c-2 0 -3 -1 -4 -1h-4c-12 -16 -33 -46 -45 -62c-46 -60 -64 -84 -95 -84c-15 0 -54 4 -54 23c0 2 0 4 1 6c7 17 32 55 112 174c98 145 208 316 303 441c35 45 44 54 68 63c6 3 19 4 24 4v-1c1 0 1 0 2 1h4
c22 3 46 3 70 3h39zM524 346c1 59 2 134 3 190c-63 -86 -167 -227 -224 -312c60 3 95 6 156 7l59 5c0 37 3 74 6 110z" />
    <glyph glyph-name="Ccedilla" unicode="&#xc7;" horiz-adv-x="737" 
d="M406 -15c49 -2 86 -23 86 -74c0 -63 -61 -95 -105 -103c-13 -3 -27 -4 -40 -4h-5c-24 0 -54 1 -54 31c0 20 17 39 37 39c10 0 20 -4 30 -4c21 0 71 6 71 32c0 20 -31 17 -52 19c-32 3 -66 22 -66 63c0 29 14 40 21 62c5 15 20 28 36 28c17 0 29 -13 29 -29
c0 -15 -9 -27 -14 -39c-1 -3 -6 -10 -6 -13c0 -7 26 -8 32 -8zM684 208c0 -10 -8 -21 -17 -35c-46 -66 -126 -125 -202 -148c-37 -11 -58 -15 -101 -15c-46 0 -65 3 -99 13c-85 26 -146 78 -182 151c-24 50 -33 83 -33 145c0 23 1 50 3 60c10 67 40 132 86 188
c63 74 182 136 317 136c83 0 148 -33 189 -79c15 -16 26 -33 26 -48c0 -28 -28 -45 -57 -45c-22 0 -38 12 -48 32c-5 12 -38 39 -59 48c-19 8 -37 11 -59 11c-24 0 -49 -4 -82 -14c-71 -21 -124 -63 -161 -122c-36 -55 -47 -95 -47 -163c0 -89 37 -162 99 -198
c37 -22 76 -34 113 -34c25 0 49 3 72 14c43 19 80 45 133 92c18 17 34 30 41 34c8 5 16 6 24 6c17 0 44 -6 44 -29z" />
    <glyph glyph-name="Egrave" unicode="&#xc8;" horiz-adv-x="668" 
d="M268 859c0 25 33 37 55 37c18 0 33 -10 44 -19c9 -8 27 -20 35 -28c42 -33 51 -44 57 -53c2 -4 4 -9 4 -16c0 -23 -28 -26 -41 -26c-8 0 -17 2 -24 4c-25 7 -44 19 -73 39c-36 25 -51 39 -56 53c-1 2 -2 5 -2 6s1 1 1 3zM191 611v-11c-2 -45 -4 -149 -4 -202
c0 -10 1 -18 1 -25h2c11 0 17 -1 29 -1c56 0 164 4 220 4c43 0 73 -1 92 -2c27 -2 45 -9 45 -30c0 -12 -10 -29 -23 -36c-26 -14 -115 -18 -288 -21l-79 -3v-18c0 -57 -7 -134 -12 -185c53 -2 380 -6 398 -9c20 -4 29 -15 29 -27c0 -10 -8 -21 -21 -28
c-29 -14 -139 -21 -268 -21h-54c-61 1 -101 3 -127 5c-20 1 -28 3 -36 8c-18 13 -23 30 -23 52c-1 32 -1 63 -1 96c0 23 1 48 2 81c4 81 5 292 9 372c-8 6 -17 18 -17 31c0 36 53 49 87 51c36 2 90 9 127 12c13 1 46 1 84 1h10c74 0 123 -2 147 -4c46 -5 67 -10 79 -21
c6 -6 10 -13 10 -21c0 -7 -3 -12 -8 -18c-12 -14 -16 -14 -107 -14c-140 0 -208 -6 -296 -16h-7z" />
    <glyph glyph-name="Eacute" unicode="&#xc9;" horiz-adv-x="668" 
d="M437 854v-5c0 -2 0 -5 -2 -8c-7 -13 -20 -22 -48 -38s-18 -10 -46 -26c-34 -20 -48 -28 -65 -28h-3c-24 0 -44 17 -44 38c0 6 2 11 6 17c10 15 16 21 73 58c45 29 56 36 72 36c22 0 57 -15 57 -44zM191 611v-11c-2 -45 -4 -149 -4 -202c0 -10 1 -18 1 -25h2
c11 0 17 -1 29 -1c56 0 164 4 220 4c43 0 73 -1 92 -2c27 -2 45 -9 45 -30c0 -12 -10 -29 -23 -36c-26 -14 -115 -18 -288 -21l-79 -3v-18c0 -57 -7 -134 -12 -185c53 -2 380 -6 398 -9c20 -4 29 -15 29 -27c0 -10 -8 -21 -21 -28c-29 -14 -139 -21 -268 -21h-54
c-61 1 -101 3 -127 5c-20 1 -28 3 -36 8c-18 13 -23 30 -23 52c-1 32 -1 63 -1 96c0 23 1 48 2 81c4 81 5 292 9 372c-8 6 -17 18 -17 31c0 36 53 49 87 51c36 2 90 9 127 12c13 1 46 1 84 1h10c74 0 123 -2 147 -4c46 -5 67 -10 79 -21c6 -6 10 -13 10 -21
c0 -7 -3 -12 -8 -18c-12 -14 -16 -14 -107 -14c-140 0 -208 -6 -296 -16h-7z" />
    <glyph glyph-name="Ecircumflex" unicode="&#xca;" horiz-adv-x="668" 
d="M482 793c0 -29 -33 -33 -47 -33c-26 0 -34 11 -45 27l-35 47c-14 -18 -43 -59 -53 -67c-12 -10 -27 -15 -41 -15c-8 0 -40 2 -40 30c0 14 8 25 24 46c19 25 50 69 64 83c15 15 26 20 49 20h3c19 0 32 -7 42 -20c11 -13 56 -78 67 -94c4 -8 12 -12 12 -24zM191 611v-11
c-2 -45 -4 -149 -4 -202c0 -10 1 -18 1 -25h2c11 0 17 -1 29 -1c56 0 164 4 220 4c43 0 73 -1 92 -2c27 -2 45 -9 45 -30c0 -12 -10 -29 -23 -36c-26 -14 -115 -18 -288 -21l-79 -3v-18c0 -57 -7 -134 -12 -185c53 -2 380 -6 398 -9c20 -4 29 -15 29 -27
c0 -10 -8 -21 -21 -28c-29 -14 -139 -21 -268 -21h-54c-61 1 -101 3 -127 5c-20 1 -28 3 -36 8c-18 13 -23 30 -23 52c-1 32 -1 63 -1 96c0 23 1 48 2 81c4 81 5 292 9 372c-8 6 -17 18 -17 31c0 36 53 49 87 51c36 2 90 9 127 12c13 1 46 1 84 1h10c74 0 123 -2 147 -4
c46 -5 67 -10 79 -21c6 -6 10 -13 10 -21c0 -7 -3 -12 -8 -18c-12 -14 -16 -14 -107 -14c-140 0 -208 -6 -296 -16h-7z" />
    <glyph glyph-name="Edieresis" unicode="&#xcb;" horiz-adv-x="668" 
d="M202 820v11c0 1 -1 2 -1 2c0 13 0 19 5 29c8 19 30 32 50 32c25 0 53 -11 53 -51c0 -22 -2 -31 -5 -43c-4 -18 -12 -26 -20 -37c-10 -12 -22 -17 -36 -17c-38 0 -46 38 -46 74zM483 848c0 -50 -16 -96 -62 -96c-39 0 -45 39 -45 74v11c0 1 -1 2 -1 2c0 36 24 62 55 62
c25 0 53 -13 53 -53zM191 611v-11c-2 -45 -4 -149 -4 -202c0 -10 1 -18 1 -25h2c11 0 17 -1 29 -1c56 0 164 4 220 4c43 0 73 -1 92 -2c27 -2 45 -9 45 -30c0 -12 -10 -29 -23 -36c-26 -14 -115 -18 -288 -21l-79 -3v-18c0 -57 -7 -134 -12 -185c53 -2 380 -6 398 -9
c20 -4 29 -15 29 -27c0 -10 -8 -21 -21 -28c-29 -14 -139 -21 -268 -21h-54c-61 1 -101 3 -127 5c-20 1 -28 3 -36 8c-18 13 -23 30 -23 52c-1 32 -1 63 -1 96c0 23 1 48 2 81c4 81 5 292 9 372c-8 6 -17 18 -17 31c0 36 53 49 87 51c36 2 90 9 127 12c13 1 46 1 84 1h10
c74 0 123 -2 147 -4c46 -5 67 -10 79 -21c6 -6 10 -13 10 -21c0 -7 -3 -12 -8 -18c-12 -14 -16 -14 -107 -14c-140 0 -208 -6 -296 -16h-7z" />
    <glyph glyph-name="Igrave" unicode="&#xcc;" horiz-adv-x="271" 
d="M61 877c0 25 33 37 55 37c18 0 33 -10 44 -19c9 -8 27 -20 35 -28c42 -33 51 -44 57 -53c2 -4 4 -9 4 -16c0 -23 -28 -26 -41 -26c-8 0 -17 2 -24 4c-25 7 -44 19 -73 39c-36 25 -51 39 -56 53c-1 2 -2 5 -2 6s1 1 1 3zM185 86c-1 -38 -11 -78 -58 -78
c-28 0 -40 19 -43 47c-8 71 -11 163 -11 247c0 60 1 121 4 181l4 76c5 92 7 98 13 111c9 17 30 28 54 28c15 0 35 -6 43 -15c8 -6 8 -15 8 -30c0 -49 -3 -108 -6 -156c-2 -81 -5 -210 -5 -212c0 -12 1 -24 1 -37c0 -52 -2 -115 -4 -162z" />
    <glyph glyph-name="Iacute" unicode="&#xcd;" horiz-adv-x="271" 
d="M230 872v-5c0 -2 0 -5 -2 -8c-7 -13 -20 -22 -48 -38s-18 -10 -46 -26c-34 -20 -48 -28 -65 -28h-3c-24 0 -44 17 -44 38c0 6 2 11 6 17c10 15 16 21 73 58c45 29 56 36 72 36c22 0 57 -15 57 -44zM185 86c-1 -38 -11 -78 -58 -78c-28 0 -40 19 -43 47
c-8 71 -11 163 -11 247c0 60 1 121 4 181l4 76c5 92 7 98 13 111c9 17 30 28 54 28c15 0 35 -6 43 -15c8 -6 8 -15 8 -30c0 -49 -3 -108 -6 -156c-2 -81 -5 -210 -5 -212c0 -12 1 -24 1 -37c0 -52 -2 -115 -4 -162z" />
    <glyph glyph-name="Icircumflex" unicode="&#xce;" horiz-adv-x="271" 
d="M275 811c0 -29 -33 -33 -47 -33c-26 0 -34 11 -45 27l-35 47c-14 -18 -43 -59 -53 -67c-12 -10 -27 -15 -41 -15c-8 0 -40 2 -40 30c0 14 8 25 24 46c19 25 50 69 64 83c15 15 26 20 49 20h3c19 0 32 -7 42 -20c11 -13 56 -78 67 -94c4 -8 12 -12 12 -24zM185 86
c-1 -38 -11 -78 -58 -78c-28 0 -40 19 -43 47c-8 71 -11 163 -11 247c0 60 1 121 4 181l4 76c5 92 7 98 13 111c9 17 30 28 54 28c15 0 35 -6 43 -15c8 -6 8 -15 8 -30c0 -49 -3 -108 -6 -156c-2 -81 -5 -210 -5 -212c0 -12 1 -24 1 -37c0 -52 -2 -115 -4 -162z" />
    <glyph glyph-name="Idieresis" unicode="&#xcf;" horiz-adv-x="271" 
d="M-5 838v11c0 1 -1 2 -1 2c0 13 0 19 5 29c8 19 30 32 50 32c25 0 53 -11 53 -51c0 -22 -2 -31 -5 -43c-4 -18 -12 -26 -20 -37c-10 -12 -22 -17 -36 -17c-38 0 -46 38 -46 74zM276 866c0 -50 -16 -96 -62 -96c-39 0 -45 39 -45 74v11c0 1 -1 2 -1 2c0 36 24 62 55 62
c25 0 53 -13 53 -53zM185 86c-1 -38 -11 -78 -58 -78c-28 0 -40 19 -43 47c-8 71 -11 163 -11 247c0 60 1 121 4 181l4 76c5 92 7 98 13 111c9 17 30 28 54 28c15 0 35 -6 43 -15c8 -6 8 -15 8 -30c0 -49 -3 -108 -6 -156c-2 -81 -5 -210 -5 -212c0 -12 1 -24 1 -37
c0 -52 -2 -115 -4 -162z" />
    <glyph glyph-name="Eth" unicode="&#xd0;" horiz-adv-x="837" 
d="M292 579l-9 -6c-1 0 -1 -1 -1 -2c0 -34 -1 -98 -3 -170c49 0 84 -3 136 -3c21 0 38 -22 38 -43s-17 -38 -38 -38h-10c-50 0 -85 2 -128 3c-3 -111 -7 -213 -11 -248c0 0 9 3 14 4c113 16 231 57 299 121c57 52 86 129 86 193c0 40 -10 75 -31 107c-35 50 -95 90 -167 109
c-20 6 -39 9 -58 9c-46 0 -86 -16 -117 -36zM171 584v16c0 37 18 55 52 57c11 1 17 3 30 9c45 22 89 34 155 34c27 0 55 -1 73 -4c115 -21 211 -84 259 -170c26 -46 35 -81 35 -145c0 -108 -69 -204 -140 -259c-101 -76 -231 -118 -354 -123c-28 -1 -34 -1 -45 -6
c-7 -3 -21 -7 -22 -7c-46 0 -46 38 -46 80c0 33 -1 68 -1 92v158c-26 -2 -46 -4 -82 -7h-2c-21 0 -38 17 -38 38c0 20 15 41 35 42c37 3 59 6 86 8v10c0 80 5 115 5 177z" />
    <glyph glyph-name="Ntilde" unicode="&#xd1;" horiz-adv-x="772" 
d="M353 820c-13 -11 -29 -28 -40 -40c-6 -13 -22 -22 -37 -22s-37 11 -37 31c0 10 7 20 13 29c19 30 51 69 105 69c43 0 59 -26 77 -50c16 20 26 49 59 49c16 0 40 -8 40 -31c0 -16 -13 -31 -21 -42c-22 -31 -39 -51 -79 -51c-44 0 -59 29 -80 58zM694 474
c-4 -120 -5 -276 -9 -396v-5c0 -47 -18 -80 -57 -80c-10 0 -17 3 -26 7c-11 6 -15 10 -59 72c-112 159 -232 315 -349 471v-29c0 -91 -2 -251 -2 -342c0 -39 2 -60 2 -98v-8c0 -40 -8 -74 -51 -74c-69 0 -70 68 -70 147v7c0 86 4 200 4 287v26c0 69 1 139 8 192
c4 34 23 49 60 49c4 0 6 -1 10 -1c3 0 3 -1 5 -1c33 -2 40 -7 141 -135c141 -179 217 -288 274 -368v24l6 193c1 23 1 45 1 65c0 30 -1 58 -1 86c0 18 1 33 2 46c5 50 6 58 13 68c10 16 31 23 51 23c24 0 41 -14 52 -30c-3 -32 -7 -62 -7 -97c0 -29 2 -59 2 -87v-12z" />
    <glyph glyph-name="Ograve" unicode="&#xd2;" horiz-adv-x="844" 
d="M331 850c0 25 33 37 55 37c18 0 33 -10 44 -19c9 -8 27 -20 35 -28c42 -33 51 -44 57 -53c2 -4 4 -9 4 -16c0 -23 -28 -26 -41 -26c-8 0 -17 2 -24 4c-25 7 -44 19 -73 39c-36 25 -51 39 -56 53c-1 2 -2 5 -2 6s1 1 1 3zM160 324c0 -9 0 -18 1 -26c9 -70 34 -118 89 -162
c45 -35 102 -60 142 -61c17 0 39 -4 56 -4c16 0 32 3 55 14c79 33 144 122 162 217c3 17 5 40 5 63c0 22 -2 42 -5 55c-22 98 -110 201 -245 201c-2 2 -5 2 -7 0c-80 -8 -165 -61 -211 -140c-26 -48 -42 -96 -42 -157zM377 707c16 2 33 4 52 4c182 0 297 -112 335 -226
c12 -33 17 -73 17 -113c0 -47 -8 -94 -22 -136c-31 -89 -115 -187 -212 -222c-41 -15 -68 -18 -122 -18c-68 0 -115 9 -171 32c-94 39 -160 112 -188 193c-12 37 -16 61 -16 103c0 200 145 359 327 383z" />
    <glyph glyph-name="Oacute" unicode="&#xd3;" horiz-adv-x="844" 
d="M500 845v-5c0 -2 0 -5 -2 -8c-7 -13 -20 -22 -48 -38s-18 -10 -46 -26c-34 -20 -48 -28 -65 -28h-3c-24 0 -44 17 -44 38c0 6 2 11 6 17c10 15 16 21 73 58c45 29 56 36 72 36c22 0 57 -15 57 -44zM160 324c0 -9 0 -18 1 -26c9 -70 34 -118 89 -162
c45 -35 102 -60 142 -61c17 0 39 -4 56 -4c16 0 32 3 55 14c79 33 144 122 162 217c3 17 5 40 5 63c0 22 -2 42 -5 55c-22 98 -110 201 -245 201c-2 2 -5 2 -7 0c-80 -8 -165 -61 -211 -140c-26 -48 -42 -96 -42 -157zM377 707c16 2 33 4 52 4c182 0 297 -112 335 -226
c12 -33 17 -73 17 -113c0 -47 -8 -94 -22 -136c-31 -89 -115 -187 -212 -222c-41 -15 -68 -18 -122 -18c-68 0 -115 9 -171 32c-94 39 -160 112 -188 193c-12 37 -16 61 -16 103c0 200 145 359 327 383z" />
    <glyph glyph-name="Ocircumflex" unicode="&#xd4;" horiz-adv-x="844" 
d="M545 784c0 -29 -33 -33 -47 -33c-26 0 -34 11 -45 27l-35 47c-14 -18 -43 -59 -53 -67c-12 -10 -27 -15 -41 -15c-8 0 -40 2 -40 30c0 14 8 25 24 46c19 25 50 69 64 83c15 15 26 20 49 20h3c19 0 32 -7 42 -20c11 -13 56 -78 67 -94c4 -8 12 -12 12 -24zM160 324
c0 -9 0 -18 1 -26c9 -70 34 -118 89 -162c45 -35 102 -60 142 -61c17 0 39 -4 56 -4c16 0 32 3 55 14c79 33 144 122 162 217c3 17 5 40 5 63c0 22 -2 42 -5 55c-22 98 -110 201 -245 201c-2 2 -5 2 -7 0c-80 -8 -165 -61 -211 -140c-26 -48 -42 -96 -42 -157zM377 707
c16 2 33 4 52 4c182 0 297 -112 335 -226c12 -33 17 -73 17 -113c0 -47 -8 -94 -22 -136c-31 -89 -115 -187 -212 -222c-41 -15 -68 -18 -122 -18c-68 0 -115 9 -171 32c-94 39 -160 112 -188 193c-12 37 -16 61 -16 103c0 200 145 359 327 383z" />
    <glyph glyph-name="Otilde" unicode="&#xd5;" horiz-adv-x="844" 
d="M384 831c-13 -11 -29 -28 -40 -40c-6 -13 -22 -22 -37 -22s-37 11 -37 31c0 10 7 20 13 29c19 30 51 69 105 69c43 0 59 -26 77 -50c16 20 26 49 59 49c16 0 40 -8 40 -31c0 -16 -13 -31 -21 -42c-22 -31 -39 -51 -79 -51c-44 0 -59 29 -80 58zM160 324c0 -9 0 -18 1 -26
c9 -70 34 -118 89 -162c45 -35 102 -60 142 -61c17 0 39 -4 56 -4c16 0 32 3 55 14c79 33 144 122 162 217c3 17 5 40 5 63c0 22 -2 42 -5 55c-22 98 -110 201 -245 201c-2 2 -5 2 -7 0c-80 -8 -165 -61 -211 -140c-26 -48 -42 -96 -42 -157zM377 707c16 2 33 4 52 4
c182 0 297 -112 335 -226c12 -33 17 -73 17 -113c0 -47 -8 -94 -22 -136c-31 -89 -115 -187 -212 -222c-41 -15 -68 -18 -122 -18c-68 0 -115 9 -171 32c-94 39 -160 112 -188 193c-12 37 -16 61 -16 103c0 200 145 359 327 383z" />
    <glyph glyph-name="Odieresis" unicode="&#xd6;" horiz-adv-x="844" 
d="M265 811v11c0 1 -1 2 -1 2c0 13 0 19 5 29c8 19 30 32 50 32c25 0 53 -11 53 -51c0 -22 -2 -31 -5 -43c-4 -18 -12 -26 -20 -37c-10 -12 -22 -17 -36 -17c-38 0 -46 38 -46 74zM546 839c0 -50 -16 -96 -62 -96c-39 0 -45 39 -45 74v11c0 1 -1 2 -1 2c0 36 24 62 55 62
c25 0 53 -13 53 -53zM160 324c0 -9 0 -18 1 -26c9 -70 34 -118 89 -162c45 -35 102 -60 142 -61c17 0 39 -4 56 -4c16 0 32 3 55 14c79 33 144 122 162 217c3 17 5 40 5 63c0 22 -2 42 -5 55c-22 98 -110 201 -245 201c-2 2 -5 2 -7 0c-80 -8 -165 -61 -211 -140
c-26 -48 -42 -96 -42 -157zM377 707c16 2 33 4 52 4c182 0 297 -112 335 -226c12 -33 17 -73 17 -113c0 -47 -8 -94 -22 -136c-31 -89 -115 -187 -212 -222c-41 -15 -68 -18 -122 -18c-68 0 -115 9 -171 32c-94 39 -160 112 -188 193c-12 37 -16 61 -16 103
c0 200 145 359 327 383z" />
    <glyph glyph-name="multiply" unicode="&#xd7;" horiz-adv-x="501" 
d="M56 511c0 26 21 47 47 47c14 0 26 -6 35 -16l14 -16c38 -43 70 -74 105 -111c4 5 9 9 13 14c20 22 41 46 87 89l18 17c7 7 18 11 29 11c23 0 41 -19 41 -42c0 -12 -5 -22 -13 -30c-65 -62 -73 -76 -117 -122c42 -49 63 -81 112 -134c8 -8 12 -20 12 -32
c0 -26 -21 -47 -47 -47c-14 0 -25 7 -34 16l-15 15c-42 46 -63 76 -94 114c-35 -38 -51 -60 -93 -109l-17 -18c-8 -9 -19 -15 -32 -15c-24 0 -43 19 -43 43c0 11 4 20 10 28c50 58 65 79 119 135c-42 45 -80 82 -125 132c-7 8 -12 19 -12 31z" />
    <glyph glyph-name="Oslash" unicode="&#xd8;" horiz-adv-x="859" 
d="M138 114c-49 53 -80 117 -80 210c0 200 145 359 327 383c16 2 33 4 52 4c94 0 171 -30 228 -75c30 32 51 54 56 59c8 8 19 13 31 13c23 0 42 -19 42 -42c0 -11 -5 -22 -12 -30c0 0 -23 -25 -57 -62c40 -54 64 -114 64 -202c0 -47 -8 -94 -22 -136
c-31 -89 -115 -187 -212 -222c-41 -15 -68 -18 -122 -18c-93 0 -169 23 -230 63c-13 -12 -49 -46 -53 -52l-13 -19c-8 -12 -22 -20 -37 -20c-24 0 -44 21 -44 45c0 19 11 31 21 41l27 27c11 10 22 22 34 33zM168 324c0 -61 17 -105 45 -142c71 64 145 129 185 172
c50 54 127 136 193 205c-41 37 -97 62 -163 62c-2 2 -5 2 -7 0c-80 -8 -165 -61 -211 -140c-26 -48 -42 -96 -42 -157zM646 490c-63 -68 -133 -143 -171 -185c-46 -50 -126 -117 -200 -181c42 -29 90 -48 125 -49c17 0 39 -4 56 -4c16 0 32 3 55 14c79 33 144 122 162 217
c3 17 5 40 5 63c0 57 -10 86 -32 125z" />
    <glyph glyph-name="Ugrave" unicode="&#xd9;" horiz-adv-x="796" 
d="M303 819c0 25 33 37 55 37c18 0 33 -10 44 -19c9 -8 27 -20 35 -28c42 -33 51 -44 57 -53c2 -4 4 -9 4 -16c0 -23 -28 -26 -41 -26c-8 0 -17 2 -24 4c-25 7 -44 19 -73 39c-36 25 -51 39 -56 53c-1 2 -2 5 -2 6s1 1 1 3zM724 360c0 -153 -39 -249 -137 -309
c-48 -28 -120 -41 -179 -41c-91 0 -178 19 -243 81c-70 66 -99 151 -99 283v244c0 42 1 48 7 55c10 13 32 21 52 21c18 0 33 -6 44 -19l7 -11v-146c0 -64 -1 -91 -1 -152c0 -92 27 -160 63 -201c40 -45 104 -70 175 -70c138 0 201 114 201 265c0 33 2 71 2 104
c0 16 -1 31 -2 42c-4 41 -5 75 -5 104v28c0 41 12 59 51 59c38 0 62 -26 64 -60c1 -28 2 -52 2 -75c0 -32 -1 -61 -1 -94c0 -36 -1 -71 -1 -108z" />
    <glyph glyph-name="Uacute" unicode="&#xda;" horiz-adv-x="796" 
d="M472 814v-5c0 -2 0 -5 -2 -8c-7 -13 -20 -22 -48 -38s-18 -10 -46 -26c-34 -20 -48 -28 -65 -28h-3c-24 0 -44 17 -44 38c0 6 2 11 6 17c10 15 16 21 73 58c45 29 56 36 72 36c22 0 57 -15 57 -44zM724 360c0 -153 -39 -249 -137 -309c-48 -28 -120 -41 -179 -41
c-91 0 -178 19 -243 81c-70 66 -99 151 -99 283v244c0 42 1 48 7 55c10 13 32 21 52 21c18 0 33 -6 44 -19l7 -11v-146c0 -64 -1 -91 -1 -152c0 -92 27 -160 63 -201c40 -45 104 -70 175 -70c138 0 201 114 201 265c0 33 2 71 2 104c0 16 -1 31 -2 42c-4 41 -5 75 -5 104v28
c0 41 12 59 51 59c38 0 62 -26 64 -60c1 -28 2 -52 2 -75c0 -32 -1 -61 -1 -94c0 -36 -1 -71 -1 -108z" />
    <glyph glyph-name="Ucircumflex" unicode="&#xdb;" horiz-adv-x="796" 
d="M517 753c0 -29 -33 -33 -47 -33c-26 0 -34 11 -45 27l-35 47c-14 -18 -43 -59 -53 -67c-12 -10 -27 -15 -41 -15c-8 0 -40 2 -40 30c0 14 8 25 24 46c19 25 50 69 64 83c15 15 26 20 49 20h3c19 0 32 -7 42 -20c11 -13 56 -78 67 -94c4 -8 12 -12 12 -24zM724 360
c0 -153 -39 -249 -137 -309c-48 -28 -120 -41 -179 -41c-91 0 -178 19 -243 81c-70 66 -99 151 -99 283v244c0 42 1 48 7 55c10 13 32 21 52 21c18 0 33 -6 44 -19l7 -11v-146c0 -64 -1 -91 -1 -152c0 -92 27 -160 63 -201c40 -45 104 -70 175 -70c138 0 201 114 201 265
c0 33 2 71 2 104c0 16 -1 31 -2 42c-4 41 -5 75 -5 104v28c0 41 12 59 51 59c38 0 62 -26 64 -60c1 -28 2 -52 2 -75c0 -32 -1 -61 -1 -94c0 -36 -1 -71 -1 -108z" />
    <glyph glyph-name="Udieresis" unicode="&#xdc;" horiz-adv-x="796" 
d="M237 780v11c0 1 -1 2 -1 2c0 13 0 19 5 29c8 19 30 32 50 32c25 0 53 -11 53 -51c0 -22 -2 -31 -5 -43c-4 -18 -12 -26 -20 -37c-10 -12 -22 -17 -36 -17c-38 0 -46 38 -46 74zM518 808c0 -50 -16 -96 -62 -96c-39 0 -45 39 -45 74v11c0 1 -1 2 -1 2c0 36 24 62 55 62
c25 0 53 -13 53 -53zM724 360c0 -153 -39 -249 -137 -309c-48 -28 -120 -41 -179 -41c-91 0 -178 19 -243 81c-70 66 -99 151 -99 283v244c0 42 1 48 7 55c10 13 32 21 52 21c18 0 33 -6 44 -19l7 -11v-146c0 -64 -1 -91 -1 -152c0 -92 27 -160 63 -201
c40 -45 104 -70 175 -70c138 0 201 114 201 265c0 33 2 71 2 104c0 16 -1 31 -2 42c-4 41 -5 75 -5 104v28c0 41 12 59 51 59c38 0 62 -26 64 -60c1 -28 2 -52 2 -75c0 -32 -1 -61 -1 -94c0 -36 -1 -71 -1 -108z" />
    <glyph glyph-name="Yacute" unicode="&#xdd;" horiz-adv-x="680" 
d="M450 818v-5c0 -2 0 -5 -2 -8c-7 -13 -20 -22 -48 -38s-18 -10 -46 -26c-34 -20 -48 -28 -65 -28h-3c-24 0 -44 17 -44 38c0 6 2 11 6 17c10 15 16 21 73 58c45 29 56 36 72 36c22 0 57 -15 57 -44zM117 698c16 0 29 -5 38 -15c10 -11 43 -67 54 -87
c32 -58 72 -118 112 -194c79 104 95 126 159 212l24 33c18 27 32 59 75 59c21 0 50 -10 50 -36c0 -12 -6 -20 -18 -37c-11 -15 -17 -26 -28 -44c-72 -118 -141 -217 -236 -338c-89 -113 -141 -176 -180 -215c-30 -30 -49 -44 -63 -47c-4 -1 -5 -1 -8 -1h-2
c-15 0 -39 8 -39 30c0 18 8 34 33 74c29 49 105 140 138 190c5 6 8 14 13 20l-3 9c-59 105 -113 206 -167 322c-4 9 -9 18 -9 26c0 28 35 39 57 39z" />
    <glyph glyph-name="germandbls" unicode="&#xdf;" horiz-adv-x="666" 
d="M282 59h61c79 0 137 38 154 100c2 6 3 13 3 21c0 22 -12 45 -25 61c-18 21 -45 35 -80 47c-30 10 -60 18 -95 21c-21 2 -41 22 -41 45c0 25 23 27 51 32c59 10 100 25 156 59c21 13 44 38 44 69c0 20 -10 34 -20 45c-22 23 -71 45 -109 55c-19 5 -38 8 -61 8
c-64 0 -113 -29 -135 -74c-14 -29 -17 -70 -17 -113c0 -37 2 -75 2 -113c0 -43 -2 -85 -2 -128c0 -11 1 -21 1 -32c0 -90 -4 -149 -24 -224c-6 -21 -25 -37 -48 -37c-28 0 -50 22 -50 50c0 4 1 9 2 13c19 71 21 123 21 208v31c0 43 1 85 1 128c0 38 -2 75 -2 113
c0 39 1 70 10 105c25 95 113 154 230 154c67 0 120 -18 167 -39c56 -25 133 -73 133 -159c0 -59 -38 -96 -71 -122c-19 -15 -39 -27 -61 -38c31 -15 70 -35 94 -64c26 -32 32 -70 32 -109c0 -14 -2 -28 -5 -39c-22 -80 -105 -137 -191 -148c-18 -2 -35 -4 -53 -4h-15
c-44 0 -97 2 -97 45c0 22 18 33 40 33z" />
    <glyph glyph-name="agrave" unicode="&#xe0;" 
d="M228 841c0 25 33 37 55 37c18 0 33 -10 44 -19c9 -8 27 -20 35 -28c42 -33 51 -44 57 -53c2 -4 4 -9 4 -16c0 -23 -28 -26 -41 -26c-8 0 -17 2 -24 4c-25 7 -44 19 -73 39c-36 25 -51 39 -56 53c-1 2 -2 5 -2 6s1 1 1 3zM554 -3h-2c-12 9 -24 7 -32 23
c-6 11 -39 91 -54 127c-65 -6 -239 -12 -288 -19c-2 0 -5 -1 -6 -1h-1c-6 -16 -13 -35 -19 -51c-22 -60 -31 -84 -62 -84c-17 0 -41 5 -41 29c0 17 10 55 43 174c40 145 83 316 128 441c17 45 23 54 43 63c5 3 17 4 22 4c1 -2 1 -2 2 0c21 0 43 -7 57 -12
c17 -7 26 -19 39 -53c6 -17 27 -71 47 -115c77 -190 105 -271 135 -362c21 -65 34 -110 34 -128c0 -24 -19 -36 -45 -36zM431 219c-42 107 -87 226 -127 326c-28 -85 -79 -247 -104 -338c59 3 114 9 175 10z" />
    <glyph glyph-name="aacute" unicode="&#xe1;" 
d="M397 836v-5c0 -2 0 -5 -2 -8c-7 -13 -20 -22 -48 -38s-18 -10 -46 -26c-34 -20 -48 -28 -65 -28h-3c-24 0 -44 17 -44 38c0 6 2 11 6 17c10 15 16 21 73 58c45 29 56 36 72 36c22 0 57 -15 57 -44zM554 -3h-2c-12 9 -24 7 -32 23c-6 11 -39 91 -54 127
c-65 -6 -239 -12 -288 -19c-2 0 -5 -1 -6 -1h-1c-6 -16 -13 -35 -19 -51c-22 -60 -31 -84 -62 -84c-17 0 -41 5 -41 29c0 17 10 55 43 174c40 145 83 316 128 441c17 45 23 54 43 63c5 3 17 4 22 4c1 -2 1 -2 2 0c21 0 43 -7 57 -12c17 -7 26 -19 39 -53
c6 -17 27 -71 47 -115c77 -190 105 -271 135 -362c21 -65 34 -110 34 -128c0 -24 -19 -36 -45 -36zM431 219c-42 107 -87 226 -127 326c-28 -85 -79 -247 -104 -338c59 3 114 9 175 10z" />
    <glyph glyph-name="acircumflex" unicode="&#xe2;" 
d="M442 775c0 -29 -33 -33 -47 -33c-26 0 -34 11 -45 27l-35 47c-14 -18 -43 -59 -53 -67c-12 -10 -27 -15 -41 -15c-8 0 -40 2 -40 30c0 14 8 25 24 46c19 25 50 69 64 83c15 15 26 20 49 20h3c19 0 32 -7 42 -20c11 -13 56 -78 67 -94c4 -8 12 -12 12 -24zM554 -3h-2
c-12 9 -24 7 -32 23c-6 11 -39 91 -54 127c-65 -6 -239 -12 -288 -19c-2 0 -5 -1 -6 -1h-1c-6 -16 -13 -35 -19 -51c-22 -60 -31 -84 -62 -84c-17 0 -41 5 -41 29c0 17 10 55 43 174c40 145 83 316 128 441c17 45 23 54 43 63c5 3 17 4 22 4c1 -2 1 -2 2 0
c21 0 43 -7 57 -12c17 -7 26 -19 39 -53c6 -17 27 -71 47 -115c77 -190 105 -271 135 -362c21 -65 34 -110 34 -128c0 -24 -19 -36 -45 -36zM431 219c-42 107 -87 226 -127 326c-28 -85 -79 -247 -104 -338c59 3 114 9 175 10z" />
    <glyph glyph-name="atilde" unicode="&#xe3;" 
d="M281 822c-13 -11 -29 -28 -40 -40c-6 -13 -22 -22 -37 -22s-37 11 -37 31c0 10 7 20 13 29c19 30 51 69 105 69c43 0 59 -26 77 -50c16 20 26 49 59 49c16 0 40 -8 40 -31c0 -16 -13 -31 -21 -42c-22 -31 -39 -51 -79 -51c-44 0 -59 29 -80 58zM554 -3h-2
c-12 9 -24 7 -32 23c-6 11 -39 91 -54 127c-65 -6 -239 -12 -288 -19c-2 0 -5 -1 -6 -1h-1c-6 -16 -13 -35 -19 -51c-22 -60 -31 -84 -62 -84c-17 0 -41 5 -41 29c0 17 10 55 43 174c40 145 83 316 128 441c17 45 23 54 43 63c5 3 17 4 22 4c1 -2 1 -2 2 0
c21 0 43 -7 57 -12c17 -7 26 -19 39 -53c6 -17 27 -71 47 -115c77 -190 105 -271 135 -362c21 -65 34 -110 34 -128c0 -24 -19 -36 -45 -36zM431 219c-42 107 -87 226 -127 326c-28 -85 -79 -247 -104 -338c59 3 114 9 175 10z" />
    <glyph glyph-name="adieresis" unicode="&#xe4;" 
d="M162 802v11c0 1 -1 2 -1 2c0 13 0 19 5 29c8 19 30 32 50 32c25 0 53 -11 53 -51c0 -22 -2 -31 -5 -43c-4 -18 -12 -26 -20 -37c-10 -12 -22 -17 -36 -17c-38 0 -46 38 -46 74zM443 830c0 -50 -16 -96 -62 -96c-39 0 -45 39 -45 74v11c0 1 -1 2 -1 2c0 36 24 62 55 62
c25 0 53 -13 53 -53zM554 -3h-2c-12 9 -24 7 -32 23c-6 11 -39 91 -54 127c-65 -6 -239 -12 -288 -19c-2 0 -5 -1 -6 -1h-1c-6 -16 -13 -35 -19 -51c-22 -60 -31 -84 -62 -84c-17 0 -41 5 -41 29c0 17 10 55 43 174c40 145 83 316 128 441c17 45 23 54 43 63c5 3 17 4 22 4
c1 -2 1 -2 2 0c21 0 43 -7 57 -12c17 -7 26 -19 39 -53c6 -17 27 -71 47 -115c77 -190 105 -271 135 -362c21 -65 34 -110 34 -128c0 -24 -19 -36 -45 -36zM431 219c-42 107 -87 226 -127 326c-28 -85 -79 -247 -104 -338c59 3 114 9 175 10z" />
    <glyph glyph-name="aring" unicode="&#xe5;" 
d="M304 722c-69 0 -98 48 -98 94c0 53 34 89 95 97c3 1 9 2 11 2v-1h2c55 0 101 -46 101 -89c0 -69 -42 -103 -111 -103zM309 789c23 0 35 5 35 29c0 9 -14 24 -31 24c-25 0 -33 -13 -33 -28c0 -13 6 -25 29 -25zM554 -3h-2c-12 9 -24 7 -32 23c-6 11 -39 91 -54 127
c-65 -6 -239 -12 -288 -19c-2 0 -5 -1 -6 -1h-1c-6 -16 -13 -35 -19 -51c-22 -60 -31 -84 -62 -84c-17 0 -41 5 -41 29c0 17 10 55 43 174c40 145 83 316 128 441c17 45 23 54 43 63c5 3 17 4 22 4c1 -2 1 -2 2 0c21 0 43 -7 57 -12c17 -7 26 -19 39 -53
c6 -17 27 -71 47 -115c77 -190 105 -271 135 -362c21 -65 34 -110 34 -128c0 -24 -19 -36 -45 -36zM431 219c-42 107 -87 226 -127 326c-28 -85 -79 -247 -104 -338c59 3 114 9 175 10z" />
    <glyph glyph-name="ae" unicode="&#xe6;" horiz-adv-x="1109" 
d="M669 706c56 0 84 4 159 4h10c74 0 104 -2 128 -4c46 -5 63 -17 75 -28c6 -6 10 -13 10 -21c0 -7 -3 -12 -8 -18c-12 -14 -16 -14 -107 -14c-140 0 -208 -6 -296 -16h-7v-11c-2 -45 -4 -149 -4 -202c0 -10 1 -18 1 -25h2c11 0 17 -1 29 -1c56 0 164 4 220 4
c43 0 73 -1 92 -2c27 -2 45 -9 45 -30c0 -12 -10 -29 -23 -36c-26 -14 -115 -18 -288 -21l-79 -3v-18c0 -57 -7 -134 -12 -185c53 -2 380 -6 398 -9c20 -4 29 -15 29 -27c0 -10 -8 -21 -21 -28c-29 -14 -139 -21 -268 -21h-66c-20 0 -42 -1 -64 -1c-50 0 -97 4 -99 27
c-2 11 -4 27 -4 39c-1 32 -1 63 -1 96v5c-69 -6 -221 -14 -272 -21c-2 0 -3 -1 -4 -1h-4c-12 -16 -33 -46 -45 -62c-46 -60 -64 -84 -95 -84c-15 0 -54 4 -54 23c0 2 0 4 1 6c7 17 32 55 112 174c98 145 208 316 303 441c35 45 44 54 68 63c6 3 19 4 24 4v-1c1 0 1 0 2 1h4
c22 3 46 3 70 3h39zM525 346c1 59 2 134 3 190c-63 -86 -167 -227 -224 -312c60 3 95 6 156 7l59 5c0 37 3 74 6 110z" />
    <glyph glyph-name="ccedilla" unicode="&#xe7;" horiz-adv-x="737" 
d="M406 -15c49 -2 86 -23 86 -74c0 -63 -61 -95 -105 -103c-13 -3 -27 -4 -40 -4h-5c-24 0 -54 1 -54 31c0 20 17 39 37 39c10 0 20 -4 30 -4c21 0 71 6 71 32c0 20 -31 17 -52 19c-32 3 -66 22 -66 63c0 29 14 40 21 62c5 15 20 28 36 28c17 0 29 -13 29 -29
c0 -15 -9 -27 -14 -39c-1 -3 -6 -10 -6 -13c0 -7 26 -8 32 -8zM684 208c0 -10 -8 -21 -17 -35c-46 -66 -126 -125 -202 -148c-37 -11 -58 -15 -101 -15c-46 0 -65 3 -99 13c-85 26 -146 78 -182 151c-24 50 -33 83 -33 145c0 23 1 50 3 60c10 67 40 132 86 188
c63 74 182 136 317 136c83 0 148 -33 189 -79c15 -16 26 -33 26 -48c0 -28 -28 -45 -57 -45c-22 0 -38 12 -48 32c-5 12 -38 39 -59 48c-19 8 -37 11 -59 11c-24 0 -49 -4 -82 -14c-71 -21 -124 -63 -161 -122c-36 -55 -47 -95 -47 -163c0 -89 37 -162 99 -198
c37 -22 76 -34 113 -34c25 0 49 3 72 14c43 19 80 45 133 92c18 17 34 30 41 34c8 5 16 6 24 6c17 0 44 -6 44 -29z" />
    <glyph glyph-name="egrave" unicode="&#xe8;" horiz-adv-x="668" 
d="M268 859c0 25 33 37 55 37c18 0 33 -10 44 -19c9 -8 27 -20 35 -28c42 -33 51 -44 57 -53c2 -4 4 -9 4 -16c0 -23 -28 -26 -41 -26c-8 0 -17 2 -24 4c-25 7 -44 19 -73 39c-36 25 -51 39 -56 53c-1 2 -2 5 -2 6s1 1 1 3zM191 611v-11c-2 -45 -4 -149 -4 -202
c0 -10 1 -18 1 -25h2c11 0 17 -1 29 -1c56 0 164 4 220 4c43 0 73 -1 92 -2c27 -2 45 -9 45 -30c0 -12 -10 -29 -23 -36c-26 -14 -115 -18 -288 -21l-79 -3v-18c0 -57 -7 -134 -12 -185c53 -2 380 -6 398 -9c20 -4 29 -15 29 -27c0 -10 -8 -21 -21 -28
c-29 -14 -139 -21 -268 -21h-54c-61 1 -101 3 -127 5c-20 1 -28 3 -36 8c-18 13 -23 30 -23 52c-1 32 -1 63 -1 96c0 23 1 48 2 81c4 81 5 292 9 372c-8 6 -17 18 -17 31c0 36 53 49 87 51c36 2 90 9 127 12c13 1 46 1 84 1h10c74 0 123 -2 147 -4c46 -5 67 -10 79 -21
c6 -6 10 -13 10 -21c0 -7 -3 -12 -8 -18c-12 -14 -16 -14 -107 -14c-140 0 -208 -6 -296 -16h-7z" />
    <glyph glyph-name="eacute" unicode="&#xe9;" horiz-adv-x="668" 
d="M437 854v-5c0 -2 0 -5 -2 -8c-7 -13 -20 -22 -48 -38s-18 -10 -46 -26c-34 -20 -48 -28 -65 -28h-3c-24 0 -44 17 -44 38c0 6 2 11 6 17c10 15 16 21 73 58c45 29 56 36 72 36c22 0 57 -15 57 -44zM191 611v-11c-2 -45 -4 -149 -4 -202c0 -10 1 -18 1 -25h2
c11 0 17 -1 29 -1c56 0 164 4 220 4c43 0 73 -1 92 -2c27 -2 45 -9 45 -30c0 -12 -10 -29 -23 -36c-26 -14 -115 -18 -288 -21l-79 -3v-18c0 -57 -7 -134 -12 -185c53 -2 380 -6 398 -9c20 -4 29 -15 29 -27c0 -10 -8 -21 -21 -28c-29 -14 -139 -21 -268 -21h-54
c-61 1 -101 3 -127 5c-20 1 -28 3 -36 8c-18 13 -23 30 -23 52c-1 32 -1 63 -1 96c0 23 1 48 2 81c4 81 5 292 9 372c-8 6 -17 18 -17 31c0 36 53 49 87 51c36 2 90 9 127 12c13 1 46 1 84 1h10c74 0 123 -2 147 -4c46 -5 67 -10 79 -21c6 -6 10 -13 10 -21
c0 -7 -3 -12 -8 -18c-12 -14 -16 -14 -107 -14c-140 0 -208 -6 -296 -16h-7z" />
    <glyph glyph-name="ecircumflex" unicode="&#xea;" horiz-adv-x="668" 
d="M482 793c0 -29 -33 -33 -47 -33c-26 0 -34 11 -45 27l-35 47c-14 -18 -43 -59 -53 -67c-12 -10 -27 -15 -41 -15c-8 0 -40 2 -40 30c0 14 8 25 24 46c19 25 50 69 64 83c15 15 26 20 49 20h3c19 0 32 -7 42 -20c11 -13 56 -78 67 -94c4 -8 12 -12 12 -24zM191 611v-11
c-2 -45 -4 -149 -4 -202c0 -10 1 -18 1 -25h2c11 0 17 -1 29 -1c56 0 164 4 220 4c43 0 73 -1 92 -2c27 -2 45 -9 45 -30c0 -12 -10 -29 -23 -36c-26 -14 -115 -18 -288 -21l-79 -3v-18c0 -57 -7 -134 -12 -185c53 -2 380 -6 398 -9c20 -4 29 -15 29 -27
c0 -10 -8 -21 -21 -28c-29 -14 -139 -21 -268 -21h-54c-61 1 -101 3 -127 5c-20 1 -28 3 -36 8c-18 13 -23 30 -23 52c-1 32 -1 63 -1 96c0 23 1 48 2 81c4 81 5 292 9 372c-8 6 -17 18 -17 31c0 36 53 49 87 51c36 2 90 9 127 12c13 1 46 1 84 1h10c74 0 123 -2 147 -4
c46 -5 67 -10 79 -21c6 -6 10 -13 10 -21c0 -7 -3 -12 -8 -18c-12 -14 -16 -14 -107 -14c-140 0 -208 -6 -296 -16h-7z" />
    <glyph glyph-name="edieresis" unicode="&#xeb;" horiz-adv-x="668" 
d="M202 820v11c0 1 -1 2 -1 2c0 13 0 19 5 29c8 19 30 32 50 32c25 0 53 -11 53 -51c0 -22 -2 -31 -5 -43c-4 -18 -12 -26 -20 -37c-10 -12 -22 -17 -36 -17c-38 0 -46 38 -46 74zM483 848c0 -50 -16 -96 -62 -96c-39 0 -45 39 -45 74v11c0 1 -1 2 -1 2c0 36 24 62 55 62
c25 0 53 -13 53 -53zM191 611v-11c-2 -45 -4 -149 -4 -202c0 -10 1 -18 1 -25h2c11 0 17 -1 29 -1c56 0 164 4 220 4c43 0 73 -1 92 -2c27 -2 45 -9 45 -30c0 -12 -10 -29 -23 -36c-26 -14 -115 -18 -288 -21l-79 -3v-18c0 -57 -7 -134 -12 -185c53 -2 380 -6 398 -9
c20 -4 29 -15 29 -27c0 -10 -8 -21 -21 -28c-29 -14 -139 -21 -268 -21h-54c-61 1 -101 3 -127 5c-20 1 -28 3 -36 8c-18 13 -23 30 -23 52c-1 32 -1 63 -1 96c0 23 1 48 2 81c4 81 5 292 9 372c-8 6 -17 18 -17 31c0 36 53 49 87 51c36 2 90 9 127 12c13 1 46 1 84 1h10
c74 0 123 -2 147 -4c46 -5 67 -10 79 -21c6 -6 10 -13 10 -21c0 -7 -3 -12 -8 -18c-12 -14 -16 -14 -107 -14c-140 0 -208 -6 -296 -16h-7z" />
    <glyph glyph-name="igrave" unicode="&#xec;" horiz-adv-x="271" 
d="M61 877c0 25 33 37 55 37c18 0 33 -10 44 -19c9 -8 27 -20 35 -28c42 -33 51 -44 57 -53c2 -4 4 -9 4 -16c0 -23 -28 -26 -41 -26c-8 0 -17 2 -24 4c-25 7 -44 19 -73 39c-36 25 -51 39 -56 53c-1 2 -2 5 -2 6s1 1 1 3zM185 86c-1 -38 -11 -78 -58 -78
c-28 0 -40 19 -43 47c-8 71 -11 163 -11 247c0 60 1 121 4 181l4 76c5 92 7 98 13 111c9 17 30 28 54 28c15 0 35 -6 43 -15c8 -6 8 -15 8 -30c0 -49 -3 -108 -6 -156c-2 -81 -5 -210 -5 -212c0 -12 1 -24 1 -37c0 -52 -2 -115 -4 -162z" />
    <glyph glyph-name="iacute" unicode="&#xed;" horiz-adv-x="271" 
d="M230 872v-5c0 -2 0 -5 -2 -8c-7 -13 -20 -22 -48 -38s-18 -10 -46 -26c-34 -20 -48 -28 -65 -28h-3c-24 0 -44 17 -44 38c0 6 2 11 6 17c10 15 16 21 73 58c45 29 56 36 72 36c22 0 57 -15 57 -44zM185 86c-1 -38 -11 -78 -58 -78c-28 0 -40 19 -43 47
c-8 71 -11 163 -11 247c0 60 1 121 4 181l4 76c5 92 7 98 13 111c9 17 30 28 54 28c15 0 35 -6 43 -15c8 -6 8 -15 8 -30c0 -49 -3 -108 -6 -156c-2 -81 -5 -210 -5 -212c0 -12 1 -24 1 -37c0 -52 -2 -115 -4 -162z" />
    <glyph glyph-name="icircumflex" unicode="&#xee;" horiz-adv-x="271" 
d="M275 811c0 -29 -33 -33 -47 -33c-26 0 -34 11 -45 27l-35 47c-14 -18 -43 -59 -53 -67c-12 -10 -27 -15 -41 -15c-8 0 -40 2 -40 30c0 14 8 25 24 46c19 25 50 69 64 83c15 15 26 20 49 20h3c19 0 32 -7 42 -20c11 -13 56 -78 67 -94c4 -8 12 -12 12 -24zM185 86
c-1 -38 -11 -78 -58 -78c-28 0 -40 19 -43 47c-8 71 -11 163 -11 247c0 60 1 121 4 181l4 76c5 92 7 98 13 111c9 17 30 28 54 28c15 0 35 -6 43 -15c8 -6 8 -15 8 -30c0 -49 -3 -108 -6 -156c-2 -81 -5 -210 -5 -212c0 -12 1 -24 1 -37c0 -52 -2 -115 -4 -162z" />
    <glyph glyph-name="idieresis" unicode="&#xef;" horiz-adv-x="271" 
d="M-5 838v11c0 1 -1 2 -1 2c0 13 0 19 5 29c8 19 30 32 50 32c25 0 53 -11 53 -51c0 -22 -2 -31 -5 -43c-4 -18 -12 -26 -20 -37c-10 -12 -22 -17 -36 -17c-38 0 -46 38 -46 74zM276 866c0 -50 -16 -96 -62 -96c-39 0 -45 39 -45 74v11c0 1 -1 2 -1 2c0 36 24 62 55 62
c25 0 53 -13 53 -53zM185 86c-1 -38 -11 -78 -58 -78c-28 0 -40 19 -43 47c-8 71 -11 163 -11 247c0 60 1 121 4 181l4 76c5 92 7 98 13 111c9 17 30 28 54 28c15 0 35 -6 43 -15c8 -6 8 -15 8 -30c0 -49 -3 -108 -6 -156c-2 -81 -5 -210 -5 -212c0 -12 1 -24 1 -37
c0 -52 -2 -115 -4 -162z" />
    <glyph glyph-name="eth" unicode="&#xf0;" horiz-adv-x="837" 
d="M286 579l-9 -6c-1 0 -1 -1 -1 -2c0 -34 -1 -98 -3 -170c49 0 84 -3 136 -3c21 0 38 -22 38 -43s-17 -38 -38 -38h-10c-50 0 -85 2 -128 3c-3 -111 -7 -213 -11 -248c0 0 9 3 14 4c113 16 231 57 299 121c57 52 86 129 86 193c0 40 -10 75 -31 107c-35 50 -95 90 -167 109
c-20 6 -39 9 -58 9c-46 0 -86 -16 -117 -36zM165 584v16c0 37 18 55 52 57c11 1 17 3 30 9c45 22 89 34 155 34c27 0 55 -1 73 -4c115 -21 211 -84 259 -170c26 -46 35 -81 35 -145c0 -108 -69 -204 -140 -259c-101 -76 -231 -118 -354 -123c-28 -1 -34 -1 -45 -6
c-7 -3 -21 -7 -22 -7c-46 0 -46 38 -46 80c0 33 -1 68 -1 92v158c-26 -2 -46 -4 -82 -7h-2c-21 0 -38 17 -38 38c0 20 15 41 35 42c37 3 59 6 86 8v10c0 80 5 115 5 177z" />
    <glyph glyph-name="ntilde" unicode="&#xf1;" horiz-adv-x="763" 
d="M347 820c-13 -11 -29 -28 -40 -40c-6 -13 -22 -22 -37 -22s-37 11 -37 31c0 10 7 20 13 29c19 30 51 69 105 69c43 0 59 -26 77 -50c16 20 26 49 59 49c16 0 40 -8 40 -31c0 -16 -13 -31 -21 -42c-22 -31 -39 -51 -79 -51c-44 0 -59 29 -80 58zM688 474
c-4 -120 -5 -276 -9 -396v-5c0 -47 -18 -80 -57 -80c-10 0 -17 3 -26 7c-11 6 -15 10 -59 72c-112 159 -232 315 -349 471v-29c0 -91 -2 -251 -2 -342c0 -39 2 -60 2 -98v-8c0 -40 -8 -74 -51 -74c-69 0 -70 68 -70 147v7c0 86 4 200 4 287v26c0 69 1 139 8 192
c4 34 23 49 60 49c4 0 6 -1 10 -1c3 0 3 -1 5 -1c33 -2 40 -7 141 -135c141 -179 217 -288 274 -368v24l6 193c1 23 1 45 1 65c0 30 -1 58 -1 86c0 18 1 33 2 46c5 50 6 58 13 68c10 16 31 23 51 23c24 0 41 -14 52 -30c-3 -32 -7 -62 -7 -97c0 -29 2 -59 2 -87v-12z" />
    <glyph glyph-name="ograve" unicode="&#xf2;" horiz-adv-x="844" 
d="M331 850c0 25 33 37 55 37c18 0 33 -10 44 -19c9 -8 27 -20 35 -28c42 -33 51 -44 57 -53c2 -4 4 -9 4 -16c0 -23 -28 -26 -41 -26c-8 0 -17 2 -24 4c-25 7 -44 19 -73 39c-36 25 -51 39 -56 53c-1 2 -2 5 -2 6s1 1 1 3zM160 324c0 -9 0 -18 1 -26c9 -70 34 -118 89 -162
c45 -35 102 -60 142 -61c17 0 39 -4 56 -4c16 0 32 3 55 14c79 33 144 122 162 217c3 17 5 40 5 63c0 22 -2 42 -5 55c-22 98 -110 201 -245 201c-2 2 -5 2 -7 0c-80 -8 -165 -61 -211 -140c-26 -48 -42 -96 -42 -157zM377 707c16 2 33 4 52 4c182 0 297 -112 335 -226
c12 -33 17 -73 17 -113c0 -47 -8 -94 -22 -136c-31 -89 -115 -187 -212 -222c-41 -15 -68 -18 -122 -18c-68 0 -115 9 -171 32c-94 39 -160 112 -188 193c-12 37 -16 61 -16 103c0 200 145 359 327 383z" />
    <glyph glyph-name="oacute" unicode="&#xf3;" horiz-adv-x="844" 
d="M500 845v-5c0 -2 0 -5 -2 -8c-7 -13 -20 -22 -48 -38s-18 -10 -46 -26c-34 -20 -48 -28 -65 -28h-3c-24 0 -44 17 -44 38c0 6 2 11 6 17c10 15 16 21 73 58c45 29 56 36 72 36c22 0 57 -15 57 -44zM160 324c0 -9 0 -18 1 -26c9 -70 34 -118 89 -162
c45 -35 102 -60 142 -61c17 0 39 -4 56 -4c16 0 32 3 55 14c79 33 144 122 162 217c3 17 5 40 5 63c0 22 -2 42 -5 55c-22 98 -110 201 -245 201c-2 2 -5 2 -7 0c-80 -8 -165 -61 -211 -140c-26 -48 -42 -96 -42 -157zM377 707c16 2 33 4 52 4c182 0 297 -112 335 -226
c12 -33 17 -73 17 -113c0 -47 -8 -94 -22 -136c-31 -89 -115 -187 -212 -222c-41 -15 -68 -18 -122 -18c-68 0 -115 9 -171 32c-94 39 -160 112 -188 193c-12 37 -16 61 -16 103c0 200 145 359 327 383z" />
    <glyph glyph-name="ocircumflex" unicode="&#xf4;" horiz-adv-x="844" 
d="M545 784c0 -29 -33 -33 -47 -33c-26 0 -34 11 -45 27l-35 47c-14 -18 -43 -59 -53 -67c-12 -10 -27 -15 -41 -15c-8 0 -40 2 -40 30c0 14 8 25 24 46c19 25 50 69 64 83c15 15 26 20 49 20h3c19 0 32 -7 42 -20c11 -13 56 -78 67 -94c4 -8 12 -12 12 -24zM160 324
c0 -9 0 -18 1 -26c9 -70 34 -118 89 -162c45 -35 102 -60 142 -61c17 0 39 -4 56 -4c16 0 32 3 55 14c79 33 144 122 162 217c3 17 5 40 5 63c0 22 -2 42 -5 55c-22 98 -110 201 -245 201c-2 2 -5 2 -7 0c-80 -8 -165 -61 -211 -140c-26 -48 -42 -96 -42 -157zM377 707
c16 2 33 4 52 4c182 0 297 -112 335 -226c12 -33 17 -73 17 -113c0 -47 -8 -94 -22 -136c-31 -89 -115 -187 -212 -222c-41 -15 -68 -18 -122 -18c-68 0 -115 9 -171 32c-94 39 -160 112 -188 193c-12 37 -16 61 -16 103c0 200 145 359 327 383z" />
    <glyph glyph-name="otilde" unicode="&#xf5;" horiz-adv-x="844" 
d="M384 831c-13 -11 -29 -28 -40 -40c-6 -13 -22 -22 -37 -22s-37 11 -37 31c0 10 7 20 13 29c19 30 51 69 105 69c43 0 59 -26 77 -50c16 20 26 49 59 49c16 0 40 -8 40 -31c0 -16 -13 -31 -21 -42c-22 -31 -39 -51 -79 -51c-44 0 -59 29 -80 58zM160 324c0 -9 0 -18 1 -26
c9 -70 34 -118 89 -162c45 -35 102 -60 142 -61c17 0 39 -4 56 -4c16 0 32 3 55 14c79 33 144 122 162 217c3 17 5 40 5 63c0 22 -2 42 -5 55c-22 98 -110 201 -245 201c-2 2 -5 2 -7 0c-80 -8 -165 -61 -211 -140c-26 -48 -42 -96 -42 -157zM377 707c16 2 33 4 52 4
c182 0 297 -112 335 -226c12 -33 17 -73 17 -113c0 -47 -8 -94 -22 -136c-31 -89 -115 -187 -212 -222c-41 -15 -68 -18 -122 -18c-68 0 -115 9 -171 32c-94 39 -160 112 -188 193c-12 37 -16 61 -16 103c0 200 145 359 327 383z" />
    <glyph glyph-name="odieresis" unicode="&#xf6;" horiz-adv-x="844" 
d="M265 811v11c0 1 -1 2 -1 2c0 13 0 19 5 29c8 19 30 32 50 32c25 0 53 -11 53 -51c0 -22 -2 -31 -5 -43c-4 -18 -12 -26 -20 -37c-10 -12 -22 -17 -36 -17c-38 0 -46 38 -46 74zM546 839c0 -50 -16 -96 -62 -96c-39 0 -45 39 -45 74v11c0 1 -1 2 -1 2c0 36 24 62 55 62
c25 0 53 -13 53 -53zM160 324c0 -9 0 -18 1 -26c9 -70 34 -118 89 -162c45 -35 102 -60 142 -61c17 0 39 -4 56 -4c16 0 32 3 55 14c79 33 144 122 162 217c3 17 5 40 5 63c0 22 -2 42 -5 55c-22 98 -110 201 -245 201c-2 2 -5 2 -7 0c-80 -8 -165 -61 -211 -140
c-26 -48 -42 -96 -42 -157zM377 707c16 2 33 4 52 4c182 0 297 -112 335 -226c12 -33 17 -73 17 -113c0 -47 -8 -94 -22 -136c-31 -89 -115 -187 -212 -222c-41 -15 -68 -18 -122 -18c-68 0 -115 9 -171 32c-94 39 -160 112 -188 193c-12 37 -16 61 -16 103
c0 200 145 359 327 383z" />
    <glyph glyph-name="divide" unicode="&#xf7;" horiz-adv-x="536" 
d="M327 182c0 -40 -22 -66 -65 -66h-7c-32 5 -48 29 -48 55v5c2 31 1 47 29 61c8 4 26 7 39 7c23 0 51 -17 52 -51v-11zM328 522c0 -41 -23 -66 -66 -66h-6c-32 5 -48 29 -48 55v5c2 31 0 47 28 61c8 4 27 7 40 7c23 0 51 -17 52 -51v-11zM432 306h-14c-60 0 -77 -1 -143 -1
c-38 0 -79 -1 -119 -1c-18 0 -36 0 -52 1c-31 1 -50 20 -50 44c0 21 30 39 61 41c106 6 114 6 171 6c73 0 75 -1 147 -1c22 0 48 -23 48 -45s-27 -44 -49 -44z" />
    <glyph glyph-name="oslash" unicode="&#xf8;" horiz-adv-x="859" 
d="M138 114c-49 53 -80 117 -80 210c0 200 145 359 327 383c16 2 33 4 52 4c94 0 171 -30 228 -75c30 32 51 54 56 59c8 8 19 13 31 13c23 0 42 -19 42 -42c0 -11 -5 -22 -12 -30c0 0 -23 -25 -57 -62c40 -54 64 -114 64 -202c0 -47 -8 -94 -22 -136
c-31 -89 -115 -187 -212 -222c-41 -15 -68 -18 -122 -18c-93 0 -169 23 -230 63c-13 -12 -49 -46 -53 -52l-13 -19c-8 -12 -22 -20 -37 -20c-24 0 -44 21 -44 45c0 19 11 31 21 41l27 27c11 10 22 22 34 33zM168 324c0 -61 17 -105 45 -142c71 64 145 129 185 172
c50 54 127 136 193 205c-41 37 -97 62 -163 62c-2 2 -5 2 -7 0c-80 -8 -165 -61 -211 -140c-26 -48 -42 -96 -42 -157zM646 490c-63 -68 -133 -143 -171 -185c-46 -50 -126 -117 -200 -181c42 -29 90 -48 125 -49c17 0 39 -4 56 -4c16 0 32 3 55 14c79 33 144 122 162 217
c3 17 5 40 5 63c0 57 -10 86 -32 125z" />
    <glyph glyph-name="ugrave" unicode="&#xf9;" horiz-adv-x="796" 
d="M303 819c0 25 33 37 55 37c18 0 33 -10 44 -19c9 -8 27 -20 35 -28c42 -33 51 -44 57 -53c2 -4 4 -9 4 -16c0 -23 -28 -26 -41 -26c-8 0 -17 2 -24 4c-25 7 -44 19 -73 39c-36 25 -51 39 -56 53c-1 2 -2 5 -2 6s1 1 1 3zM724 360c0 -153 -39 -249 -137 -309
c-48 -28 -120 -41 -179 -41c-91 0 -178 19 -243 81c-70 66 -99 151 -99 283v244c0 42 1 48 7 55c10 13 32 21 52 21c18 0 33 -6 44 -19l7 -11v-146c0 -64 -1 -91 -1 -152c0 -92 27 -160 63 -201c40 -45 104 -70 175 -70c138 0 201 114 201 265c0 33 2 71 2 104
c0 16 -1 31 -2 42c-4 41 -5 75 -5 104v28c0 41 12 59 51 59c38 0 62 -26 64 -60c1 -28 2 -52 2 -75c0 -32 -1 -61 -1 -94c0 -36 -1 -71 -1 -108z" />
    <glyph glyph-name="uacute" unicode="&#xfa;" horiz-adv-x="796" 
d="M472 814v-5c0 -2 0 -5 -2 -8c-7 -13 -20 -22 -48 -38s-18 -10 -46 -26c-34 -20 -48 -28 -65 -28h-3c-24 0 -44 17 -44 38c0 6 2 11 6 17c10 15 16 21 73 58c45 29 56 36 72 36c22 0 57 -15 57 -44zM724 360c0 -153 -39 -249 -137 -309c-48 -28 -120 -41 -179 -41
c-91 0 -178 19 -243 81c-70 66 -99 151 -99 283v244c0 42 1 48 7 55c10 13 32 21 52 21c18 0 33 -6 44 -19l7 -11v-146c0 -64 -1 -91 -1 -152c0 -92 27 -160 63 -201c40 -45 104 -70 175 -70c138 0 201 114 201 265c0 33 2 71 2 104c0 16 -1 31 -2 42c-4 41 -5 75 -5 104v28
c0 41 12 59 51 59c38 0 62 -26 64 -60c1 -28 2 -52 2 -75c0 -32 -1 -61 -1 -94c0 -36 -1 -71 -1 -108z" />
    <glyph glyph-name="ucircumflex" unicode="&#xfb;" horiz-adv-x="796" 
d="M517 753c0 -29 -33 -33 -47 -33c-26 0 -34 11 -45 27l-35 47c-14 -18 -43 -59 -53 -67c-12 -10 -27 -15 -41 -15c-8 0 -40 2 -40 30c0 14 8 25 24 46c19 25 50 69 64 83c15 15 26 20 49 20h3c19 0 32 -7 42 -20c11 -13 56 -78 67 -94c4 -8 12 -12 12 -24zM724 360
c0 -153 -39 -249 -137 -309c-48 -28 -120 -41 -179 -41c-91 0 -178 19 -243 81c-70 66 -99 151 -99 283v244c0 42 1 48 7 55c10 13 32 21 52 21c18 0 33 -6 44 -19l7 -11v-146c0 -64 -1 -91 -1 -152c0 -92 27 -160 63 -201c40 -45 104 -70 175 -70c138 0 201 114 201 265
c0 33 2 71 2 104c0 16 -1 31 -2 42c-4 41 -5 75 -5 104v28c0 41 12 59 51 59c38 0 62 -26 64 -60c1 -28 2 -52 2 -75c0 -32 -1 -61 -1 -94c0 -36 -1 -71 -1 -108z" />
    <glyph glyph-name="udieresis" unicode="&#xfc;" horiz-adv-x="796" 
d="M237 780v11c0 1 -1 2 -1 2c0 13 0 19 5 29c8 19 30 32 50 32c25 0 53 -11 53 -51c0 -22 -2 -31 -5 -43c-4 -18 -12 -26 -20 -37c-10 -12 -22 -17 -36 -17c-38 0 -46 38 -46 74zM518 808c0 -50 -16 -96 -62 -96c-39 0 -45 39 -45 74v11c0 1 -1 2 -1 2c0 36 24 62 55 62
c25 0 53 -13 53 -53zM724 360c0 -153 -39 -249 -137 -309c-48 -28 -120 -41 -179 -41c-91 0 -178 19 -243 81c-70 66 -99 151 -99 283v244c0 42 1 48 7 55c10 13 32 21 52 21c18 0 33 -6 44 -19l7 -11v-146c0 -64 -1 -91 -1 -152c0 -92 27 -160 63 -201
c40 -45 104 -70 175 -70c138 0 201 114 201 265c0 33 2 71 2 104c0 16 -1 31 -2 42c-4 41 -5 75 -5 104v28c0 41 12 59 51 59c38 0 62 -26 64 -60c1 -28 2 -52 2 -75c0 -32 -1 -61 -1 -94c0 -36 -1 -71 -1 -108z" />
    <glyph glyph-name="yacute" unicode="&#xfd;" horiz-adv-x="680" 
d="M450 818v-5c0 -2 0 -5 -2 -8c-7 -13 -20 -22 -48 -38s-18 -10 -46 -26c-34 -20 -48 -28 -65 -28h-3c-24 0 -44 17 -44 38c0 6 2 11 6 17c10 15 16 21 73 58c45 29 56 36 72 36c22 0 57 -15 57 -44zM117 698c16 0 29 -5 38 -15c10 -11 43 -67 54 -87
c32 -58 72 -118 112 -194c79 104 95 126 159 212l24 33c18 27 32 59 75 59c21 0 50 -10 50 -36c0 -12 -6 -20 -18 -37c-11 -15 -17 -26 -28 -44c-72 -118 -141 -217 -236 -338c-89 -113 -141 -176 -180 -215c-30 -30 -49 -44 -63 -47c-4 -1 -5 -1 -8 -1h-2
c-15 0 -39 8 -39 30c0 18 8 34 33 74c29 49 105 140 138 190c5 6 8 14 13 20l-3 9c-59 105 -113 206 -167 322c-4 9 -9 18 -9 26c0 28 35 39 57 39z" />
    <glyph glyph-name="ydieresis" unicode="&#xff;" horiz-adv-x="680" 
d="M215 784v11c0 1 -1 2 -1 2c0 13 0 19 5 29c8 19 30 32 50 32c25 0 53 -11 53 -51c0 -22 -2 -31 -5 -43c-4 -18 -12 -26 -20 -37c-10 -12 -22 -17 -36 -17c-38 0 -46 38 -46 74zM496 812c0 -50 -16 -96 -62 -96c-39 0 -45 39 -45 74v11c0 1 -1 2 -1 2c0 36 24 62 55 62
c25 0 53 -13 53 -53zM117 698c16 0 29 -5 38 -15c10 -11 43 -67 54 -87c32 -58 72 -118 112 -194c79 104 95 126 159 212l24 33c18 27 32 59 75 59c21 0 50 -10 50 -36c0 -12 -6 -20 -18 -37c-11 -15 -17 -26 -28 -44c-72 -118 -141 -217 -236 -338
c-89 -113 -141 -176 -180 -215c-30 -30 -49 -44 -63 -47c-4 -1 -5 -1 -8 -1h-2c-15 0 -39 8 -39 30c0 18 8 34 33 74c29 49 105 140 138 190c5 6 8 14 13 20l-3 9c-59 105 -113 206 -167 322c-4 9 -9 18 -9 26c0 28 35 39 57 39z" />
    <glyph glyph-name="OE" unicode="&#x152;" horiz-adv-x="1263" 
d="M786 610v-11c-2 -44 -4 -147 -4 -199c0 -10 1 -18 1 -25h2c11 0 17 -1 29 -1c56 0 164 4 220 4c43 0 73 -1 92 -2c27 -2 45 -9 45 -30c0 -12 -10 -28 -23 -35c-26 -14 -115 -18 -288 -21l-79 -3v-18c0 -56 -7 -133 -12 -183c53 -2 380 -6 398 -9c20 -4 29 -15 29 -27
c0 -10 -8 -20 -21 -27c-29 -14 -139 -21 -268 -21h-54c-61 1 -101 3 -127 5c-20 1 -28 3 -36 8c-18 13 -23 29 -23 51c0 9 -1 18 -1 27c-35 -35 -75 -63 -119 -79c-41 -15 -68 -18 -122 -18c-68 0 -115 9 -171 32c-94 39 -160 112 -188 193c-12 37 -16 61 -16 103
c0 200 145 359 327 383c16 2 33 4 52 4c97 0 175 -31 232 -78c-1 2 -1 5 -1 7c0 36 53 48 87 50c36 2 90 9 127 12c13 1 46 1 84 1h10c74 0 123 -2 147 -4c46 -5 67 -10 79 -21c6 -6 10 -12 10 -20c0 -7 -3 -12 -8 -18c-12 -14 -16 -14 -107 -14c-140 0 -208 -6 -296 -16h-7
zM160 324c0 -9 0 -18 1 -26c9 -70 34 -118 89 -162c45 -35 102 -60 142 -61c17 0 39 -4 56 -4c16 0 32 3 55 14c79 33 144 122 162 217c3 17 5 40 5 63c0 22 -2 42 -5 55c-22 98 -110 201 -245 201c-2 2 -5 2 -7 0c-80 -8 -165 -61 -211 -140c-26 -48 -32 -117 -42 -157z
" />
    <glyph glyph-name="oe" unicode="&#x153;" horiz-adv-x="1263" 
d="M789 610v-11c-2 -44 -4 -147 -4 -199c0 -10 1 -18 1 -25h2c11 0 17 -1 29 -1c56 0 164 4 220 4c43 0 73 -1 92 -2c27 -2 45 -9 45 -30c0 -12 -10 -28 -23 -35c-26 -14 -115 -18 -288 -21l-79 -3v-18c0 -56 -7 -133 -12 -183c53 -2 380 -6 398 -9c20 -4 29 -15 29 -27
c0 -10 -8 -20 -21 -27c-29 -14 -139 -21 -268 -21h-54c-61 1 -101 3 -127 5c-20 1 -28 3 -36 8c-18 13 -23 29 -23 51c0 9 -1 18 -1 27c-35 -35 -75 -63 -119 -79c-41 -15 -68 -18 -122 -18c-68 0 -115 9 -171 32c-94 39 -160 112 -188 193c-12 37 -16 61 -16 103
c0 200 145 359 327 383c16 2 33 4 52 4c97 0 175 -31 232 -78c-1 2 -1 5 -1 7c0 36 53 48 87 50c36 2 90 9 127 12c13 1 46 1 84 1h10c74 0 123 -2 147 -4c46 -5 67 -10 79 -21c6 -6 10 -12 10 -20c0 -7 -3 -12 -8 -18c-12 -14 -16 -14 -107 -14c-140 0 -208 -6 -296 -16h-7
zM163 324c0 -9 0 -18 1 -26c9 -70 34 -118 89 -162c45 -35 102 -60 142 -61c17 0 39 -4 56 -4c16 0 32 3 55 14c79 33 144 122 162 217c3 17 5 40 5 63c0 22 -2 42 -5 55c-22 98 -110 201 -245 201c-2 2 -5 2 -7 0c-80 -8 -165 -61 -211 -140c-26 -48 -32 -117 -42 -157z
" />
    <glyph glyph-name="Scaron" unicode="&#x160;" horiz-adv-x="661" 
d="M419 863c-11 -16 -52 -69 -63 -82c-10 -13 -25 -28 -44 -28h-3c-23 0 -35 12 -50 27c-14 14 -39 52 -58 77c-14 19 -24 29 -24 41v5c5 20 31 32 39 32c14 0 29 -5 41 -15c10 -8 35 -51 49 -69l39 49c11 16 18 29 44 29c13 0 45 -3 45 -29c0 -20 -11 -29 -15 -37zM50 411
c0 20 1 56 15 82c46 87 183 180 305 201c14 2 28 3 47 3h7c26 0 49 0 65 -6c61 -23 90 -49 92 -130c0 -13 1 -15 1 -28v-1c-10 -20 -29 -38 -53 -38c-40 0 -49 15 -50 58c-1 22 0 26 -22 37c-7 4 -10 7 -22 7h-17c-33 0 -49 -4 -87 -18c-52 -17 -104 -52 -141 -84
c-26 -25 -38 -65 -38 -76c0 -25 51 -26 82 -26h173c11 0 21 1 31 1c76 0 128 -45 150 -96c6 -16 13 -43 13 -68c0 -29 -2 -47 -8 -66c-18 -59 -57 -104 -116 -135c-52 -25 -109 -38 -162 -38c-59 0 -117 15 -165 45s-63 48 -89 106c-3 8 -4 13 -4 20v9c0 30 25 45 46 45
c41 0 45 -43 64 -69c24 -33 92 -54 151 -54c27 0 55 5 85 16c68 25 96 63 96 110c0 37 -15 68 -41 77c-16 5 -24 7 -71 7c-29 0 -93 -2 -122 -2c-107 0 -215 26 -215 111z" />
    <glyph glyph-name="scaron" unicode="&#x161;" horiz-adv-x="661" 
d="M419 863c-11 -16 -52 -69 -63 -82c-10 -13 -25 -28 -44 -28h-3c-23 0 -35 12 -50 27c-14 14 -39 52 -58 77c-14 19 -24 29 -24 41v5c5 20 31 32 39 32c14 0 29 -5 41 -15c10 -8 35 -51 49 -69l39 49c11 16 18 29 44 29c13 0 45 -3 45 -29c0 -20 -11 -29 -15 -37zM50 411
c0 20 1 56 15 82c46 87 183 180 305 201c14 2 28 3 47 3h7c26 0 49 0 65 -6c61 -23 90 -49 92 -130c0 -13 1 -15 1 -28v-1c-10 -20 -29 -38 -53 -38c-40 0 -49 15 -50 58c-1 22 0 26 -22 37c-7 4 -10 7 -22 7h-17c-33 0 -49 -4 -87 -18c-52 -17 -104 -52 -141 -84
c-26 -25 -38 -65 -38 -76c0 -25 51 -26 82 -26h173c11 0 21 1 31 1c76 0 128 -45 150 -96c6 -16 13 -43 13 -68c0 -29 -2 -47 -8 -66c-18 -59 -57 -104 -116 -135c-52 -25 -109 -38 -162 -38c-59 0 -117 15 -165 45s-63 48 -89 106c-3 8 -4 13 -4 20v9c0 30 25 45 46 45
c41 0 45 -43 64 -69c24 -33 92 -54 151 -54c27 0 55 5 85 16c68 25 96 63 96 110c0 37 -15 68 -41 77c-16 5 -24 7 -71 7c-29 0 -93 -2 -122 -2c-107 0 -215 26 -215 111z" />
    <glyph glyph-name="Ydieresis" unicode="&#x178;" horiz-adv-x="680" 
d="M215 784v11c0 1 -1 2 -1 2c0 13 0 19 5 29c8 19 30 32 50 32c25 0 53 -11 53 -51c0 -22 -2 -31 -5 -43c-4 -18 -12 -26 -20 -37c-10 -12 -22 -17 -36 -17c-38 0 -46 38 -46 74zM496 812c0 -50 -16 -96 -62 -96c-39 0 -45 39 -45 74v11c0 1 -1 2 -1 2c0 36 24 62 55 62
c25 0 53 -13 53 -53zM117 698c16 0 29 -5 38 -15c10 -11 43 -67 54 -87c32 -58 72 -118 112 -194c79 104 95 126 159 212l24 33c18 27 32 59 75 59c21 0 50 -10 50 -36c0 -12 -6 -20 -18 -37c-11 -15 -17 -26 -28 -44c-72 -118 -141 -217 -236 -338
c-89 -113 -141 -176 -180 -215c-30 -30 -49 -44 -63 -47c-4 -1 -5 -1 -8 -1h-2c-15 0 -39 8 -39 30c0 18 8 34 33 74c29 49 105 140 138 190c5 6 8 14 13 20l-3 9c-59 105 -113 206 -167 322c-4 9 -9 18 -9 26c0 28 35 39 57 39z" />
    <glyph glyph-name="Zcaron" unicode="&#x17d;" horiz-adv-x="802" 
d="M515 890c-11 -16 -52 -69 -63 -82c-10 -13 -25 -28 -44 -28h-3c-23 0 -35 12 -50 27c-14 14 -39 52 -58 77c-14 19 -24 29 -24 41v5c5 20 31 32 39 32c14 0 29 -5 41 -15c10 -8 35 -51 49 -69l39 49c11 16 18 29 44 29c13 0 45 -3 45 -29c0 -20 -11 -29 -15 -37zM291 92
c100 0 380 -2 410 -6c28 -4 44 -13 44 -34c0 -16 -17 -28 -35 -32c-38 -8 -116 -13 -241 -13c-118 0 -337 4 -361 6c-23 2 -44 18 -44 39c0 10 5 19 14 28c135 137 283 312 416 457c24 26 65 61 84 84c-60 -1 -236 -5 -337 -10c-59 -3 -92 -4 -115 -4c-26 0 -38 1 -46 6
c-15 9 -23 21 -23 34c0 18 15 32 35 37c29 8 348 17 475 17c12 3 22 5 34 5s23 -2 35 -5c51 0 62 -1 72 -7c15 -7 25 -20 25 -34c0 -7 -3 -14 -8 -19c-10 -14 -92 -107 -127 -145c-44 -47 -190 -204 -257 -280c-61 -70 -86 -98 -113 -124h63z" />
    <glyph glyph-name="zcaron" unicode="&#x17e;" horiz-adv-x="802" 
d="M515 890c-11 -16 -52 -69 -63 -82c-10 -13 -25 -28 -44 -28h-3c-23 0 -35 12 -50 27c-14 14 -39 52 -58 77c-14 19 -24 29 -24 41v5c5 20 31 32 39 32c14 0 29 -5 41 -15c10 -8 35 -51 49 -69l39 49c11 16 18 29 44 29c13 0 45 -3 45 -29c0 -20 -11 -29 -15 -37zM291 92
c100 0 380 -2 410 -6c28 -4 44 -13 44 -34c0 -16 -17 -28 -35 -32c-38 -8 -116 -13 -241 -13c-118 0 -337 4 -361 6c-23 2 -44 18 -44 39c0 10 5 19 14 28c135 137 283 312 416 457c24 26 65 61 84 84c-60 -1 -236 -5 -337 -10c-59 -3 -92 -4 -115 -4c-26 0 -38 1 -46 6
c-15 9 -23 21 -23 34c0 18 15 32 35 37c29 8 348 17 475 17c12 3 22 5 34 5s23 -2 35 -5c51 0 62 -1 72 -7c15 -7 25 -20 25 -34c0 -7 -3 -14 -8 -19c-10 -14 -92 -107 -127 -145c-44 -47 -190 -204 -257 -280c-61 -70 -86 -98 -113 -124h63z" />
    <glyph glyph-name="circumflex" unicode="&#x2c6;" horiz-adv-x="387" 
d="M325 657c0 -29 -33 -33 -47 -33c-26 0 -34 11 -45 27l-35 47c-14 -18 -43 -59 -53 -67c-12 -10 -27 -15 -41 -15c-8 0 -40 2 -40 30c0 14 8 25 24 46c19 25 50 69 64 83c15 15 26 20 49 20h3c19 0 32 -7 42 -20c11 -13 56 -78 67 -94c4 -8 12 -12 12 -24z" />
    <glyph glyph-name="caron" unicode="&#x2c7;" horiz-adv-x="366" 
d="M296 756c-11 -16 -52 -69 -63 -82c-10 -13 -25 -28 -44 -28h-3c-23 0 -35 12 -50 27c-14 14 -39 52 -58 77c-14 19 -24 29 -24 41v5c5 20 31 32 39 32c14 0 29 -5 41 -15c10 -8 35 -51 49 -69l39 49c11 16 18 29 44 29c13 0 45 -3 45 -29c0 -20 -11 -29 -15 -37z" />
    <glyph glyph-name="tilde" unicode="&#x2dc;" horiz-adv-x="418" 
d="M180 722c-13 -11 -29 -28 -40 -40c-6 -13 -22 -22 -37 -22s-37 11 -37 31c0 10 7 20 13 29c19 30 51 69 105 69c43 0 59 -26 77 -50c16 20 26 49 59 49c16 0 40 -8 40 -31c0 -16 -13 -31 -21 -42c-22 -31 -39 -51 -79 -51c-44 0 -59 29 -80 58z" />
    <glyph glyph-name="endash" unicode="&#x2013;" horiz-adv-x="563" 
d="M453 313h-14c-63 0 -103 -1 -169 -1c-25 0 -48 1 -71 1c-27 0 -54 -1 -82 -4h-4c-22 0 -47 13 -47 35c0 21 31 36 62 40c56 7 85 11 142 11c73 0 112 -2 184 -2c22 0 40 -18 40 -40s-19 -40 -41 -40z" />
    <glyph glyph-name="emdash" unicode="&#x2014;" horiz-adv-x="673" 
d="M479 391c31 0 53 1 84 1c23 0 41 -18 41 -41c0 -22 -18 -40 -40 -41c-28 -1 -46 -1 -74 -1c-69 0 -124 2 -192 2h-61c-33 0 -64 0 -98 -5c-7 -1 -23 -3 -30 -3c-23 0 -42 17 -42 40c0 21 32 34 52 37c58 8 102 16 166 16c68 0 126 -5 194 -5z" />
    <glyph glyph-name="quoteleft" unicode="&#x2018;" horiz-adv-x="329" 
d="M54 646c0 30 32 50 60 50c7 0 18 -1 24 -6c10 -7 31 -30 45 -53c51 -76 78 -121 86 -141c1 -5 4 -9 4 -14c0 -31 -33 -52 -61 -52s-40 13 -50 34c-9 18 -12 28 -48 83c-14 22 -34 49 -42 59c-12 16 -18 29 -18 40z" />
    <glyph glyph-name="quoteright" unicode="&#x2019;" horiz-adv-x="328" 
d="M275 657c0 -6 -2 -11 -4 -15c-8 -19 -36 -65 -87 -141c-15 -23 -35 -47 -46 -53c-6 -4 -15 -4 -23 -4c-28 0 -59 19 -59 49c0 11 5 23 17 39c8 10 28 37 42 59c36 55 42 65 51 83c11 24 22 36 47 36c28 0 62 -22 62 -53z" />
    <glyph glyph-name="quotesinglbase" unicode="&#x201a;" horiz-adv-x="339" 
d="M279 183c0 -6 -2 -11 -4 -15c-8 -19 -36 -65 -87 -141c-15 -23 -35 -47 -46 -53c-6 -4 -15 -4 -23 -4c-28 0 -59 19 -59 49c0 11 5 23 17 39c8 10 28 37 42 59c36 55 42 65 51 83c11 24 22 36 47 36c28 0 62 -22 62 -53z" />
    <glyph glyph-name="quotedblleft" unicode="&#x201c;" horiz-adv-x="527" 
d="M114 694h1l1 1c9 0 17 -2 22 -5c10 -7 31 -30 45 -53c51 -76 78 -121 86 -141c1 -5 3 -8 3 -14c0 -32 -32 -52 -60 -52s-37 13 -47 34c-9 18 -15 28 -51 83c-14 22 -34 49 -42 59c-12 16 -18 29 -18 40c0 30 32 48 60 48zM412 436h-7c-3 0 -6 0 -9 2c-12 5 -21 14 -38 41
c-32 51 -63 92 -104 142c-8 10 -12 15 -12 24c0 34 28 56 58 56c8 0 16 -3 23 -6c16 -10 37 -33 98 -117c18 -25 46 -67 51 -80v-4c0 -2 -2 -1 -2 -4v-2c0 -29 -32 -52 -58 -52z" />
    <glyph glyph-name="quotedblright" unicode="&#x201d;" horiz-adv-x="529" 
d="M273 657c0 -6 -1 -11 -3 -15c-8 -19 -36 -65 -87 -141c-15 -23 -35 -47 -46 -53c-6 -4 -15 -4 -23 -4c-28 0 -59 19 -59 49c0 11 5 23 17 39c8 10 28 37 42 59c36 55 42 65 51 83c10 21 19 35 47 35s61 -21 61 -52zM417 702c26 0 60 -23 60 -51v-3
c-2 -19 -32 -60 -51 -88c-61 -84 -82 -107 -98 -117c-7 -3 -14 -5 -23 -5c-30 0 -56 22 -56 56c0 9 2 13 10 23c41 50 72 91 104 142c17 27 25 36 37 41c7 0 11 2 16 2h1z" />
    <glyph glyph-name="quotedblbase" unicode="&#x201e;" horiz-adv-x="543" 
d="M278 185c0 -6 -1 -11 -3 -15c-8 -19 -36 -65 -87 -141c-15 -23 -35 -47 -46 -53c-6 -4 -15 -4 -23 -4c-28 0 -59 19 -59 49c0 11 5 23 17 39c8 10 28 37 42 59c36 55 42 65 51 83c10 21 19 35 47 35s61 -21 61 -52zM422 230c26 0 60 -23 60 -51v-3
c-2 -19 -32 -60 -51 -88c-61 -84 -82 -107 -98 -117c-7 -3 -14 -5 -23 -5c-30 0 -56 22 -56 56c0 9 2 13 10 23c41 50 72 91 104 142c17 27 25 36 37 41c7 0 11 2 16 2h1z" />
    <glyph glyph-name="bullet" unicode="&#x2022;" horiz-adv-x="354" 
d="M162 246v1c-25 1 -50 13 -63 32c-20 13 -37 37 -37 71c0 20 6 35 12 44c19 32 54 54 97 54c39 0 71 -12 91 -32c22 -22 27 -50 27 -71c0 -57 -39 -103 -98 -103c-9 0 -20 4 -29 4z" />
    <glyph glyph-name="perthousand" unicode="&#x2030;" horiz-adv-x="788" 
d="M644 164c0 30 -13 54 -31 66c-7 5 -14 6 -15 6c0 0 -4 0 -9 -4c-19 -14 -37 -48 -37 -83c0 -39 21 -72 49 -82h1c22 18 42 59 42 97zM370 237c-39 -13 -71 -61 -71 -110c0 -14 12 -51 29 -51h2c10 0 18 0 26 8c19 20 37 66 37 98c0 25 -12 43 -23 55zM155 474
c0 -16 10 -48 29 -48c10 0 24 5 37 14c17 11 34 27 46 45c9 11 9 18 9 25c0 25 -13 52 -24 63c-4 3 -7 7 -13 7s-12 -6 -17 -8c-39 -19 -67 -55 -67 -98zM349 348c-12 -17 -15 -27 -23 -43c10 2 20 3 32 3c34 0 66 -9 91 -28c17 -13 28 -29 36 -47c27 36 71 65 131 65
c56 0 93 -28 112 -62c10 -18 15 -36 15 -61c0 -42 -15 -73 -34 -102c-22 -35 -59 -69 -122 -69c-59 0 -99 33 -119 72c-12 -24 -43 -53 -65 -59c-28 -8 -49 -9 -65 -9c-24 0 -43 3 -64 20c-42 35 -53 57 -57 77l-2 13c-17 -31 -49 -96 -78 -112c-10 -4 -18 -6 -28 -6
c-17 0 -50 5 -50 28c0 18 14 50 33 86c39 77 104 168 143 244c-10 -1 -24 -2 -34 -2h-1c-40 0 -78 10 -107 32c-34 27 -42 47 -42 97c0 92 117 170 204 170c61 0 80 -59 105 -96c18 33 59 81 77 112c10 17 31 23 54 23c21 0 46 -6 46 -30c0 -16 -10 -36 -24 -61
c-23 -42 -54 -83 -81 -123s-57 -91 -83 -132z" />
    <glyph glyph-name="Euro" unicode="&#x20ac;" horiz-adv-x="757" 
d="M92 471c36 0 60 -3 95 -4c45 102 130 190 246 221c32 9 66 13 99 13c66 0 93 -21 143 -41c15 -6 25 -20 25 -37c0 -22 -10 -25 -32 -25c-7 0 -15 2 -21 4c-36 15 -56 17 -104 17c-24 0 -48 -3 -71 -9c-75 -20 -137 -78 -174 -143c60 0 166 1 225 4h2c23 0 41 -18 41 -41
c0 -22 -17 -40 -39 -41c-65 -3 -177 -4 -242 -4h-21c-6 -23 -11 -48 -11 -74v-4c76 1 199 4 275 4c23 0 41 -18 41 -41c0 -22 -18 -41 -40 -41c-71 -1 -188 -3 -259 -4c26 -62 81 -115 144 -131c17 -4 36 -6 56 -6c55 0 126 16 157 29l18 7c5 2 12 4 18 4c24 0 46 -7 46 -31
c0 -18 -11 -34 -27 -41c-64 -27 -117 -48 -202 -48c-117 0 -198 50 -254 118c-24 29 -44 63 -56 98c-31 -1 -51 -2 -83 -2c-23 0 -41 18 -41 41c0 22 18 41 40 41c26 0 43 1 69 1c0 5 -1 10 -1 15c0 23 3 46 7 67c-27 1 -44 2 -71 3c-22 1 -39 18 -39 40s19 41 41 41z" />
    <glyph glyph-name="I.WithoutCrossbar" unicode="&#xe000;" horiz-adv-x="271" 
d="M185 86c-1 -38 -11 -78 -58 -78c-28 0 -40 19 -43 47c-8 71 -11 163 -11 247c0 60 1 121 4 181l4 76c5 92 7 98 13 111c9 17 30 28 54 28c15 0 35 -6 43 -15c8 -6 8 -15 8 -30c0 -49 -3 -108 -6 -156c-2 -81 -5 -210 -5 -212c0 -12 1 -24 1 -37c0 -52 -2 -115 -4 -162z
" />
    </font>
</defs>
</svg>
